<?xml version="1.0" encoding="utf-8" standalone="no"?>
<!DOCTYPE svg PUBLIC "-//W3C//DTD SVG 1.1//EN"
  "http://www.w3.org/Graphics/SVG/1.1/DTD/svg11.dtd">
<svg xmlns:xlink="http://www.w3.org/1999/xlink" width="685.935374pt" height="404.936719pt" viewBox="0 0 685.935374 404.936719" xmlns="http://www.w3.org/2000/svg" version="1.1">
 <metadata>
  <rdf:RDF xmlns:dc="http://purl.org/dc/elements/1.1/" xmlns:cc="http://creativecommons.org/ns#" xmlns:rdf="http://www.w3.org/1999/02/22-rdf-syntax-ns#">
   <cc:Work>
    <dc:type rdf:resource="http://purl.org/dc/dcmitype/StillImage"/>
    <dc:date>2026-04-22T19:28:09.353872</dc:date>
    <dc:format>image/svg+xml</dc:format>
    <dc:creator>
     <cc:Agent>
      <dc:title>Matplotlib v3.9.2, https://matplotlib.org/</dc:title>
     </cc:Agent>
    </dc:creator>
   </cc:Work>
  </rdf:RDF>
 </metadata>
 <defs>
  <style type="text/css">*{stroke-linejoin: round; stroke-linecap: butt}</style>
 </defs>
 <g id="figure_1">
  <g id="patch_1">
   <path d="M 0 404.936719 
L 685.935374 404.936719 
L 685.935374 0 
L 0 0 
z
" style="fill: #ffffff"/>
  </g>
  <g id="axes_1">
   <g id="patch_2">
    <path d="M 103.060938 364.8 
L 671.662937 364.8 
L 671.662937 32.16 
L 103.060938 32.16 
z
" style="fill: #ffffff"/>
   </g>
   <g id="patch_3">
    <path d="M 103.060938 349.68 
L 171.689939 349.68 
L 171.689939 299.28 
L 103.060938 299.28 
z
" clip-path="url(#p0a95205a52)" style="fill: #1f77b4"/>
   </g>
   <g id="patch_4">
    <path d="M 103.060938 286.68 
L 210.293752 286.68 
L 210.293752 236.28 
L 103.060938 236.28 
z
" clip-path="url(#p0a95205a52)" style="fill: #1f77b4"/>
   </g>
   <g id="patch_5">
    <path d="M 103.060938 223.68 
L 240.31894 223.68 
L 240.31894 173.28 
L 103.060938 173.28 
z
" clip-path="url(#p0a95205a52)" style="fill: #1f77b4"/>
   </g>
   <g id="patch_6">
    <path d="M 103.060938 160.68 
L 639.225011 160.68 
L 639.225011 110.28 
L 103.060938 110.28 
z
" clip-path="url(#p0a95205a52)" style="fill: #1f77b4"/>
   </g>
   <g id="patch_7">
    <path d="M 103.060938 97.68 
L 644.586652 97.68 
L 644.586652 47.28 
L 103.060938 47.28 
z
" clip-path="url(#p0a95205a52)" style="fill: #1f77b4"/>
   </g>
   <g id="matplotlib.axis_1">
    <g id="xtick_1">
     <g id="line2d_1">
      <path d="M 103.060938 364.8 
L 103.060938 32.16 
" clip-path="url(#p0a95205a52)" style="fill: none; stroke: #b0b0b0; stroke-opacity: 0.25; stroke-width: 0.8; stroke-linecap: square"/>
     </g>
     <g id="line2d_2">
      <defs>
       <path id="ma1dd607386" d="M 0 0 
L 0 3.5 
" style="stroke: #000000; stroke-width: 0.8"/>
      </defs>
      <g>
       <use xlink:href="#ma1dd607386" x="103.060938" y="364.8" style="stroke: #000000; stroke-width: 0.8"/>
      </g>
     </g>
     <g id="text_1">
      <!-- 0 -->
      <g transform="translate(99.879688 379.398437) scale(0.1 -0.1)">
       <defs>
        <path id="DejaVuSans-30" d="M 2034 4250 
Q 1547 4250 1301 3770 
Q 1056 3291 1056 2328 
Q 1056 1369 1301 889 
Q 1547 409 2034 409 
Q 2525 409 2770 889 
Q 3016 1369 3016 2328 
Q 3016 3291 2770 3770 
Q 2525 4250 2034 4250 
z
M 2034 4750 
Q 2819 4750 3233 4129 
Q 3647 3509 3647 2328 
Q 3647 1150 3233 529 
Q 2819 -91 2034 -91 
Q 1250 -91 836 529 
Q 422 1150 422 2328 
Q 422 3509 836 4129 
Q 1250 4750 2034 4750 
z
" transform="scale(0.015625)"/>
       </defs>
       <use xlink:href="#DejaVuSans-30"/>
      </g>
     </g>
    </g>
    <g id="xtick_2">
     <g id="line2d_3">
      <path d="M 210.293752 364.8 
L 210.293752 32.16 
" clip-path="url(#p0a95205a52)" style="fill: none; stroke: #b0b0b0; stroke-opacity: 0.25; stroke-width: 0.8; stroke-linecap: square"/>
     </g>
     <g id="line2d_4">
      <g>
       <use xlink:href="#ma1dd607386" x="210.293752" y="364.8" style="stroke: #000000; stroke-width: 0.8"/>
      </g>
     </g>
     <g id="text_2">
      <!-- 200 -->
      <g transform="translate(200.750002 379.398437) scale(0.1 -0.1)">
       <defs>
        <path id="DejaVuSans-32" d="M 1228 531 
L 3431 531 
L 3431 0 
L 469 0 
L 469 531 
Q 828 903 1448 1529 
Q 2069 2156 2228 2338 
Q 2531 2678 2651 2914 
Q 2772 3150 2772 3378 
Q 2772 3750 2511 3984 
Q 2250 4219 1831 4219 
Q 1534 4219 1204 4116 
Q 875 4013 500 3803 
L 500 4441 
Q 881 4594 1212 4672 
Q 1544 4750 1819 4750 
Q 2544 4750 2975 4387 
Q 3406 4025 3406 3419 
Q 3406 3131 3298 2873 
Q 3191 2616 2906 2266 
Q 2828 2175 2409 1742 
Q 1991 1309 1228 531 
z
" transform="scale(0.015625)"/>
       </defs>
       <use xlink:href="#DejaVuSans-32"/>
       <use xlink:href="#DejaVuSans-30" x="63.623047"/>
       <use xlink:href="#DejaVuSans-30" x="127.246094"/>
      </g>
     </g>
    </g>
    <g id="xtick_3">
     <g id="line2d_5">
      <path d="M 317.526567 364.8 
L 317.526567 32.16 
" clip-path="url(#p0a95205a52)" style="fill: none; stroke: #b0b0b0; stroke-opacity: 0.25; stroke-width: 0.8; stroke-linecap: square"/>
     </g>
     <g id="line2d_6">
      <g>
       <use xlink:href="#ma1dd607386" x="317.526567" y="364.8" style="stroke: #000000; stroke-width: 0.8"/>
      </g>
     </g>
     <g id="text_3">
      <!-- 400 -->
      <g transform="translate(307.982817 379.398437) scale(0.1 -0.1)">
       <defs>
        <path id="DejaVuSans-34" d="M 2419 4116 
L 825 1625 
L 2419 1625 
L 2419 4116 
z
M 2253 4666 
L 3047 4666 
L 3047 1625 
L 3713 1625 
L 3713 1100 
L 3047 1100 
L 3047 0 
L 2419 0 
L 2419 1100 
L 313 1100 
L 313 1709 
L 2253 4666 
z
" transform="scale(0.015625)"/>
       </defs>
       <use xlink:href="#DejaVuSans-34"/>
       <use xlink:href="#DejaVuSans-30" x="63.623047"/>
       <use xlink:href="#DejaVuSans-30" x="127.246094"/>
      </g>
     </g>
    </g>
    <g id="xtick_4">
     <g id="line2d_7">
      <path d="M 424.759382 364.8 
L 424.759382 32.16 
" clip-path="url(#p0a95205a52)" style="fill: none; stroke: #b0b0b0; stroke-opacity: 0.25; stroke-width: 0.8; stroke-linecap: square"/>
     </g>
     <g id="line2d_8">
      <g>
       <use xlink:href="#ma1dd607386" x="424.759382" y="364.8" style="stroke: #000000; stroke-width: 0.8"/>
      </g>
     </g>
     <g id="text_4">
      <!-- 600 -->
      <g transform="translate(415.215632 379.398437) scale(0.1 -0.1)">
       <defs>
        <path id="DejaVuSans-36" d="M 2113 2584 
Q 1688 2584 1439 2293 
Q 1191 2003 1191 1497 
Q 1191 994 1439 701 
Q 1688 409 2113 409 
Q 2538 409 2786 701 
Q 3034 994 3034 1497 
Q 3034 2003 2786 2293 
Q 2538 2584 2113 2584 
z
M 3366 4563 
L 3366 3988 
Q 3128 4100 2886 4159 
Q 2644 4219 2406 4219 
Q 1781 4219 1451 3797 
Q 1122 3375 1075 2522 
Q 1259 2794 1537 2939 
Q 1816 3084 2150 3084 
Q 2853 3084 3261 2657 
Q 3669 2231 3669 1497 
Q 3669 778 3244 343 
Q 2819 -91 2113 -91 
Q 1303 -91 875 529 
Q 447 1150 447 2328 
Q 447 3434 972 4092 
Q 1497 4750 2381 4750 
Q 2619 4750 2861 4703 
Q 3103 4656 3366 4563 
z
" transform="scale(0.015625)"/>
       </defs>
       <use xlink:href="#DejaVuSans-36"/>
       <use xlink:href="#DejaVuSans-30" x="63.623047"/>
       <use xlink:href="#DejaVuSans-30" x="127.246094"/>
      </g>
     </g>
    </g>
    <g id="xtick_5">
     <g id="line2d_9">
      <path d="M 531.992196 364.8 
L 531.992196 32.16 
" clip-path="url(#p0a95205a52)" style="fill: none; stroke: #b0b0b0; stroke-opacity: 0.25; stroke-width: 0.8; stroke-linecap: square"/>
     </g>
     <g id="line2d_10">
      <g>
       <use xlink:href="#ma1dd607386" x="531.992196" y="364.8" style="stroke: #000000; stroke-width: 0.8"/>
      </g>
     </g>
     <g id="text_5">
      <!-- 800 -->
      <g transform="translate(522.448446 379.398437) scale(0.1 -0.1)">
       <defs>
        <path id="DejaVuSans-38" d="M 2034 2216 
Q 1584 2216 1326 1975 
Q 1069 1734 1069 1313 
Q 1069 891 1326 650 
Q 1584 409 2034 409 
Q 2484 409 2743 651 
Q 3003 894 3003 1313 
Q 3003 1734 2745 1975 
Q 2488 2216 2034 2216 
z
M 1403 2484 
Q 997 2584 770 2862 
Q 544 3141 544 3541 
Q 544 4100 942 4425 
Q 1341 4750 2034 4750 
Q 2731 4750 3128 4425 
Q 3525 4100 3525 3541 
Q 3525 3141 3298 2862 
Q 3072 2584 2669 2484 
Q 3125 2378 3379 2068 
Q 3634 1759 3634 1313 
Q 3634 634 3220 271 
Q 2806 -91 2034 -91 
Q 1263 -91 848 271 
Q 434 634 434 1313 
Q 434 1759 690 2068 
Q 947 2378 1403 2484 
z
M 1172 3481 
Q 1172 3119 1398 2916 
Q 1625 2713 2034 2713 
Q 2441 2713 2670 2916 
Q 2900 3119 2900 3481 
Q 2900 3844 2670 4047 
Q 2441 4250 2034 4250 
Q 1625 4250 1398 4047 
Q 1172 3844 1172 3481 
z
" transform="scale(0.015625)"/>
       </defs>
       <use xlink:href="#DejaVuSans-38"/>
       <use xlink:href="#DejaVuSans-30" x="63.623047"/>
       <use xlink:href="#DejaVuSans-30" x="127.246094"/>
      </g>
     </g>
    </g>
    <g id="xtick_6">
     <g id="line2d_11">
      <path d="M 639.225011 364.8 
L 639.225011 32.16 
" clip-path="url(#p0a95205a52)" style="fill: none; stroke: #b0b0b0; stroke-opacity: 0.25; stroke-width: 0.8; stroke-linecap: square"/>
     </g>
     <g id="line2d_12">
      <g>
       <use xlink:href="#ma1dd607386" x="639.225011" y="364.8" style="stroke: #000000; stroke-width: 0.8"/>
      </g>
     </g>
     <g id="text_6">
      <!-- 1000 -->
      <g transform="translate(626.500011 379.398437) scale(0.1 -0.1)">
       <defs>
        <path id="DejaVuSans-31" d="M 794 531 
L 1825 531 
L 1825 4091 
L 703 3866 
L 703 4441 
L 1819 4666 
L 2450 4666 
L 2450 531 
L 3481 531 
L 3481 0 
L 794 0 
L 794 531 
z
" transform="scale(0.015625)"/>
       </defs>
       <use xlink:href="#DejaVuSans-31"/>
       <use xlink:href="#DejaVuSans-30" x="63.623047"/>
       <use xlink:href="#DejaVuSans-30" x="127.246094"/>
       <use xlink:href="#DejaVuSans-30" x="190.869141"/>
      </g>
     </g>
    </g>
    <g id="text_7">
     <!-- 上下文窗口（千 tokens） -->
     <g transform="translate(313.300531 396.008125) scale(0.13 -0.13)">
      <defs>
       <path id="STHeitiTC-Medium-4e0a" d="M 3245 326 
Q 3712 326 4105 329 
Q 4499 333 4835 342 
Q 5171 352 5456 361 
Q 5741 371 5997 390 
L 5997 -250 
Q 5734 -230 5446 -220 
Q 5158 -211 4819 -201 
Q 4480 -192 4083 -189 
Q 3686 -186 3206 -186 
Q 2253 -186 1581 -202 
Q 909 -218 397 -250 
L 397 390 
Q 838 358 1379 345 
Q 1920 333 2650 326 
L 2650 3424 
Q 2650 3808 2646 4083 
Q 2643 4358 2636 4547 
Q 2630 4736 2620 4851 
Q 2611 4966 2598 5037 
Q 2758 5005 2956 4992 
Q 3155 4979 3341 4979 
Q 3430 4979 3440 4940 
Q 3450 4902 3366 4845 
Q 3315 4806 3280 4643 
Q 3245 4480 3245 4262 
L 3245 3418 
L 4090 3418 
Q 4525 3418 4854 3430 
Q 5184 3443 5446 3469 
L 5446 2835 
Q 5190 2867 4857 2876 
Q 4525 2886 4090 2886 
L 3245 2886 
L 3245 326 
z
" transform="scale(0.015625)"/>
       <path id="STHeitiTC-Medium-4e0b" d="M 5139 1184 
Q 4954 1421 4778 1625 
Q 4602 1830 4416 2016 
Q 4230 2202 4022 2378 
Q 3814 2554 3571 2726 
L 3994 3123 
Q 4314 2874 4547 2678 
Q 4781 2483 4973 2313 
Q 5165 2144 5328 1981 
Q 5491 1818 5664 1632 
L 5139 1184 
z
M 3296 397 
Q 3296 250 3299 134 
Q 3302 19 3305 -96 
Q 3309 -211 3318 -336 
Q 3328 -461 3347 -621 
L 2675 -621 
Q 2688 -467 2694 -342 
Q 2701 -218 2707 -102 
Q 2714 13 2714 131 
Q 2714 250 2714 397 
L 2714 4083 
Q 2336 4083 2019 4076 
Q 1702 4070 1427 4064 
Q 1152 4058 915 4045 
Q 678 4032 461 4019 
L 461 4646 
Q 717 4627 998 4617 
Q 1280 4608 1613 4598 
Q 1946 4589 2336 4585 
Q 2726 4582 3200 4582 
Q 3667 4582 4060 4585 
Q 4454 4589 4787 4598 
Q 5120 4608 5405 4617 
Q 5690 4627 5939 4646 
L 5939 4019 
Q 5696 4038 5421 4048 
Q 5146 4058 4822 4067 
Q 4499 4077 4121 4080 
Q 3744 4083 3296 4083 
L 3296 397 
z
" transform="scale(0.015625)"/>
       <path id="STHeitiTC-Medium-6587" d="M 2061 3699 
Q 2093 3456 2173 3158 
Q 2253 2861 2381 2557 
Q 2509 2253 2681 1965 
Q 2854 1677 3078 1459 
Q 3238 1626 3379 1830 
Q 3520 2035 3632 2304 
Q 3744 2573 3827 2915 
Q 3910 3258 3962 3699 
L 2061 3699 
z
M 2995 4192 
Q 2886 4576 2675 4986 
L 3373 5146 
Q 3398 4941 3452 4685 
Q 3507 4429 3578 4192 
Q 4320 4198 4861 4211 
Q 5402 4224 5837 4256 
L 5837 3642 
Q 5568 3661 5261 3670 
Q 4954 3680 4582 3693 
Q 4435 2771 4156 2156 
Q 3878 1542 3494 1126 
Q 4672 294 6067 333 
Q 5939 230 5852 147 
Q 5766 64 5705 -19 
Q 5645 -102 5603 -185 
Q 5562 -269 5530 -371 
Q 5184 -314 4832 -198 
Q 4480 -83 4157 64 
Q 3834 211 3549 377 
Q 3264 544 3046 717 
Q 2822 550 2534 380 
Q 2246 211 1939 60 
Q 1632 -90 1331 -205 
Q 1030 -320 787 -378 
Q 755 -192 646 -38 
Q 538 115 333 243 
Q 992 314 1597 541 
Q 2202 768 2643 1088 
Q 2413 1344 2227 1670 
Q 2042 1997 1898 2342 
Q 1754 2688 1658 3037 
Q 1562 3386 1517 3693 
Q 1190 3686 902 3673 
Q 614 3661 358 3642 
L 358 4256 
Q 851 4224 1475 4208 
Q 2099 4192 2995 4192 
z
" transform="scale(0.015625)"/>
       <path id="STHeitiTC-Medium-7a97" d="M 2534 1587 
Q 2650 1530 2781 1462 
Q 2912 1395 3043 1328 
Q 3174 1261 3283 1203 
Q 3392 1146 3456 1107 
Q 3603 1235 3712 1379 
Q 3821 1523 3891 1677 
L 2598 1677 
Q 2586 1651 2566 1632 
Q 2547 1613 2534 1587 
z
M 4832 2438 
L 1574 2438 
L 1574 96 
L 4832 96 
L 4832 2438 
z
M 2662 2829 
Q 2752 3053 2790 3190 
Q 2829 3328 2842 3469 
Q 2963 3437 3107 3414 
Q 3251 3392 3366 3386 
Q 3437 3379 3446 3344 
Q 3456 3309 3392 3270 
Q 3354 3245 3296 3158 
Q 3238 3072 3110 2829 
Q 3738 2829 4134 2829 
Q 4531 2829 4771 2835 
Q 5011 2842 5136 2845 
Q 5261 2848 5338 2861 
Q 5325 2778 5321 2630 
Q 5318 2483 5318 2176 
L 5318 160 
Q 5318 -141 5328 -291 
Q 5338 -442 5357 -589 
L 4832 -589 
L 4832 -294 
L 1574 -294 
L 1574 -710 
L 1043 -710 
Q 1056 -627 1062 -560 
Q 1069 -493 1075 -413 
Q 1082 -333 1082 -227 
Q 1082 -122 1082 38 
L 1082 2176 
Q 1082 2483 1078 2630 
Q 1075 2778 1062 2861 
Q 1133 2848 1238 2845 
Q 1344 2842 1523 2835 
Q 1702 2829 1977 2829 
Q 2253 2829 2662 2829 
z
M 2304 1318 
Q 2170 1171 2074 1094 
Q 1933 1229 1670 1286 
Q 1805 1376 1949 1504 
Q 2093 1632 2224 1779 
Q 2355 1926 2457 2083 
Q 2560 2240 2605 2381 
Q 2714 2336 2806 2313 
Q 2899 2291 3021 2278 
Q 3085 2266 3085 2234 
Q 3085 2202 3014 2176 
Q 2957 2157 2931 2131 
Q 2906 2106 2848 2029 
L 3885 2029 
Q 4192 2029 4317 2035 
Q 4442 2042 4506 2054 
Q 4390 1715 4220 1427 
Q 4051 1139 3814 902 
Q 3853 877 3917 838 
Q 3981 800 4054 755 
Q 4128 710 4208 659 
Q 4288 608 4365 563 
L 4109 224 
Q 4064 262 3984 316 
Q 3904 371 3814 428 
Q 3725 486 3638 540 
Q 3552 595 3494 634 
Q 3219 442 2870 320 
Q 2522 198 2086 128 
Q 2035 237 1974 313 
Q 1914 390 1830 474 
Q 2234 525 2550 624 
Q 2867 723 3110 864 
Q 3002 928 2787 1056 
Q 2573 1184 2304 1318 
z
M 2829 4083 
Q 2861 4064 2893 4045 
Q 2925 4026 2957 4006 
Q 3021 3974 3005 3926 
Q 2989 3878 2899 3878 
Q 2816 3878 2755 3852 
Q 2694 3827 2579 3738 
Q 2272 3507 1862 3276 
Q 1453 3046 1030 2886 
Q 973 2995 899 3100 
Q 826 3206 704 3296 
Q 1152 3386 1581 3590 
Q 2010 3795 2323 4083 
L 1037 4083 
L 1037 3437 
L 518 3437 
L 518 4538 
Q 691 4525 896 4518 
Q 1101 4512 1389 4509 
Q 1677 4506 2070 4502 
Q 2464 4499 3014 4499 
Q 2963 4640 2896 4784 
Q 2829 4928 2752 5056 
L 3334 5203 
Q 3424 5011 3488 4841 
Q 3552 4672 3616 4499 
Q 4102 4499 4457 4502 
Q 4813 4506 5072 4509 
Q 5331 4512 5523 4518 
Q 5715 4525 5882 4538 
L 5882 3635 
L 5363 3635 
L 5363 4083 
L 4160 4083 
L 4160 3712 
Q 4160 3590 4240 3539 
Q 4320 3488 4550 3488 
Q 4736 3488 4995 3520 
Q 5254 3552 5440 3603 
Q 5402 3501 5389 3369 
Q 5376 3238 5389 3149 
Q 5248 3117 4982 3104 
Q 4717 3091 4352 3091 
Q 4128 3091 3997 3113 
Q 3866 3136 3798 3181 
Q 3731 3226 3708 3296 
Q 3686 3366 3686 3469 
L 3686 4083 
L 2829 4083 
z
" transform="scale(0.015625)"/>
       <path id="STHeitiTC-Medium-53e3" d="M 4781 800 
L 4781 4026 
L 1619 4026 
L 1619 800 
L 4781 800 
z
M 1619 294 
L 1619 -256 
L 973 -256 
Q 998 -13 1008 217 
Q 1018 448 1018 710 
L 1018 4045 
Q 1018 4218 1008 4333 
Q 998 4448 973 4570 
Q 1056 4557 1187 4550 
Q 1318 4544 1561 4541 
Q 1805 4538 2201 4534 
Q 2598 4531 3206 4531 
Q 3814 4531 4204 4534 
Q 4595 4538 4841 4541 
Q 5088 4544 5216 4550 
Q 5344 4557 5427 4570 
Q 5402 4448 5395 4329 
Q 5389 4211 5389 4045 
L 5389 774 
Q 5389 512 5398 278 
Q 5408 45 5427 -192 
L 4781 -192 
L 4781 294 
L 1619 294 
z
" transform="scale(0.015625)"/>
       <path id="STHeitiTC-Medium-ff08" d="M 5651 -749 
L 5274 -749 
Q 4646 173 4409 835 
Q 4173 1498 4173 2266 
Q 4173 3034 4432 3750 
Q 4691 4467 5254 5267 
L 5645 5267 
Q 5082 4237 4928 3606 
Q 4774 2976 4774 2093 
Q 4774 1472 4953 861 
Q 5133 250 5651 -749 
z
" transform="scale(0.015625)"/>
       <path id="STHeitiTC-Medium-5343" d="M 2925 3968 
Q 2458 3878 2013 3817 
Q 1568 3757 1050 3706 
Q 1018 3878 954 4035 
Q 890 4192 819 4294 
Q 1261 4269 1885 4333 
Q 2509 4397 3213 4557 
Q 3578 4640 3978 4774 
Q 4378 4909 4691 5082 
Q 4787 4934 4912 4771 
Q 5037 4608 5178 4454 
Q 5242 4384 5210 4342 
Q 5178 4301 5082 4333 
Q 5043 4346 4886 4333 
Q 4730 4320 4509 4285 
Q 4288 4250 4025 4202 
Q 3763 4154 3520 4102 
L 3520 2438 
Q 4320 2445 4918 2457 
Q 5517 2470 5971 2502 
L 5971 1869 
Q 5517 1901 4918 1913 
Q 4320 1926 3520 1933 
L 3520 256 
Q 3520 38 3536 -230 
Q 3552 -499 3584 -768 
L 2861 -768 
Q 2893 -499 2909 -230 
Q 2925 38 2925 256 
L 2925 1933 
Q 2106 1933 1494 1917 
Q 883 1901 422 1869 
L 422 2502 
Q 883 2470 1494 2454 
Q 2106 2438 2925 2438 
L 2925 3968 
z
" transform="scale(0.015625)"/>
       <path id="STHeitiTC-Medium-20" transform="scale(0.015625)"/>
       <path id="STHeitiTC-Medium-74" d="M 2048 3411 
L 1357 3411 
L 1357 966 
Q 1357 832 1395 803 
Q 1434 774 1587 774 
L 1894 774 
L 1894 320 
Q 1587 269 1427 269 
Q 1120 269 973 419 
Q 826 570 826 896 
L 826 3411 
L 224 3411 
L 224 3872 
L 826 3872 
L 826 5184 
L 1357 5184 
L 1357 3872 
L 2048 3872 
L 2048 3411 
z
" transform="scale(0.015625)"/>
       <path id="STHeitiTC-Medium-6f" d="M 2099 3962 
Q 2854 3962 3382 3418 
Q 3910 2874 3910 2112 
Q 3910 1350 3388 809 
Q 2867 269 2099 269 
Q 1331 269 806 809 
Q 282 1350 282 2112 
Q 282 2874 810 3418 
Q 1338 3962 2099 3962 
z
M 2099 774 
Q 2630 774 3004 1161 
Q 3379 1549 3379 2096 
Q 3379 2643 2998 3043 
Q 2618 3443 2096 3443 
Q 1574 3443 1196 3043 
Q 819 2643 819 2092 
Q 819 1542 1184 1158 
Q 1549 774 2099 774 
z
" transform="scale(0.015625)"/>
       <path id="STHeitiTC-Medium-6b" d="M 3181 384 
L 2419 384 
L 781 1856 
L 781 384 
L 250 384 
L 250 5184 
L 781 5184 
L 781 2554 
L 2285 3866 
L 3072 3872 
L 1152 2208 
L 3181 384 
z
" transform="scale(0.015625)"/>
       <path id="STHeitiTC-Medium-65" d="M 3878 2035 
L 819 2035 
Q 851 1459 1206 1110 
Q 1562 762 2054 762 
Q 2893 762 3334 1587 
L 3782 1357 
Q 3482 800 3072 534 
Q 2662 269 2093 269 
Q 1306 269 794 809 
Q 282 1350 282 2112 
Q 282 2874 797 3418 
Q 1312 3962 2073 3962 
Q 2835 3962 3347 3446 
Q 3859 2931 3878 2035 
z
M 3290 2502 
Q 3194 2950 2854 3200 
Q 2515 3450 2074 3450 
Q 1178 3450 883 2502 
L 3290 2502 
z
" transform="scale(0.015625)"/>
       <path id="STHeitiTC-Medium-6e" d="M 3501 384 
L 2976 384 
L 2976 2048 
Q 2976 2624 2921 2832 
Q 2867 3040 2761 3184 
Q 2656 3328 2493 3398 
Q 2330 3469 2096 3469 
Q 1862 3469 1638 3353 
Q 1414 3238 1254 3033 
Q 1094 2829 1033 2598 
Q 973 2368 973 1677 
L 973 384 
L 442 384 
L 442 3872 
L 973 3872 
L 973 3347 
Q 1491 3962 2202 3962 
Q 2579 3962 2886 3766 
Q 3194 3571 3347 3228 
Q 3501 2886 3501 2176 
L 3501 384 
z
" transform="scale(0.015625)"/>
       <path id="STHeitiTC-Medium-73" d="M 2259 3462 
L 1920 3110 
Q 1542 3462 1229 3462 
Q 1030 3462 896 3337 
Q 762 3213 762 3030 
Q 762 2848 912 2710 
Q 1062 2573 1446 2371 
Q 1830 2170 2038 1926 
Q 2246 1683 2246 1331 
Q 2246 883 1936 576 
Q 1626 269 1171 269 
Q 538 269 115 806 
L 448 1178 
Q 794 774 1152 774 
Q 1395 774 1568 934 
Q 1741 1094 1741 1308 
Q 1741 1523 1584 1667 
Q 1427 1811 1046 2003 
Q 666 2195 470 2428 
Q 275 2662 275 3043 
Q 275 3424 553 3693 
Q 832 3962 1289 3962 
Q 1747 3962 2259 3462 
z
" transform="scale(0.015625)"/>
       <path id="STHeitiTC-Medium-ff09" d="M 1120 5267 
Q 1747 4346 1984 3683 
Q 2221 3021 2221 2253 
Q 2221 1485 1961 768 
Q 1702 51 1139 -749 
L 749 -749 
Q 1312 282 1465 912 
Q 1619 1542 1619 2426 
Q 1619 3046 1440 3657 
Q 1261 4269 742 5267 
L 1120 5267 
z
" transform="scale(0.015625)"/>
      </defs>
      <use xlink:href="#STHeitiTC-Medium-4e0a"/>
      <use xlink:href="#STHeitiTC-Medium-4e0b" x="99.999985"/>
      <use xlink:href="#STHeitiTC-Medium-6587" x="199.999969"/>
      <use xlink:href="#STHeitiTC-Medium-7a97" x="299.999954"/>
      <use xlink:href="#STHeitiTC-Medium-53e3" x="399.999939"/>
      <use xlink:href="#STHeitiTC-Medium-ff08" x="499.999924"/>
      <use xlink:href="#STHeitiTC-Medium-5343" x="599.999908"/>
      <use xlink:href="#STHeitiTC-Medium-20" x="699.999893"/>
      <use xlink:href="#STHeitiTC-Medium-74" x="724.999878"/>
      <use xlink:href="#STHeitiTC-Medium-6f" x="758.899872"/>
      <use xlink:href="#STHeitiTC-Medium-6b" x="824.399857"/>
      <use xlink:href="#STHeitiTC-Medium-65" x="874.599854"/>
      <use xlink:href="#STHeitiTC-Medium-6e" x="939.599838"/>
      <use xlink:href="#STHeitiTC-Medium-73" x="1000.599823"/>
      <use xlink:href="#STHeitiTC-Medium-ff09" x="1039.399811"/>
     </g>
    </g>
   </g>
   <g id="matplotlib.axis_2">
    <g id="ytick_1">
     <g id="line2d_13">
      <defs>
       <path id="m94bc9aa1e3" d="M 0 0 
L -3.5 0 
" style="stroke: #000000; stroke-width: 0.8"/>
      </defs>
      <g>
       <use xlink:href="#m94bc9aa1e3" x="103.060938" y="324.48" style="stroke: #000000; stroke-width: 0.8"/>
      </g>
     </g>
     <g id="text_8">
      <!-- gpt-oss -->
      <g transform="translate(61.490625 328.53) scale(0.1 -0.1)">
       <defs>
        <path id="STHeitiTC-Medium-67" d="M 3930 1203 
Q 3930 512 3811 179 
Q 3693 -154 3453 -384 
Q 3213 -614 2877 -732 
Q 2541 -851 2138 -851 
Q 774 -851 320 301 
L 883 301 
Q 1254 -365 2118 -365 
Q 2515 -365 2828 -211 
Q 3142 -58 3270 198 
Q 3398 454 3398 986 
L 3398 1018 
Q 3149 736 2797 589 
Q 2445 442 2067 442 
Q 1312 442 803 960 
Q 294 1478 301 2182 
Q 294 2918 832 3440 
Q 1370 3962 2109 3962 
Q 2848 3962 3398 3360 
L 3398 3872 
L 3930 3872 
L 3930 1203 
z
M 3418 2182 
Q 3418 2733 3050 3091 
Q 2682 3450 2150 3450 
Q 1587 3450 1206 3062 
Q 826 2675 826 2163 
Q 826 1651 1190 1296 
Q 1555 941 2124 941 
Q 2694 941 3056 1289 
Q 3418 1638 3418 2182 
z
" transform="scale(0.015625)"/>
        <path id="STHeitiTC-Medium-70" d="M 973 3341 
Q 1491 3962 2252 3962 
Q 3014 3962 3545 3421 
Q 4077 2880 4077 2118 
Q 4077 1357 3552 813 
Q 3027 269 2284 269 
Q 1542 269 973 896 
L 973 -851 
L 448 -851 
L 448 3872 
L 973 3872 
L 973 3341 
z
M 2253 762 
Q 2778 762 3165 1155 
Q 3552 1549 3552 2105 
Q 3552 2662 3171 3056 
Q 2790 3450 2240 3450 
Q 1690 3450 1315 3062 
Q 941 2675 941 2105 
Q 941 1536 1325 1149 
Q 1709 762 2253 762 
z
" transform="scale(0.015625)"/>
        <path id="STHeitiTC-Medium-2d" d="M 1965 2067 
L 160 2067 
L 160 2541 
L 1965 2541 
L 1965 2067 
z
" transform="scale(0.015625)"/>
       </defs>
       <use xlink:href="#STHeitiTC-Medium-67"/>
       <use xlink:href="#STHeitiTC-Medium-70" x="67.299988"/>
       <use xlink:href="#STHeitiTC-Medium-74" x="135.499969"/>
       <use xlink:href="#STHeitiTC-Medium-2d" x="169.399963"/>
       <use xlink:href="#STHeitiTC-Medium-6f" x="202.59996"/>
       <use xlink:href="#STHeitiTC-Medium-73" x="268.099945"/>
       <use xlink:href="#STHeitiTC-Medium-73" x="306.899933"/>
      </g>
     </g>
    </g>
    <g id="ytick_2">
     <g id="line2d_14">
      <g>
       <use xlink:href="#m94bc9aa1e3" x="103.060938" y="261.48" style="stroke: #000000; stroke-width: 0.8"/>
      </g>
     </g>
     <g id="text_9">
      <!-- GLM-5.1 -->
      <g transform="translate(56.357813 265.53) scale(0.1 -0.1)">
       <defs>
        <path id="STHeitiTC-Medium-47" d="M 5325 2675 
Q 5306 1536 4662 902 
Q 4019 269 2970 269 
Q 1766 269 1049 1008 
Q 333 1747 333 2739 
Q 333 3731 1049 4457 
Q 1766 5184 2899 5184 
Q 3514 5184 4042 4957 
Q 4570 4730 5075 4262 
L 4653 3859 
Q 4262 4237 3808 4438 
Q 3354 4640 2874 4640 
Q 2394 4640 1920 4384 
Q 1446 4128 1177 3693 
Q 909 3258 909 2752 
Q 909 1965 1501 1379 
Q 2093 794 2982 794 
Q 3642 794 4122 1155 
Q 4602 1517 4710 2144 
L 3251 2144 
L 3251 2675 
L 5325 2675 
z
" transform="scale(0.015625)"/>
        <path id="STHeitiTC-Medium-4c" d="M 2835 384 
L 512 384 
L 512 5069 
L 1069 5069 
L 1069 915 
L 2835 915 
L 2835 384 
z
" transform="scale(0.015625)"/>
        <path id="STHeitiTC-Medium-4d" d="M 5581 384 
L 5037 384 
L 4602 3571 
L 3027 384 
L 2861 384 
L 1267 3597 
L 832 384 
L 301 384 
L 966 5069 
L 1101 5069 
L 2944 1350 
L 4774 5069 
L 4909 5069 
L 5581 384 
z
" transform="scale(0.015625)"/>
        <path id="STHeitiTC-Medium-35" d="M 3194 4544 
L 1549 4544 
L 1338 3398 
Q 1613 3469 1856 3469 
Q 2477 3469 2893 3030 
Q 3309 2592 3309 1913 
Q 3309 1235 2861 752 
Q 2413 269 1664 269 
Q 1088 269 691 621 
Q 294 973 211 1587 
L 768 1587 
Q 851 1203 1107 998 
Q 1363 794 1690 794 
Q 2125 794 2438 1123 
Q 2752 1453 2752 1939 
Q 2752 2374 2480 2656 
Q 2208 2938 1747 2938 
Q 1286 2938 672 2675 
L 1120 5069 
L 3194 5069 
L 3194 4544 
z
" transform="scale(0.015625)"/>
        <path id="STHeitiTC-Medium-2e" d="M 966 1478 
Q 1146 1478 1270 1353 
Q 1395 1229 1395 1046 
Q 1395 864 1270 739 
Q 1146 614 970 614 
Q 794 614 666 742 
Q 538 870 538 1049 
Q 538 1229 666 1353 
Q 794 1478 966 1478 
z
" transform="scale(0.015625)"/>
        <path id="STHeitiTC-Medium-31" d="M 2131 384 
L 1587 384 
L 1587 4531 
L 826 4531 
L 1158 5069 
L 2131 5069 
L 2131 384 
z
" transform="scale(0.015625)"/>
       </defs>
       <use xlink:href="#STHeitiTC-Medium-47"/>
       <use xlink:href="#STHeitiTC-Medium-4c" x="87.199982"/>
       <use xlink:href="#STHeitiTC-Medium-4d" x="133.399979"/>
       <use xlink:href="#STHeitiTC-Medium-2d" x="225.299973"/>
       <use xlink:href="#STHeitiTC-Medium-35" x="258.499969"/>
       <use xlink:href="#STHeitiTC-Medium-2e" x="313.899963"/>
       <use xlink:href="#STHeitiTC-Medium-31" x="341.59996"/>
      </g>
     </g>
    </g>
    <g id="ytick_3">
     <g id="line2d_15">
      <g>
       <use xlink:href="#m94bc9aa1e3" x="103.060938" y="198.48" style="stroke: #000000; stroke-width: 0.8"/>
      </g>
     </g>
     <g id="text_10">
      <!-- Kimi K2.5 -->
      <g transform="translate(54.510938 202.53) scale(0.1 -0.1)">
       <defs>
        <path id="STHeitiTC-Medium-4b" d="M 3757 384 
L 3027 384 
L 1075 2458 
L 1075 384 
L 512 384 
L 512 5069 
L 1075 5069 
L 1075 3405 
L 2842 5069 
L 3597 5069 
L 1338 2963 
L 3757 384 
z
" transform="scale(0.015625)"/>
        <path id="STHeitiTC-Medium-69" d="M 640 5184 
Q 813 5184 931 5065 
Q 1050 4947 1050 4777 
Q 1050 4608 931 4489 
Q 813 4371 643 4371 
Q 474 4371 355 4492 
Q 237 4614 237 4777 
Q 237 4941 355 5062 
Q 474 5184 640 5184 
z
M 909 384 
L 378 384 
L 378 3872 
L 909 3872 
L 909 384 
z
" transform="scale(0.015625)"/>
        <path id="STHeitiTC-Medium-6d" d="M 5613 384 
L 5075 384 
L 5075 2285 
Q 5075 2739 5020 2950 
Q 4966 3162 4784 3306 
Q 4602 3450 4304 3450 
Q 4006 3450 3744 3258 
Q 3482 3066 3379 2736 
Q 3277 2406 3277 1760 
L 3277 384 
L 2758 384 
L 2758 2170 
Q 2758 2694 2704 2924 
Q 2650 3155 2464 3302 
Q 2278 3450 1996 3450 
Q 1715 3450 1462 3274 
Q 1210 3098 1088 2813 
Q 966 2528 966 1869 
L 966 384 
L 442 384 
L 442 3872 
L 966 3872 
L 966 3379 
Q 1414 3962 2086 3962 
Q 2451 3962 2748 3766 
Q 3046 3571 3174 3213 
Q 3392 3578 3718 3770 
Q 4045 3962 4410 3962 
Q 4909 3962 5261 3610 
Q 5613 3258 5613 2285 
L 5613 384 
z
" transform="scale(0.015625)"/>
        <path id="STHeitiTC-Medium-32" d="M 3360 384 
L 90 384 
L 1914 2355 
Q 2374 2842 2566 3123 
Q 2758 3405 2758 3763 
Q 2758 4122 2480 4390 
Q 2202 4659 1789 4659 
Q 1376 4659 1101 4368 
Q 826 4077 787 3539 
L 256 3539 
Q 288 4294 736 4739 
Q 1184 5184 1821 5184 
Q 2458 5184 2877 4771 
Q 3296 4358 3296 3763 
Q 3296 3328 3065 2950 
Q 2835 2573 2368 2074 
L 1293 915 
L 3360 915 
L 3360 384 
z
" transform="scale(0.015625)"/>
       </defs>
       <use xlink:href="#STHeitiTC-Medium-4b"/>
       <use xlink:href="#STHeitiTC-Medium-69" x="59.099991"/>
       <use xlink:href="#STHeitiTC-Medium-6d" x="79.099976"/>
       <use xlink:href="#STHeitiTC-Medium-69" x="172.899963"/>
       <use xlink:href="#STHeitiTC-Medium-20" x="192.899948"/>
       <use xlink:href="#STHeitiTC-Medium-4b" x="217.899933"/>
       <use xlink:href="#STHeitiTC-Medium-32" x="276.999924"/>
       <use xlink:href="#STHeitiTC-Medium-2e" x="332.399918"/>
       <use xlink:href="#STHeitiTC-Medium-35" x="360.099915"/>
      </g>
     </g>
    </g>
    <g id="ytick_4">
     <g id="line2d_16">
      <g>
       <use xlink:href="#m94bc9aa1e3" x="103.060938" y="135.48" style="stroke: #000000; stroke-width: 0.8"/>
      </g>
     </g>
     <g id="text_11">
      <!-- Claude Sonnet 4.6 -->
      <g transform="translate(7.2 139.53) scale(0.1 -0.1)">
       <defs>
        <path id="STHeitiTC-Medium-43" d="M 4909 1242 
Q 4154 269 2835 269 
Q 1722 269 1011 973 
Q 301 1677 301 2752 
Q 301 3418 630 3981 
Q 960 4544 1542 4864 
Q 2125 5184 2800 5184 
Q 3475 5184 4009 4925 
Q 4544 4666 4902 4166 
L 4480 3840 
Q 3814 4646 2835 4646 
Q 2035 4646 1456 4083 
Q 877 3520 877 2704 
Q 877 1888 1443 1341 
Q 2010 794 2912 794 
Q 3814 794 4480 1568 
L 4909 1242 
z
" transform="scale(0.015625)"/>
        <path id="STHeitiTC-Medium-6c" d="M 902 384 
L 378 384 
L 378 5184 
L 902 5184 
L 902 384 
z
" transform="scale(0.015625)"/>
        <path id="STHeitiTC-Medium-61" d="M 3917 384 
L 3398 384 
L 3398 896 
Q 2829 269 2086 269 
Q 1344 269 816 816 
Q 288 1363 288 2121 
Q 288 2880 819 3421 
Q 1350 3962 2115 3962 
Q 2880 3962 3398 3341 
L 3398 3872 
L 3917 3872 
L 3917 384 
z
M 2125 762 
Q 2656 762 3040 1146 
Q 3424 1530 3424 2102 
Q 3424 2675 3046 3062 
Q 2669 3450 2121 3450 
Q 1574 3450 1196 3050 
Q 819 2650 819 2106 
Q 819 1562 1203 1162 
Q 1587 762 2125 762 
z
" transform="scale(0.015625)"/>
        <path id="STHeitiTC-Medium-75" d="M 3450 384 
L 2918 384 
L 2918 909 
Q 2400 294 1690 294 
Q 1312 294 1005 489 
Q 698 685 544 1027 
Q 390 1370 390 2080 
L 390 3872 
L 915 3872 
L 915 2208 
Q 915 1632 969 1424 
Q 1024 1216 1129 1072 
Q 1235 928 1398 857 
Q 1562 787 1795 787 
Q 2029 787 2253 902 
Q 2477 1018 2637 1222 
Q 2797 1427 2857 1657 
Q 2918 1888 2918 2579 
L 2918 3872 
L 3450 3872 
L 3450 384 
z
" transform="scale(0.015625)"/>
        <path id="STHeitiTC-Medium-64" d="M 3923 384 
L 3405 384 
L 3405 896 
Q 2835 269 2089 269 
Q 1344 269 819 813 
Q 294 1357 294 2118 
Q 294 2880 825 3421 
Q 1357 3962 2121 3962 
Q 2886 3962 3405 3341 
L 3405 5184 
L 3923 5184 
L 3923 384 
z
M 2131 762 
Q 2637 762 3033 1139 
Q 3430 1517 3430 2096 
Q 3430 2675 3062 3062 
Q 2694 3450 2134 3450 
Q 1574 3450 1200 3050 
Q 826 2650 826 2109 
Q 826 1568 1210 1165 
Q 1594 762 2131 762 
z
" transform="scale(0.015625)"/>
        <path id="STHeitiTC-Medium-53" d="M 2317 4038 
Q 2061 4384 1881 4502 
Q 1702 4621 1462 4621 
Q 1222 4621 1059 4467 
Q 896 4314 896 4074 
Q 896 3834 1049 3654 
Q 1203 3475 1756 3068 
Q 2310 2662 2566 2304 
Q 2822 1946 2822 1549 
Q 2822 1030 2422 649 
Q 2022 269 1491 269 
Q 557 269 26 1312 
L 493 1581 
Q 909 806 1427 806 
Q 1760 806 1997 1017 
Q 2234 1229 2234 1510 
Q 2234 1792 2035 2045 
Q 1837 2298 1350 2666 
Q 864 3034 681 3226 
Q 499 3418 416 3635 
Q 333 3853 333 4070 
Q 333 4538 656 4861 
Q 979 5184 1491 5184 
Q 1888 5184 2182 4982 
Q 2477 4781 2758 4384 
L 2317 4038 
z
" transform="scale(0.015625)"/>
        <path id="STHeitiTC-Medium-34" d="M 3418 1453 
L 2861 1453 
L 2861 384 
L 2317 384 
L 2317 1453 
L 70 1453 
L 2701 5184 
L 2861 5184 
L 2861 1984 
L 3418 1984 
L 3418 1453 
z
M 2317 1984 
L 2317 3712 
L 1094 1984 
L 2317 1984 
z
" transform="scale(0.015625)"/>
        <path id="STHeitiTC-Medium-36" d="M 1594 3098 
Q 1798 3155 1984 3155 
Q 2515 3155 2912 2732 
Q 3309 2310 3309 1708 
Q 3309 1107 2880 688 
Q 2451 269 1830 269 
Q 1210 269 797 691 
Q 384 1114 384 1722 
Q 384 2016 499 2326 
Q 614 2637 915 3085 
L 2336 5203 
L 2797 4915 
L 1594 3098 
z
M 1843 806 
Q 2221 806 2493 1075 
Q 2765 1344 2765 1728 
Q 2765 2112 2496 2381 
Q 2227 2650 1843 2650 
Q 1459 2650 1190 2381 
Q 922 2112 922 1728 
Q 922 1344 1194 1075 
Q 1466 806 1843 806 
z
" transform="scale(0.015625)"/>
       </defs>
       <use xlink:href="#STHeitiTC-Medium-43"/>
       <use xlink:href="#STHeitiTC-Medium-6c" x="81.299988"/>
       <use xlink:href="#STHeitiTC-Medium-61" x="101.299973"/>
       <use xlink:href="#STHeitiTC-Medium-75" x="169.59996"/>
       <use xlink:href="#STHeitiTC-Medium-64" x="230.399948"/>
       <use xlink:href="#STHeitiTC-Medium-65" x="298.899933"/>
       <use xlink:href="#STHeitiTC-Medium-20" x="363.899918"/>
       <use xlink:href="#STHeitiTC-Medium-53" x="388.899902"/>
       <use xlink:href="#STHeitiTC-Medium-6f" x="438.69989"/>
       <use xlink:href="#STHeitiTC-Medium-6e" x="504.199875"/>
       <use xlink:href="#STHeitiTC-Medium-6e" x="565.19986"/>
       <use xlink:href="#STHeitiTC-Medium-65" x="626.199844"/>
       <use xlink:href="#STHeitiTC-Medium-74" x="691.199829"/>
       <use xlink:href="#STHeitiTC-Medium-20" x="725.099823"/>
       <use xlink:href="#STHeitiTC-Medium-34" x="750.099808"/>
       <use xlink:href="#STHeitiTC-Medium-2e" x="805.499802"/>
       <use xlink:href="#STHeitiTC-Medium-36" x="833.199799"/>
      </g>
     </g>
    </g>
    <g id="ytick_5">
     <g id="line2d_17">
      <g>
       <use xlink:href="#m94bc9aa1e3" x="103.060938" y="72.48" style="stroke: #000000; stroke-width: 0.8"/>
      </g>
     </g>
     <g id="text_12">
      <!-- Qwen3.6-35B-A3B -->
      <g transform="translate(10.446875 76.53) scale(0.1 -0.1)">
       <defs>
        <path id="STHeitiTC-Medium-51" d="M 4051 602 
Q 3494 269 2822 269 
Q 1760 269 1040 976 
Q 320 1683 320 2707 
Q 320 3757 1017 4470 
Q 1715 5184 2784 5184 
Q 3456 5184 4025 4861 
Q 4595 4538 4921 3968 
Q 5248 3398 5248 2726 
Q 5248 1677 4480 922 
L 5190 19 
L 4506 19 
L 4051 602 
z
M 4134 1350 
Q 4685 1907 4685 2720 
Q 4685 3533 4121 4089 
Q 3558 4646 2777 4646 
Q 1997 4646 1443 4083 
Q 890 3520 890 2704 
Q 890 1888 1450 1350 
Q 2010 813 2784 813 
Q 3283 813 3712 1043 
L 2662 2368 
L 3328 2368 
L 4134 1350 
z
" transform="scale(0.015625)"/>
        <path id="STHeitiTC-Medium-77" d="M 5299 3872 
L 3808 269 
L 3674 269 
L 2650 2752 
L 1619 269 
L 1485 269 
L 19 3872 
L 563 3872 
L 1549 1363 
L 2586 3872 
L 2714 3872 
L 3744 1357 
L 4749 3872 
L 5299 3872 
z
" transform="scale(0.015625)"/>
        <path id="STHeitiTC-Medium-33" d="M 2554 3021 
Q 2931 2835 3139 2508 
Q 3347 2182 3347 1798 
Q 3347 1171 2889 720 
Q 2432 269 1734 269 
Q 1107 269 707 630 
Q 307 992 166 1702 
L 710 1702 
Q 832 1248 1072 1027 
Q 1312 806 1757 806 
Q 2202 806 2502 1084 
Q 2803 1363 2803 1785 
Q 2803 2208 2460 2457 
Q 2118 2707 1453 2720 
L 1453 3232 
Q 1933 3232 2227 3437 
Q 2522 3642 2522 3946 
Q 2522 4250 2294 4451 
Q 2067 4653 1744 4653 
Q 1421 4653 1219 4470 
Q 1018 4288 877 3917 
L 320 3917 
Q 461 4531 832 4857 
Q 1203 5184 1747 5184 
Q 2291 5184 2691 4825 
Q 3091 4467 3091 3955 
Q 3091 3366 2554 3021 
z
" transform="scale(0.015625)"/>
        <path id="STHeitiTC-Medium-42" d="M 2470 2950 
Q 2918 2784 3145 2477 
Q 3373 2170 3373 1747 
Q 3373 1158 2947 771 
Q 2522 384 1837 384 
L 525 384 
L 525 5069 
L 1478 5069 
Q 2221 5069 2608 4765 
Q 2995 4461 2995 3898 
Q 2995 3283 2470 2950 
z
M 1069 3149 
L 1286 3149 
Q 1862 3149 2147 3328 
Q 2432 3507 2432 3898 
Q 2432 4531 1555 4531 
L 1069 4531 
L 1069 3149 
z
M 1069 922 
L 1594 922 
Q 2086 922 2310 1018 
Q 2534 1114 2668 1312 
Q 2803 1510 2803 1715 
Q 2803 1920 2723 2077 
Q 2643 2234 2486 2355 
Q 2330 2477 2102 2537 
Q 1875 2598 1280 2598 
L 1069 2598 
L 1069 922 
z
" transform="scale(0.015625)"/>
        <path id="STHeitiTC-Medium-41" d="M 4646 384 
L 4064 384 
L 3341 1952 
L 1408 1952 
L 691 384 
L 83 384 
L 2298 5254 
L 2464 5254 
L 4646 384 
z
M 3091 2509 
L 2381 4090 
L 1664 2509 
L 3091 2509 
z
" transform="scale(0.015625)"/>
       </defs>
       <use xlink:href="#STHeitiTC-Medium-51"/>
       <use xlink:href="#STHeitiTC-Medium-77" x="87.099991"/>
       <use xlink:href="#STHeitiTC-Medium-65" x="170.199982"/>
       <use xlink:href="#STHeitiTC-Medium-6e" x="235.199966"/>
       <use xlink:href="#STHeitiTC-Medium-33" x="296.199951"/>
       <use xlink:href="#STHeitiTC-Medium-2e" x="351.599945"/>
       <use xlink:href="#STHeitiTC-Medium-36" x="379.299942"/>
       <use xlink:href="#STHeitiTC-Medium-2d" x="434.699936"/>
       <use xlink:href="#STHeitiTC-Medium-33" x="467.899933"/>
       <use xlink:href="#STHeitiTC-Medium-35" x="523.299927"/>
       <use xlink:href="#STHeitiTC-Medium-42" x="578.699921"/>
       <use xlink:href="#STHeitiTC-Medium-2d" x="636.099915"/>
       <use xlink:href="#STHeitiTC-Medium-41" x="669.299911"/>
       <use xlink:href="#STHeitiTC-Medium-33" x="743.299896"/>
       <use xlink:href="#STHeitiTC-Medium-42" x="798.69989"/>
      </g>
     </g>
    </g>
   </g>
   <g id="patch_8">
    <path d="M 103.060938 364.8 
L 103.060938 32.16 
" style="fill: none; stroke: #000000; stroke-width: 0.8; stroke-linejoin: miter; stroke-linecap: square"/>
   </g>
   <g id="patch_9">
    <path d="M 671.662937 364.8 
L 671.662937 32.16 
" style="fill: none; stroke: #000000; stroke-width: 0.8; stroke-linejoin: miter; stroke-linecap: square"/>
   </g>
   <g id="patch_10">
    <path d="M 103.060938 364.8 
L 671.662937 364.8 
" style="fill: none; stroke: #000000; stroke-width: 0.8; stroke-linejoin: miter; stroke-linecap: square"/>
   </g>
   <g id="patch_11">
    <path d="M 103.060938 32.16 
L 671.662937 32.16 
" style="fill: none; stroke: #000000; stroke-width: 0.8; stroke-linejoin: miter; stroke-linecap: square"/>
   </g>
   <g id="text_13">
    <!-- 128K -->
    <g transform="translate(174.397567 328.203672) scale(0.11 -0.11)">
     <defs>
      <path id="STHeitiTC-Medium-38" d="M 2547 2950 
Q 3373 2522 3373 1747 
Q 3373 1114 2928 691 
Q 2483 269 1763 269 
Q 1043 269 608 691 
Q 173 1114 173 1709 
Q 173 2515 1018 2950 
Q 390 3315 390 3942 
Q 390 4435 800 4809 
Q 1210 5184 1782 5184 
Q 2355 5184 2758 4819 
Q 3162 4454 3162 3930 
Q 3162 3322 2547 2950 
z
M 1792 3181 
Q 2118 3181 2364 3411 
Q 2611 3642 2611 3939 
Q 2611 4237 2380 4445 
Q 2150 4653 1785 4653 
Q 1421 4653 1184 4445 
Q 947 4237 947 3939 
Q 947 3642 1203 3411 
Q 1459 3181 1792 3181 
z
M 1773 794 
Q 2234 794 2528 1069 
Q 2822 1344 2822 1728 
Q 2822 2112 2518 2393 
Q 2214 2675 1782 2675 
Q 1350 2675 1036 2384 
Q 723 2093 723 1699 
Q 723 1306 1014 1050 
Q 1306 794 1773 794 
z
" transform="scale(0.015625)"/>
     </defs>
     <use xlink:href="#STHeitiTC-Medium-31"/>
     <use xlink:href="#STHeitiTC-Medium-32" x="55.399994"/>
     <use xlink:href="#STHeitiTC-Medium-38" x="110.799988"/>
     <use xlink:href="#STHeitiTC-Medium-4b" x="166.199982"/>
    </g>
   </g>
   <g id="text_14">
    <!-- 200K -->
    <g transform="translate(213.001381 265.203672) scale(0.11 -0.11)">
     <defs>
      <path id="STHeitiTC-Medium-30" d="M 1747 5184 
Q 2502 5184 2944 4547 
Q 3386 3910 3386 2723 
Q 3386 1536 2938 902 
Q 2490 269 1738 269 
Q 986 269 573 893 
Q 160 1517 160 2729 
Q 160 3942 573 4563 
Q 986 5184 1747 5184 
z
M 1760 774 
Q 2285 774 2576 1283 
Q 2867 1792 2867 2726 
Q 2867 3661 2566 4160 
Q 2266 4659 1757 4659 
Q 1248 4659 966 4160 
Q 685 3661 685 2714 
Q 685 774 1760 774 
z
" transform="scale(0.015625)"/>
     </defs>
     <use xlink:href="#STHeitiTC-Medium-32"/>
     <use xlink:href="#STHeitiTC-Medium-30" x="55.399994"/>
     <use xlink:href="#STHeitiTC-Medium-30" x="110.799988"/>
     <use xlink:href="#STHeitiTC-Medium-4b" x="166.199982"/>
    </g>
   </g>
   <g id="text_15">
    <!-- 256K -->
    <g transform="translate(243.026569 202.203672) scale(0.11 -0.11)">
     <use xlink:href="#STHeitiTC-Medium-32"/>
     <use xlink:href="#STHeitiTC-Medium-35" x="55.399994"/>
     <use xlink:href="#STHeitiTC-Medium-36" x="110.799988"/>
     <use xlink:href="#STHeitiTC-Medium-4b" x="166.199982"/>
    </g>
   </g>
   <g id="text_16">
    <!-- 1.00M -->
    <g transform="translate(641.93264 139.203672) scale(0.11 -0.11)">
     <use xlink:href="#STHeitiTC-Medium-31"/>
     <use xlink:href="#STHeitiTC-Medium-2e" x="55.399994"/>
     <use xlink:href="#STHeitiTC-Medium-30" x="83.099991"/>
     <use xlink:href="#STHeitiTC-Medium-30" x="138.499985"/>
     <use xlink:href="#STHeitiTC-Medium-4d" x="193.899979"/>
    </g>
   </g>
   <g id="text_17">
    <!-- 1.01M -->
    <g transform="translate(647.29428 76.203672) scale(0.11 -0.11)">
     <use xlink:href="#STHeitiTC-Medium-31"/>
     <use xlink:href="#STHeitiTC-Medium-2e" x="55.399994"/>
     <use xlink:href="#STHeitiTC-Medium-30" x="83.099991"/>
     <use xlink:href="#STHeitiTC-Medium-31" x="138.499985"/>
     <use xlink:href="#STHeitiTC-Medium-4d" x="193.899979"/>
    </g>
   </g>
   <g id="text_18">
    <!-- 图 5：代表性系统公开给出的上下文窗口信号 -->
    <g transform="translate(228.929438 20.16) scale(0.16 -0.16)">
     <defs>
      <path id="STHeitiTC-Medium-56fe" d="M 3846 211 
Q 3501 390 3094 544 
Q 2688 698 2259 800 
L 2464 1178 
Q 2886 1069 3296 934 
Q 3706 800 4109 614 
L 3846 211 
z
M 3834 1120 
Q 3565 1248 3277 1353 
Q 2989 1459 2701 1549 
L 2899 1875 
Q 3206 1805 3478 1715 
Q 3750 1626 4026 1517 
L 3834 1120 
z
M 5107 4358 
L 1261 4358 
L 1261 122 
L 5107 122 
L 5107 4358 
z
M 1261 -602 
L 704 -602 
Q 730 -333 742 -83 
Q 755 166 755 454 
L 755 4070 
Q 755 4262 748 4473 
Q 742 4685 717 4870 
Q 838 4851 1008 4838 
Q 1178 4826 1456 4816 
Q 1734 4806 2153 4803 
Q 2573 4800 3200 4800 
Q 3827 4800 4256 4806 
Q 4685 4813 4966 4822 
Q 5248 4832 5414 4845 
Q 5581 4858 5683 4870 
Q 5658 4698 5648 4477 
Q 5638 4256 5638 4070 
L 5638 499 
Q 5638 358 5641 236 
Q 5645 115 5651 -9 
Q 5658 -134 5667 -265 
Q 5677 -397 5690 -557 
L 5107 -557 
L 5107 -301 
L 1261 -301 
L 1261 -602 
z
M 3290 2278 
Q 3117 2163 2918 2051 
Q 2720 1939 2509 1849 
Q 2298 1760 2090 1693 
Q 1882 1626 1696 1587 
Q 1645 1690 1574 1805 
Q 1504 1920 1427 2029 
Q 1888 2061 2265 2189 
Q 2643 2317 2963 2522 
Q 2803 2656 2672 2800 
Q 2541 2944 2438 3104 
Q 2349 2989 2249 2864 
Q 2150 2739 2029 2605 
Q 1926 2682 1824 2739 
Q 1722 2797 1606 2848 
Q 1958 3117 2227 3462 
Q 2496 3808 2694 4269 
Q 2822 4198 2931 4160 
Q 3040 4122 3130 4109 
Q 3347 4070 3181 3974 
Q 3085 3917 2950 3782 
L 4582 3782 
Q 4474 3565 4365 3389 
Q 4256 3213 4137 3065 
Q 4019 2918 3891 2787 
Q 3763 2656 3616 2534 
Q 3942 2368 4294 2278 
Q 4646 2189 5030 2144 
Q 4819 1888 4730 1613 
Q 4346 1722 3981 1891 
Q 3616 2061 3290 2278 
z
M 3270 2746 
Q 3456 2899 3609 3078 
Q 3763 3258 3866 3411 
L 2662 3411 
Q 2656 3398 2649 3392 
Q 2643 3386 2637 3373 
Q 2771 3187 2931 3030 
Q 3091 2874 3270 2746 
z
" transform="scale(0.015625)"/>
      <path id="STHeitiTC-Medium-ff1a" d="M 3398 3008 
L 2733 3008 
L 2733 3686 
L 3398 3686 
L 3398 3008 
z
M 3398 384 
L 2733 384 
L 2733 1062 
L 3398 1062 
L 3398 384 
z
" transform="scale(0.015625)"/>
      <path id="STHeitiTC-Medium-4ee3" d="M 4794 3674 
Q 4672 3917 4544 4128 
Q 4416 4339 4250 4550 
L 4781 4851 
Q 5114 4429 5350 4032 
L 4794 3674 
z
M 3898 2566 
Q 3962 2125 4086 1721 
Q 4211 1318 4380 988 
Q 4550 659 4758 416 
Q 4966 173 5203 58 
Q 5235 38 5270 51 
Q 5306 64 5347 141 
Q 5389 218 5440 384 
Q 5491 550 5562 845 
Q 5658 678 5805 588 
Q 5952 499 6112 474 
Q 6003 122 5920 -99 
Q 5837 -320 5760 -441 
Q 5683 -563 5609 -608 
Q 5536 -653 5453 -653 
Q 5338 -653 5168 -585 
Q 4998 -518 4812 -393 
Q 4627 -269 4448 -83 
Q 4269 102 4134 333 
Q 4006 544 3907 752 
Q 3808 960 3718 1206 
Q 3629 1453 3549 1753 
Q 3469 2054 3392 2451 
Q 3149 2394 2966 2349 
Q 2784 2304 2643 2265 
Q 2502 2227 2393 2195 
Q 2285 2163 2202 2138 
L 2093 2701 
Q 2266 2714 2541 2755 
Q 2816 2797 3309 2912 
Q 3270 3130 3232 3437 
Q 3194 3744 3165 4061 
Q 3136 4378 3117 4666 
Q 3098 4954 3098 5126 
Q 3283 5094 3462 5088 
Q 3642 5082 3782 5094 
Q 3910 5107 3929 5078 
Q 3949 5050 3859 4947 
Q 3814 4902 3785 4806 
Q 3757 4710 3753 4502 
Q 3750 4294 3769 3942 
Q 3789 3590 3840 3034 
L 4346 3155 
Q 4627 3219 4838 3276 
Q 5050 3334 5206 3379 
Q 5363 3424 5475 3462 
Q 5587 3501 5670 3533 
L 5837 2976 
Q 5658 2963 5354 2899 
Q 5050 2835 4493 2707 
L 3898 2566 
z
M 1242 2502 
Q 1114 2259 979 2044 
Q 845 1830 704 1645 
Q 614 1805 515 1929 
Q 416 2054 288 2163 
Q 435 2304 566 2461 
Q 698 2618 813 2810 
Q 928 3002 1037 3238 
Q 1146 3475 1254 3782 
Q 1357 4070 1433 4412 
Q 1510 4755 1542 5030 
Q 1709 4973 1885 4928 
Q 2061 4883 2221 4858 
Q 2336 4838 2339 4800 
Q 2342 4762 2221 4685 
Q 2195 4672 2166 4627 
Q 2138 4582 2090 4476 
Q 2042 4371 1965 4185 
Q 1888 4000 1766 3693 
L 1766 -717 
L 1171 -717 
Q 1210 -371 1226 -80 
Q 1242 211 1242 550 
L 1242 2502 
z
" transform="scale(0.015625)"/>
      <path id="STHeitiTC-Medium-8868" d="M 4070 1062 
Q 4301 1203 4461 1308 
Q 4621 1414 4736 1510 
Q 4851 1606 4934 1692 
Q 5018 1779 5094 1882 
Q 5139 1843 5206 1788 
Q 5274 1734 5344 1683 
Q 5414 1632 5478 1587 
Q 5542 1542 5581 1517 
Q 5658 1466 5645 1430 
Q 5632 1395 5523 1402 
Q 5478 1402 5408 1382 
Q 5338 1363 5203 1296 
Q 5069 1229 4851 1110 
Q 4634 992 4288 794 
Q 4563 512 5004 291 
Q 5446 70 5997 19 
Q 5824 -115 5696 -294 
Q 5568 -474 5542 -589 
Q 5024 -403 4611 -124 
Q 4198 154 3891 550 
Q 3680 819 3510 1110 
Q 3341 1402 3181 1715 
L 3629 1946 
Q 3699 1754 3801 1539 
Q 3904 1325 4070 1062 
z
M 2989 3981 
Q 2573 3981 2243 3977 
Q 1914 3974 1638 3968 
Q 1363 3962 1126 3952 
Q 890 3942 666 3930 
L 666 4461 
Q 896 4448 1136 4438 
Q 1376 4429 1648 4425 
Q 1920 4422 2246 4419 
Q 2573 4416 2989 4416 
Q 2982 4672 2969 4861 
Q 2957 5050 2944 5152 
Q 3027 5139 3123 5126 
Q 3219 5114 3305 5107 
Q 3392 5101 3465 5097 
Q 3539 5094 3578 5094 
Q 3648 5101 3670 5072 
Q 3693 5043 3616 4986 
Q 3565 4954 3536 4848 
Q 3507 4742 3507 4653 
L 3507 4416 
Q 4262 4416 4841 4429 
Q 5421 4442 5843 4461 
L 5843 3930 
Q 5421 3955 4841 3968 
Q 4262 3981 3507 3981 
L 3507 3456 
Q 3866 3456 4134 3459 
Q 4403 3462 4624 3468 
Q 4845 3475 5037 3488 
Q 5229 3501 5440 3514 
L 5440 3008 
Q 5229 3021 5037 3030 
Q 4845 3040 4624 3043 
Q 4403 3046 4134 3049 
Q 3866 3053 3507 3053 
L 3507 2554 
Q 4045 2554 4397 2557 
Q 4749 2560 5011 2566 
Q 5274 2573 5510 2582 
Q 5747 2592 6054 2611 
L 6054 2099 
Q 5715 2112 5468 2121 
Q 5222 2131 4944 2134 
Q 4666 2138 4288 2141 
Q 3910 2144 3302 2144 
Q 3142 1920 2908 1677 
Q 2675 1434 2387 1190 
L 2387 -32 
L 3571 454 
Q 3552 173 3654 -19 
Q 3328 -141 3027 -259 
Q 2726 -378 2480 -483 
Q 2234 -589 2051 -675 
Q 1869 -762 1773 -813 
Q 1734 -685 1660 -544 
Q 1587 -403 1504 -301 
Q 1702 -269 1914 -205 
L 1914 838 
Q 1581 614 1254 438 
Q 928 262 704 173 
Q 621 378 541 499 
Q 461 621 339 723 
Q 634 768 950 893 
Q 1267 1018 1574 1200 
Q 1882 1382 2163 1622 
Q 2445 1862 2675 2144 
Q 2195 2144 1888 2141 
Q 1581 2138 1353 2134 
Q 1126 2131 924 2121 
Q 723 2112 448 2099 
L 448 2611 
Q 646 2598 806 2588 
Q 966 2579 1116 2572 
Q 1267 2566 1433 2563 
Q 1600 2560 1814 2557 
Q 2029 2554 2313 2554 
Q 2598 2554 2989 2554 
L 2989 3053 
Q 2643 3053 2374 3049 
Q 2106 3046 1882 3043 
Q 1658 3040 1459 3030 
Q 1261 3021 1056 3008 
L 1056 3514 
Q 1267 3501 1462 3488 
Q 1658 3475 1882 3468 
Q 2106 3462 2374 3459 
Q 2643 3456 2989 3456 
L 2989 3981 
z
" transform="scale(0.015625)"/>
      <path id="STHeitiTC-Medium-6027" d="M 1901 4794 
Q 1850 4762 1814 4666 
Q 1779 4570 1779 4486 
L 1779 403 
Q 1779 179 1795 -105 
Q 1811 -390 1837 -659 
L 1229 -659 
Q 1254 -384 1264 -99 
Q 1274 186 1274 410 
L 1274 4166 
Q 1274 4294 1270 4400 
Q 1267 4506 1264 4605 
Q 1261 4704 1251 4803 
Q 1242 4902 1229 5024 
Q 1370 4998 1539 4985 
Q 1709 4973 1830 4979 
Q 1978 4986 2003 4931 
Q 2029 4877 1901 4794 
z
M 960 3686 
Q 934 3296 921 2896 
Q 909 2496 896 2099 
L 307 2138 
Q 416 2522 454 2899 
Q 493 3277 474 3706 
L 960 3686 
z
M 2195 2906 
Q 2150 3117 2067 3325 
Q 1984 3533 1882 3686 
L 2304 3885 
Q 2413 3693 2505 3485 
Q 2598 3277 2656 3110 
L 2195 2906 
z
M 3315 3315 
Q 3270 3123 3222 2940 
Q 3174 2758 3104 2573 
Q 2982 2618 2838 2627 
Q 2694 2637 2566 2611 
Q 2784 3027 2896 3571 
Q 3008 4115 3034 4678 
Q 3174 4614 3334 4576 
Q 3494 4538 3590 4531 
Q 3718 4525 3724 4486 
Q 3731 4448 3648 4397 
Q 3610 4378 3546 4240 
Q 3482 4102 3411 3795 
L 4134 3795 
L 4134 4358 
Q 4134 4416 4134 4518 
Q 4134 4621 4131 4733 
Q 4128 4845 4121 4950 
Q 4115 5056 4109 5114 
Q 4166 5101 4249 5094 
Q 4333 5088 4419 5085 
Q 4506 5082 4586 5078 
Q 4666 5075 4717 5075 
Q 4774 5075 4787 5046 
Q 4800 5018 4755 4979 
Q 4704 4941 4685 4899 
Q 4666 4858 4666 4774 
L 4666 3802 
Q 4902 3802 5078 3808 
Q 5254 3814 5398 3817 
Q 5542 3821 5673 3827 
Q 5805 3834 5952 3846 
L 5952 3270 
Q 5773 3283 5613 3292 
Q 5453 3302 5299 3305 
Q 5146 3309 4992 3312 
Q 4838 3315 4666 3315 
L 4666 2138 
Q 4858 2138 5014 2144 
Q 5171 2150 5305 2156 
Q 5440 2163 5558 2176 
Q 5677 2189 5798 2202 
L 5798 1619 
Q 5677 1638 5558 1648 
Q 5440 1658 5305 1667 
Q 5171 1677 5014 1683 
Q 4858 1690 4666 1690 
L 4666 173 
Q 4915 173 5107 179 
Q 5299 186 5465 192 
Q 5632 198 5782 211 
Q 5933 224 6086 237 
L 6086 -390 
Q 5901 -371 5725 -358 
Q 5549 -346 5337 -336 
Q 5126 -326 4867 -323 
Q 4608 -320 4256 -320 
Q 3904 -320 3638 -326 
Q 3373 -333 3158 -342 
Q 2944 -352 2765 -365 
Q 2586 -378 2400 -397 
L 2400 230 
Q 2579 211 2752 201 
Q 2925 192 3126 185 
Q 3328 179 3571 176 
Q 3814 173 4134 173 
L 4134 1690 
Q 3917 1690 3744 1683 
Q 3571 1677 3427 1667 
Q 3283 1658 3155 1648 
Q 3027 1638 2899 1619 
L 2899 2202 
Q 3034 2189 3158 2176 
Q 3283 2163 3427 2156 
Q 3571 2150 3744 2144 
Q 3917 2138 4134 2138 
L 4134 3315 
L 3315 3315 
z
" transform="scale(0.015625)"/>
      <path id="STHeitiTC-Medium-7cfb" d="M 3418 3142 
Q 3834 3450 4102 3680 
Q 4371 3910 4442 4000 
Q 4736 3763 4902 3667 
Q 5056 3578 5037 3539 
Q 5018 3501 4864 3494 
Q 4838 3494 4585 3356 
Q 4333 3219 3930 2944 
Q 3488 2643 3219 2460 
Q 2950 2278 2793 2172 
Q 2637 2067 2566 2022 
Q 2496 1978 2451 1952 
L 4755 2029 
Q 4589 2163 4425 2275 
Q 4262 2387 4096 2470 
L 4531 2790 
Q 4691 2669 4873 2528 
Q 5056 2387 5241 2243 
Q 5427 2099 5603 1961 
Q 5779 1824 5920 1715 
L 5434 1274 
Q 5382 1357 5318 1440 
Q 5254 1523 5184 1606 
L 3558 1536 
L 3558 262 
Q 3558 0 3574 -201 
Q 3590 -403 3622 -653 
L 2918 -653 
Q 2938 -499 2947 -387 
Q 2957 -275 2963 -172 
Q 2970 -70 2973 32 
Q 2976 134 2976 262 
L 2976 1523 
Q 2470 1504 2144 1485 
Q 1818 1466 1606 1440 
Q 1395 1414 1273 1385 
Q 1152 1357 1056 1325 
Q 1030 1459 969 1632 
Q 909 1805 838 1920 
L 1536 1933 
Q 1638 1984 1740 2038 
Q 1843 2093 1968 2166 
Q 2093 2240 2249 2339 
Q 2406 2438 2630 2586 
Q 2694 2624 2764 2675 
Q 2835 2726 2899 2771 
L 1645 2714 
Q 1498 2707 1334 2684 
Q 1171 2662 1043 2611 
Q 1024 2752 979 2915 
Q 934 3078 877 3181 
Q 986 3168 1117 3165 
Q 1248 3162 1402 3155 
Q 1549 3251 1718 3379 
Q 1888 3507 2061 3657 
Q 2234 3808 2397 3961 
Q 2560 4115 2694 4256 
Q 2240 4218 1926 4186 
Q 1613 4154 1408 4134 
Q 1203 4115 1091 4099 
Q 979 4083 922 4077 
Q 858 4397 736 4595 
Q 902 4582 1142 4582 
Q 1382 4582 1670 4595 
Q 1958 4608 2284 4637 
Q 2611 4666 2957 4704 
Q 3603 4781 4198 4877 
Q 4794 4973 5242 5069 
Q 5325 4902 5392 4784 
Q 5459 4666 5504 4614 
Q 5581 4525 5568 4502 
Q 5555 4480 5459 4493 
Q 5434 4493 5402 4496 
Q 5370 4499 5283 4492 
Q 5197 4486 5037 4473 
Q 4877 4461 4605 4435 
Q 4333 4410 3920 4371 
Q 3507 4333 2918 4275 
Q 2995 4192 3059 4157 
Q 3123 4122 3213 4090 
Q 3309 4058 3309 4019 
Q 3309 3981 3206 3949 
Q 3149 3936 3065 3891 
Q 2982 3846 2784 3674 
Q 2630 3546 2422 3405 
Q 2214 3264 2016 3136 
Q 2387 3130 2758 3130 
Q 3130 3130 3418 3142 
z
M 5395 -269 
Q 5312 -141 5161 19 
Q 5011 179 4835 332 
Q 4659 486 4483 611 
Q 4307 736 4173 806 
L 4576 1222 
Q 4928 954 5286 701 
Q 5645 448 5958 243 
L 5395 -269 
z
M 2240 826 
Q 2317 794 2304 752 
Q 2291 710 2170 691 
Q 2157 691 2073 630 
Q 1990 570 1872 477 
Q 1754 384 1616 269 
Q 1478 154 1344 38 
Q 1210 -77 1094 -176 
Q 979 -275 915 -339 
Q 832 -218 717 -131 
Q 602 -45 435 26 
Q 666 147 883 313 
Q 1101 480 1273 653 
Q 1446 826 1564 982 
Q 1683 1139 1722 1242 
Q 1805 1126 1961 1001 
Q 2118 877 2240 826 
z
" transform="scale(0.015625)"/>
      <path id="STHeitiTC-Medium-7edf" d="M 512 3213 
Q 646 3462 764 3721 
Q 883 3981 982 4227 
Q 1082 4474 1162 4691 
Q 1242 4909 1293 5082 
Q 1517 4973 1635 4931 
Q 1754 4890 1856 4883 
Q 1965 4877 1968 4797 
Q 1971 4717 1830 4691 
Q 1818 4691 1776 4633 
Q 1734 4576 1635 4419 
Q 1536 4262 1363 3974 
Q 1190 3686 915 3219 
Q 1267 3226 1715 3258 
Q 1818 3443 1898 3619 
Q 1978 3795 2035 3955 
Q 2202 3827 2326 3766 
Q 2451 3706 2566 3674 
Q 2662 3648 2668 3603 
Q 2675 3558 2566 3526 
Q 2528 3514 2445 3424 
Q 2362 3334 2202 3123 
Q 2042 2912 1795 2560 
Q 1549 2208 1197 1677 
Q 1363 1690 1539 1706 
Q 1715 1722 1878 1738 
Q 2042 1754 2189 1770 
Q 2336 1786 2451 1805 
Q 2419 1696 2393 1552 
Q 2368 1408 2368 1293 
Q 1978 1293 1686 1280 
Q 1395 1267 1184 1248 
Q 973 1229 838 1203 
Q 704 1178 627 1152 
Q 595 1299 553 1411 
Q 512 1523 442 1632 
Q 493 1632 547 1635 
Q 602 1638 672 1638 
Q 819 1824 1024 2137 
Q 1229 2451 1491 2874 
Q 1267 2861 1110 2848 
Q 954 2835 838 2822 
Q 723 2810 640 2797 
Q 557 2784 493 2765 
Q 467 2886 428 3008 
Q 390 3130 346 3219 
Q 390 3219 428 3219 
Q 467 3219 512 3213 
z
M 3718 3808 
Q 3008 3808 2579 3750 
L 2579 4307 
Q 2848 4275 3213 4259 
Q 3578 4243 4058 4243 
Q 4000 4467 3929 4688 
Q 3859 4909 3795 5043 
L 4390 5165 
Q 4454 4710 4576 4243 
Q 5030 4243 5379 4259 
Q 5728 4275 5984 4307 
L 5984 3750 
Q 5843 3770 5686 3779 
Q 5530 3789 5293 3798 
Q 5056 3808 4707 3811 
Q 4358 3814 3834 3814 
Q 3942 3763 4064 3718 
Q 4186 3674 4275 3648 
Q 4442 3603 4438 3555 
Q 4435 3507 4294 3475 
Q 4262 3469 4208 3427 
Q 4154 3386 4038 3280 
Q 3923 3174 3740 2985 
Q 3558 2797 3277 2496 
Q 3706 2509 4138 2537 
Q 4570 2566 4960 2611 
Q 4858 2752 4755 2886 
Q 4653 3021 4544 3149 
L 4941 3354 
Q 5184 3078 5430 2780 
Q 5677 2483 5869 2227 
L 5408 1914 
Q 5363 1997 5312 2077 
Q 5261 2157 5210 2246 
L 4755 2214 
L 4755 243 
Q 4755 141 4764 83 
Q 4774 26 4812 -3 
Q 4851 -32 4931 -41 
Q 5011 -51 5146 -51 
Q 5222 -51 5276 -28 
Q 5331 -6 5379 61 
Q 5427 128 5468 249 
Q 5510 371 5562 570 
Q 5670 448 5785 377 
Q 5901 307 6048 269 
Q 5958 13 5881 -144 
Q 5805 -301 5705 -387 
Q 5606 -474 5472 -502 
Q 5338 -531 5126 -531 
Q 4819 -531 4643 -505 
Q 4467 -480 4380 -419 
Q 4294 -358 4275 -256 
Q 4256 -154 4256 -6 
L 4256 2176 
L 3795 2138 
Q 3770 1536 3706 1110 
Q 3642 685 3514 365 
Q 3386 45 3171 -201 
Q 2957 -448 2630 -698 
Q 2432 -448 2099 -301 
Q 2458 -154 2688 48 
Q 2918 250 3052 531 
Q 3187 813 3238 1197 
Q 3290 1581 3290 2093 
Q 3187 2080 3078 2067 
Q 2970 2054 2877 2041 
Q 2784 2029 2713 2013 
Q 2643 1997 2611 1990 
Q 2579 2093 2537 2230 
Q 2496 2368 2445 2477 
L 2669 2477 
Q 2944 2758 3129 2966 
Q 3315 3174 3433 3328 
Q 3552 3482 3619 3597 
Q 3686 3712 3718 3808 
z
M 2547 704 
Q 2515 602 2508 499 
Q 2502 397 2528 256 
Q 2074 179 1741 115 
Q 1408 51 1165 0 
Q 922 -51 755 -99 
Q 589 -147 474 -186 
Q 448 -32 409 115 
Q 371 262 307 442 
Q 448 435 633 444 
Q 819 454 1084 483 
Q 1350 512 1708 566 
Q 2067 621 2547 704 
z
" transform="scale(0.015625)"/>
      <path id="STHeitiTC-Medium-516c" d="M 6182 2470 
Q 6042 2381 5930 2230 
Q 5818 2080 5715 1856 
Q 5018 2362 4602 2986 
Q 4186 3610 3994 4403 
L 3450 4403 
Q 3251 4403 3014 4396 
Q 2778 4390 2554 4365 
L 2554 4864 
Q 2784 4845 3046 4832 
Q 3309 4819 3520 4819 
Q 3808 4819 4022 4828 
Q 4237 4838 4416 4864 
Q 4563 4026 4985 3421 
Q 5408 2816 6182 2470 
z
M 2355 4147 
Q 2278 4115 2198 3996 
Q 2118 3878 2048 3731 
Q 1805 3200 1497 2701 
Q 1190 2202 717 1734 
Q 627 1862 492 1961 
Q 358 2061 211 2131 
Q 774 2534 1174 3113 
Q 1574 3693 1779 4480 
Q 1926 4403 2086 4348 
Q 2246 4294 2349 4282 
Q 2426 4269 2432 4224 
Q 2438 4179 2355 4147 
z
M 4333 525 
Q 4058 1011 3770 1414 
L 4243 1670 
Q 4570 1248 4896 768 
Q 5222 288 5478 -147 
L 4851 -518 
Q 4800 -384 4729 -230 
Q 4659 -77 4576 90 
Q 3891 45 3289 -9 
Q 2688 -64 2221 -118 
Q 1754 -173 1450 -221 
Q 1146 -269 1050 -301 
Q 1018 -154 966 -10 
Q 915 134 819 320 
L 1325 352 
Q 1587 698 1820 1082 
Q 2054 1466 2246 1830 
Q 2438 2195 2572 2518 
Q 2707 2842 2771 3066 
Q 2982 2950 3139 2880 
Q 3296 2810 3424 2771 
Q 3539 2739 3529 2697 
Q 3520 2656 3418 2605 
Q 3379 2586 3302 2499 
Q 3226 2413 3149 2272 
Q 3046 2086 2908 1849 
Q 2771 1613 2617 1363 
Q 2464 1114 2304 861 
Q 2144 608 1990 390 
L 4333 525 
z
" transform="scale(0.015625)"/>
      <path id="STHeitiTC-Medium-5f00" d="M 4525 2413 
Q 4723 2413 4931 2419 
Q 5139 2426 5334 2432 
Q 5530 2438 5699 2448 
Q 5869 2458 5997 2470 
L 5997 1875 
Q 5869 1882 5699 1888 
Q 5530 1894 5338 1900 
Q 5146 1907 4934 1913 
Q 4723 1920 4525 1920 
L 4525 422 
Q 4525 186 4541 -112 
Q 4557 -410 4589 -698 
L 3885 -698 
Q 3917 -410 3933 -112 
Q 3949 186 3949 422 
L 3949 1926 
L 2624 1926 
Q 2598 1530 2467 1142 
Q 2336 755 2128 409 
Q 1920 64 1641 -227 
Q 1363 -518 1043 -723 
Q 941 -589 752 -464 
Q 563 -339 397 -288 
Q 736 -147 1030 77 
Q 1325 301 1545 585 
Q 1766 870 1900 1209 
Q 2035 1549 2067 1926 
Q 1568 1920 1126 1901 
Q 685 1882 397 1856 
L 397 2451 
Q 717 2426 1123 2416 
Q 1530 2406 2074 2406 
L 2074 4192 
Q 1594 4186 1290 4173 
Q 986 4160 787 4128 
L 787 4730 
Q 1030 4698 1644 4682 
Q 2259 4666 3213 4666 
Q 3795 4666 4211 4669 
Q 4627 4672 4915 4678 
Q 5203 4685 5376 4697 
Q 5549 4710 5645 4730 
L 5645 4128 
Q 5574 4141 5452 4150 
Q 5331 4160 5180 4166 
Q 5030 4173 4860 4179 
Q 4691 4186 4525 4186 
L 4525 2413 
z
M 3949 2406 
L 3949 4192 
L 2630 4192 
L 2630 2406 
L 3949 2406 
z
" transform="scale(0.015625)"/>
      <path id="STHeitiTC-Medium-7ed9" d="M 2522 698 
Q 2483 589 2473 438 
Q 2464 288 2483 179 
Q 1958 51 1622 -32 
Q 1286 -115 1068 -172 
Q 851 -230 726 -278 
Q 602 -326 499 -371 
Q 467 -230 406 -41 
Q 346 147 275 294 
Q 416 288 595 301 
Q 774 314 1033 358 
Q 1293 403 1654 483 
Q 2016 563 2522 698 
z
M 5018 2522 
Q 4922 2534 4838 2540 
Q 4755 2547 4652 2553 
Q 4550 2560 4425 2560 
Q 4301 2560 4128 2560 
Q 3942 2560 3811 2557 
Q 3680 2554 3571 2550 
Q 3462 2547 3366 2537 
Q 3270 2528 3168 2522 
L 3168 3034 
Q 3270 3021 3366 3014 
Q 3462 3008 3571 3005 
Q 3680 3002 3811 3002 
Q 3942 3002 4128 3002 
Q 4307 3002 4428 3002 
Q 4550 3002 4646 3005 
Q 4742 3008 4825 3014 
Q 4909 3021 5018 3034 
L 5018 2522 
z
M 1690 3251 
Q 1805 3475 1910 3721 
Q 2016 3968 2074 4154 
Q 2221 4045 2358 3968 
Q 2496 3891 2586 3853 
Q 2662 3821 2659 3773 
Q 2656 3725 2579 3712 
Q 2560 3706 2531 3686 
Q 2502 3667 2448 3603 
Q 2394 3539 2301 3408 
Q 2208 3277 2061 3056 
Q 1914 2835 1702 2502 
Q 1491 2170 1197 1702 
L 2362 1773 
Q 2330 1664 2307 1539 
Q 2285 1414 2278 1312 
L 1216 1242 
Q 992 1222 797 1187 
Q 602 1152 518 1126 
Q 506 1274 480 1414 
Q 454 1555 403 1670 
Q 506 1696 592 1734 
Q 678 1773 787 1888 
Q 896 2003 1053 2227 
Q 1210 2451 1453 2835 
L 858 2778 
Q 666 2758 560 2739 
Q 454 2720 352 2682 
Q 339 2842 320 2970 
Q 301 3098 269 3219 
Q 346 3251 442 3331 
Q 538 3411 666 3619 
Q 794 3827 960 4204 
Q 1126 4582 1344 5210 
Q 1402 5178 1485 5136 
Q 1568 5094 1651 5052 
Q 1734 5011 1811 4979 
Q 1888 4947 1933 4928 
Q 2016 4896 2016 4864 
Q 2016 4832 1946 4806 
Q 1894 4787 1843 4748 
Q 1792 4710 1689 4556 
Q 1587 4403 1408 4096 
Q 1229 3789 922 3238 
L 1690 3251 
z
M 4064 4525 
Q 3949 4262 3779 3971 
Q 3610 3680 3408 3392 
Q 3206 3104 2988 2825 
Q 2771 2547 2560 2317 
Q 2464 2419 2329 2515 
Q 2195 2611 2080 2650 
Q 2374 2893 2646 3190 
Q 2918 3488 3139 3814 
Q 3360 4141 3517 4493 
Q 3674 4845 3738 5203 
Q 3802 5178 3882 5155 
Q 3962 5133 4045 5117 
Q 4128 5101 4201 5088 
Q 4275 5075 4326 5075 
Q 4397 5069 4406 5011 
Q 4416 4954 4358 4941 
Q 4326 4934 4275 4909 
Q 4416 4550 4627 4252 
Q 4838 3955 5088 3728 
Q 5338 3501 5606 3350 
Q 5875 3200 6125 3142 
Q 6022 3027 5920 2857 
Q 5818 2688 5754 2560 
Q 5478 2707 5222 2918 
Q 4966 3130 4748 3386 
Q 4531 3642 4355 3930 
Q 4179 4218 4064 4525 
z
M 4864 294 
L 4864 1414 
L 3347 1414 
L 3347 294 
L 4864 294 
z
M 3347 -147 
L 3347 -698 
L 2810 -698 
Q 2848 -250 2848 205 
L 2848 1229 
Q 2848 1402 2841 1587 
Q 2835 1773 2822 1901 
Q 2976 1882 3312 1872 
Q 3648 1862 4115 1862 
Q 4339 1862 4540 1865 
Q 4742 1869 4908 1872 
Q 5075 1875 5200 1881 
Q 5325 1888 5389 1901 
Q 5376 1773 5369 1587 
Q 5363 1402 5363 1229 
L 5363 314 
Q 5363 186 5363 77 
Q 5363 -32 5369 -134 
Q 5376 -237 5382 -345 
Q 5389 -454 5402 -589 
L 4864 -589 
L 4864 -147 
L 3347 -147 
z
" transform="scale(0.015625)"/>
      <path id="STHeitiTC-Medium-51fa" d="M 4973 320 
L 4973 1203 
Q 4973 1402 4963 1546 
Q 4954 1690 4934 1824 
Q 5120 1792 5251 1789 
Q 5382 1786 5536 1798 
Q 5606 1805 5616 1773 
Q 5626 1741 5574 1690 
Q 5530 1645 5514 1517 
Q 5498 1389 5498 1197 
L 5498 115 
Q 5498 -70 5504 -236 
Q 5510 -403 5523 -595 
L 4973 -595 
L 4973 -141 
L 1318 -141 
L 1318 -646 
L 768 -646 
Q 794 -480 803 -304 
Q 813 -128 813 141 
L 813 1146 
Q 813 1453 803 1619 
Q 794 1786 768 1888 
Q 934 1856 1094 1849 
Q 1254 1843 1370 1856 
Q 1440 1869 1453 1830 
Q 1466 1792 1402 1741 
Q 1344 1690 1331 1635 
Q 1318 1581 1318 1510 
L 1318 320 
L 2893 320 
L 2893 2387 
Q 2208 2387 1731 2374 
Q 1254 2362 1050 2349 
Q 1075 2496 1088 2637 
Q 1101 2778 1101 2918 
L 1101 3942 
Q 1101 4096 1091 4240 
Q 1082 4384 1050 4512 
Q 1254 4480 1411 4470 
Q 1568 4461 1709 4474 
Q 1798 4480 1804 4435 
Q 1811 4390 1734 4333 
Q 1683 4294 1664 4195 
Q 1645 4096 1645 3949 
L 1645 2848 
L 2893 2848 
L 2893 4262 
Q 2893 4589 2883 4774 
Q 2874 4960 2848 5114 
Q 3034 5082 3190 5072 
Q 3347 5062 3533 5075 
Q 3622 5082 3632 5040 
Q 3642 4998 3578 4947 
Q 3514 4896 3482 4710 
Q 3450 4525 3450 4269 
L 3450 2848 
L 4813 2848 
L 4813 3942 
Q 4813 4141 4800 4285 
Q 4787 4429 4755 4563 
Q 4941 4531 5104 4524 
Q 5267 4518 5414 4531 
Q 5478 4538 5488 4502 
Q 5498 4467 5453 4416 
Q 5402 4365 5379 4253 
Q 5357 4141 5357 3936 
L 5357 2989 
Q 5357 2803 5363 2656 
Q 5370 2509 5382 2349 
Q 5267 2355 5104 2364 
Q 4941 2374 4707 2377 
Q 4474 2381 4163 2384 
Q 3853 2387 3450 2387 
L 3450 320 
L 4973 320 
z
" transform="scale(0.015625)"/>
      <path id="STHeitiTC-Medium-7684" d="M 4032 1120 
Q 3994 1267 3933 1433 
Q 3872 1600 3798 1760 
Q 3725 1920 3648 2064 
Q 3571 2208 3494 2317 
L 4013 2541 
Q 4064 2413 4131 2265 
Q 4198 2118 4275 1971 
Q 4352 1824 4435 1680 
Q 4518 1536 4595 1414 
L 4032 1120 
z
M 5107 3981 
Q 5293 3981 5501 3997 
Q 5709 4013 5830 4032 
Q 5805 3891 5795 3728 
Q 5786 3565 5779 3398 
L 5645 179 
Q 5638 6 5574 -131 
Q 5510 -269 5369 -374 
Q 5229 -480 4995 -547 
Q 4762 -614 4410 -640 
Q 4390 -467 4300 -265 
Q 4211 -64 4058 70 
Q 4384 32 4585 38 
Q 4787 45 4902 93 
Q 5018 141 5062 233 
Q 5107 326 5114 467 
L 5235 3488 
L 3878 3488 
Q 3770 3174 3654 2937 
Q 3539 2701 3398 2445 
Q 3155 2694 2925 2765 
Q 3200 3130 3417 3702 
Q 3635 4275 3770 5056 
Q 3904 5005 4096 4973 
Q 4288 4941 4435 4947 
Q 4525 4954 4531 4906 
Q 4538 4858 4442 4787 
Q 4371 4736 4262 4512 
Q 4154 4288 4045 3981 
L 5107 3981 
z
M 2304 3469 
L 1152 3469 
L 1152 2342 
L 2304 2342 
L 2304 3469 
z
M 2304 1907 
L 1152 1907 
L 1152 634 
L 2304 634 
L 2304 1907 
z
M 1152 -422 
L 563 -422 
Q 582 -275 592 -156 
Q 602 -38 605 67 
Q 608 173 611 278 
Q 614 384 614 518 
L 614 3379 
Q 614 3526 604 3683 
Q 595 3840 570 3962 
Q 698 3949 870 3939 
Q 1043 3930 1235 3917 
Q 1363 4576 1363 5062 
Q 1517 5024 1709 4998 
Q 1901 4973 2054 4966 
Q 2131 4960 2137 4918 
Q 2144 4877 2067 4806 
Q 2029 4774 1997 4723 
Q 1965 4672 1929 4573 
Q 1894 4474 1849 4317 
Q 1805 4160 1741 3910 
Q 2099 3910 2374 3920 
Q 2650 3930 2893 3962 
Q 2867 3834 2857 3677 
Q 2848 3520 2848 3379 
L 2848 563 
Q 2848 429 2851 320 
Q 2854 211 2860 105 
Q 2867 0 2876 -115 
Q 2886 -230 2899 -371 
L 2304 -371 
L 2304 198 
L 1152 198 
L 1152 -422 
z
" transform="scale(0.015625)"/>
      <path id="STHeitiTC-Medium-4fe1" d="M 5107 1075 
L 3027 1075 
L 3027 314 
L 5107 314 
L 5107 1075 
z
M 3027 -666 
L 2470 -666 
Q 2496 -525 2505 -397 
Q 2515 -269 2515 -102 
L 2515 1018 
Q 2515 1203 2505 1334 
Q 2496 1466 2470 1581 
Q 2541 1568 2656 1558 
Q 2771 1549 2956 1539 
Q 3142 1530 3414 1526 
Q 3686 1523 4064 1523 
Q 4474 1523 4749 1526 
Q 5024 1530 5203 1539 
Q 5382 1549 5488 1558 
Q 5594 1568 5664 1581 
Q 5645 1459 5632 1321 
Q 5619 1184 5619 1018 
L 5619 32 
Q 5619 -275 5664 -538 
L 5107 -538 
L 5107 -134 
L 3027 -134 
L 3027 -666 
z
M 1709 -678 
L 1107 -678 
Q 1146 -397 1165 -109 
Q 1184 179 1184 538 
L 1184 2784 
Q 1088 2618 973 2445 
Q 858 2272 710 2061 
Q 653 2208 557 2320 
Q 461 2432 326 2528 
Q 461 2675 573 2819 
Q 685 2963 781 3123 
Q 877 3283 963 3462 
Q 1050 3642 1133 3853 
Q 1254 4160 1353 4499 
Q 1453 4838 1504 5126 
Q 1670 5037 1801 4989 
Q 1933 4941 2080 4915 
Q 2195 4896 2204 4857 
Q 2214 4819 2112 4749 
Q 2093 4736 2077 4713 
Q 2061 4691 2038 4652 
Q 2016 4614 1987 4547 
Q 1958 4480 1914 4378 
Q 1856 4237 1808 4112 
Q 1760 3987 1709 3878 
L 1709 -678 
z
M 5715 1997 
Q 5408 2022 5021 2035 
Q 4634 2048 4064 2048 
Q 3501 2048 3110 2035 
Q 2720 2022 2419 1997 
L 2419 2541 
Q 2726 2515 3116 2502 
Q 3507 2490 4064 2490 
Q 4634 2490 5021 2502 
Q 5408 2515 5715 2541 
L 5715 1997 
z
M 5683 2880 
Q 5389 2906 5005 2918 
Q 4621 2931 4064 2931 
Q 3514 2931 3130 2921 
Q 2746 2912 2451 2880 
L 2451 3424 
Q 2752 3392 3133 3382 
Q 3514 3373 4064 3373 
Q 4621 3373 5001 3385 
Q 5382 3398 5683 3424 
L 5683 2880 
z
M 6067 3789 
Q 5702 3808 5244 3824 
Q 4787 3840 4122 3840 
Q 3462 3840 3001 3827 
Q 2541 3814 2182 3789 
L 2182 4352 
Q 2547 4320 3004 4304 
Q 3462 4288 4122 4288 
Q 4781 4288 5245 4304 
Q 5709 4320 6067 4352 
L 6067 3789 
z
M 3846 4384 
Q 3814 4544 3756 4717 
Q 3699 4890 3629 5037 
L 4314 5203 
Q 4378 5056 4442 4899 
Q 4506 4742 4563 4589 
L 3846 4384 
z
" transform="scale(0.015625)"/>
      <path id="STHeitiTC-Medium-53f7" d="M 4602 4358 
L 1792 4358 
L 1792 3539 
L 4602 3539 
L 4602 4358 
z
M 5146 3034 
Q 4960 3040 4768 3049 
Q 4576 3059 4345 3062 
Q 4115 3066 3836 3069 
Q 3558 3072 3206 3072 
Q 2848 3072 2566 3069 
Q 2285 3066 2051 3062 
Q 1818 3059 1619 3049 
Q 1421 3040 1242 3034 
Q 1254 3181 1264 3437 
Q 1274 3693 1274 3949 
Q 1274 4205 1264 4457 
Q 1254 4710 1242 4858 
Q 1421 4851 1619 4844 
Q 1818 4838 2051 4835 
Q 2285 4832 2566 4829 
Q 2848 4826 3206 4826 
Q 3558 4826 3836 4829 
Q 4115 4832 4345 4835 
Q 4576 4838 4768 4844 
Q 4960 4851 5146 4858 
Q 5133 4710 5123 4457 
Q 5114 4205 5114 3949 
Q 5114 3693 5123 3437 
Q 5133 3181 5146 3034 
z
M 1779 2112 
Q 1331 2106 960 2093 
Q 589 2080 301 2061 
L 301 2662 
Q 800 2630 1533 2614 
Q 2266 2598 3194 2598 
Q 4122 2598 4858 2614 
Q 5594 2630 6093 2662 
L 6093 2061 
Q 5786 2080 5437 2093 
Q 5088 2106 4646 2112 
Q 4205 2118 3641 2118 
Q 3078 2118 2342 2118 
L 2227 1395 
L 3795 1395 
Q 4000 1395 4214 1398 
Q 4429 1402 4624 1408 
Q 4819 1414 4979 1420 
Q 5139 1427 5242 1440 
Q 5210 1178 5181 989 
Q 5152 800 5126 640 
Q 5101 480 5072 342 
Q 5043 205 5005 51 
Q 4954 -134 4883 -259 
Q 4813 -384 4649 -473 
Q 4486 -563 4192 -630 
Q 3898 -698 3405 -768 
Q 3366 -595 3286 -406 
Q 3206 -218 3117 -83 
Q 3539 -109 3792 -102 
Q 4045 -96 4185 -57 
Q 4326 -19 4380 57 
Q 4435 134 4461 250 
Q 4518 493 4540 646 
Q 4563 800 4576 947 
L 2758 947 
Q 2586 947 2410 940 
Q 2234 934 2074 924 
Q 1914 915 1782 902 
Q 1651 890 1568 877 
Q 1587 966 1612 1120 
Q 1638 1274 1667 1450 
Q 1696 1626 1728 1802 
Q 1760 1978 1779 2112 
z
" transform="scale(0.015625)"/>
     </defs>
     <use xlink:href="#STHeitiTC-Medium-56fe"/>
     <use xlink:href="#STHeitiTC-Medium-20" x="99.999985"/>
     <use xlink:href="#STHeitiTC-Medium-35" x="124.999969"/>
     <use xlink:href="#STHeitiTC-Medium-ff1a" x="180.399963"/>
     <use xlink:href="#STHeitiTC-Medium-4ee3" x="280.399948"/>
     <use xlink:href="#STHeitiTC-Medium-8868" x="380.399933"/>
     <use xlink:href="#STHeitiTC-Medium-6027" x="480.399918"/>
     <use xlink:href="#STHeitiTC-Medium-7cfb" x="580.399902"/>
     <use xlink:href="#STHeitiTC-Medium-7edf" x="680.399887"/>
     <use xlink:href="#STHeitiTC-Medium-516c" x="780.399872"/>
     <use xlink:href="#STHeitiTC-Medium-5f00" x="880.399857"/>
     <use xlink:href="#STHeitiTC-Medium-7ed9" x="980.399841"/>
     <use xlink:href="#STHeitiTC-Medium-51fa" x="1080.399826"/>
     <use xlink:href="#STHeitiTC-Medium-7684" x="1180.399811"/>
     <use xlink:href="#STHeitiTC-Medium-4e0a" x="1280.399796"/>
     <use xlink:href="#STHeitiTC-Medium-4e0b" x="1380.39978"/>
     <use xlink:href="#STHeitiTC-Medium-6587" x="1480.399765"/>
     <use xlink:href="#STHeitiTC-Medium-7a97" x="1580.39975"/>
     <use xlink:href="#STHeitiTC-Medium-53e3" x="1680.399734"/>
     <use xlink:href="#STHeitiTC-Medium-4fe1" x="1780.399719"/>
     <use xlink:href="#STHeitiTC-Medium-53f7" x="1880.399704"/>
    </g>
   </g>
  </g>
 </g>
 <defs>
  <clipPath id="p0a95205a52">
   <rect x="103.060938" y="32.16" width="568.602" height="332.64"/>
  </clipPath>
 </defs>
</svg>
