<?xml version="1.0" standalone="no"?>
<!DOCTYPE svg PUBLIC "-//W3C//DTD SVG 20010904//EN"
 "http://www.w3.org/TR/2001/REC-SVG-20010904/DTD/svg10.dtd">
<svg version="1.0" xmlns="http://www.w3.org/2000/svg"
 width="200.000000pt" height="200.000000pt" viewBox="0 0 200.000000 200.000000"
 preserveAspectRatio="xMidYMid meet">
<metadata>
Created by potrace 1.11, written by Peter Selinger 2001-2013
</metadata>
<g transform="translate(0.000000,200.000000) scale(0.100000,-0.100000)"
fill="#000000" stroke="none">
<path d="M930 1994 c0 -6 -18 -23 -39 -40 -22 -16 -35 -32 -29 -35 5 -4 -1
-19 -16 -35 -41 -47 -43 -49 -77 -110 -23 -40 -29 -59 -21 -62 10 -3 10 -7 2
-17 -8 -9 -8 -15 0 -20 13 -8 13 -35 0 -35 -5 0 -10 9 -10 20 0 29 -17 25 -33
-7 -28 -56 -29 -148 -1 -143 12 2 22 -35 23 -86 1 -22 4 -43 7 -47 3 -3 7 -29
9 -59 4 -62 44 -199 67 -225 8 -10 33 -62 54 -115 22 -54 43 -98 47 -98 5 0 5
9 2 20 -9 28 19 26 34 -2 9 -19 10 -20 6 -3 -14 59 -34 195 -33 225 l1 35 7
-35 c8 -39 9 -38 16 5 3 16 6 31 8 32 1 2 18 -26 38 -61 l36 -64 -27 0 c-64 1
-65 0 -27 -37 20 -19 47 -35 59 -35 24 0 64 -23 85 -49 10 -13 11 -10 6 19 -4
19 -12 39 -18 43 -8 6 -7 10 2 14 10 4 9 8 -4 18 -10 7 -19 22 -21 34 -2 16
12 6 53 -39 32 -33 60 -58 63 -54 3 3 -2 10 -11 15 -25 14 -59 77 -46 85 6 4
8 3 4 -4 -14 -23 14 -21 29 2 18 27 60 30 76 5 5 -8 9 -10 9 -6 0 4 -8 20 -17
35 -17 26 -17 27 2 12 13 -11 16 -11 11 -2 -5 8 -14 36 -21 64 l-14 50 22 -18
c12 -10 27 -25 34 -33 11 -12 15 -12 30 0 15 12 16 12 10 -3 -4 -12 -2 -15 9
-11 7 3 14 9 14 15 0 5 5 6 10 3 12 -8 13 -3 0 29 -7 19 -5 33 8 56 9 16 23
30 30 30 6 0 12 5 12 10 0 6 25 -10 55 -35 31 -25 60 -45 65 -45 12 0 40 -53
40 -75 0 -10 -10 -15 -32 -16 -51 -1 -161 -33 -166 -48 -3 -10 3 -11 28 -6 23
5 34 3 43 -9 13 -17 38 -20 97 -13 19 2 50 -2 68 -9 23 -9 32 -10 32 -2 0 7 6
3 14 -7 13 -19 15 -18 29 15 9 20 16 28 16 18 2 -41 19 -13 29 48 16 97 50
138 82 99 7 -8 23 -15 36 -15 22 0 24 -4 24 -45 0 -25 5 -45 10 -45 6 0 10 -4
10 -10 0 -18 -29 2 -33 23 -3 14 -5 9 -6 -13 -2 -51 -21 -112 -40 -128 -9 -8
-5 -8 11 2 l27 16 -11 -33 c-6 -17 -19 -41 -29 -53 -11 -11 -18 -33 -18 -50 2
-26 2 -27 6 -5 3 14 16 41 29 60 13 20 24 41 24 48 0 35 23 16 55 -44 20 -37
33 -58 30 -45 -4 12 -3 31 0 42 6 19 8 19 28 5 47 -33 47 -34 47 280 0 264 -2
295 -16 295 -11 0 -14 5 -10 16 3 9 6 18 6 20 0 3 5 2 10 -1 7 -4 10 70 10
214 0 232 1 225 -45 222 -18 -2 -18 0 5 18 14 11 21 23 17 28 -5 4 -11 3 -15
-3 -4 -6 -32 -27 -62 -46 -30 -19 -64 -45 -74 -57 -11 -11 -23 -21 -27 -21 -5
0 -30 29 -56 65 l-48 65 -357 0 c-219 0 -358 -4 -358 -9 0 -6 -12 -16 -27 -24
-16 -7 -27 -18 -26 -25 2 -7 -4 -9 -14 -5 -10 4 -14 2 -10 -4 4 -6 1 -16 -7
-22 -11 -9 -15 -9 -19 1 -3 7 12 27 32 45 20 17 33 35 29 39 -5 4 -8 3 -8 -2z
m945 -102 c-3 -3 -11 0 -18 7 -9 10 -8 11 6 5 10 -3 15 -9 12 -12z m-50 -172
c3 -5 2 -10 -4 -10 -5 0 -13 5 -16 10 -3 6 -2 10 4 10 5 0 13 -4 16 -10z m-25
-105 c16 -19 0 -19 -26 0 -16 12 -16 14 -3 15 9 0 22 -7 29 -15z m170 -106 c0
-5 -4 -9 -8 -9 -5 0 -9 7 -9 15 0 8 4 12 9 9 4 -3 8 -9 8 -15z m-371 -52 c1
-5 -3 -5 -9 -2 -5 3 -10 16 -9 28 0 21 1 21 9 2 5 -11 9 -24 9 -28z m-829 -53
c0 -13 -4 -24 -10 -24 -5 0 -10 14 -10 31 0 17 4 28 10 24 6 -3 10 -17 10 -31z
m537 -16 c-3 -7 -5 -2 -5 12 0 14 2 19 5 13 2 -7 2 -19 0 -25z m-222 -19 c6
-19 0 -38 -9 -28 -10 12 -16 49 -7 49 5 0 13 -9 16 -21z m-115 -21 c0 -19 -2
-20 -10 -8 -13 19 -13 30 0 30 6 0 10 -10 10 -22z m355 12 c3 -5 1 -10 -4 -10
-6 0 -11 5 -11 10 0 6 2 10 4 10 3 0 8 -4 11 -10z m-408 -82 c-3 -7 -5 -2 -5
12 0 14 2 19 5 13 2 -7 2 -19 0 -25z m23 -64 c0 -7 3 -19 6 -28 4 -11 1 -16
-10 -16 -10 0 -16 9 -16 23 0 12 -3 33 -6 47 -5 24 -5 24 10 6 9 -11 16 -25
16 -32z m-10 -244 c0 -5 -2 -10 -4 -10 -3 0 -8 5 -11 10 -3 6 -1 10 4 10 6 0
11 -4 11 -10z"/>
<path d="M795 1879 c-4 -6 -5 -12 -2 -15 2 -3 7 2 10 11 7 17 1 20 -8 4z"/>
<path d="M696 1475 c-3 -8 -1 -15 4 -15 6 0 10 7 10 15 0 8 -2 15 -4 15 -2 0
-6 -7 -10 -15z"/>
<path d="M699 1348 c-3 -13 -2 -61 2 -108 l6 -85 1 73 c1 39 6 72 10 72 12 0
8 63 -4 67 -6 2 -13 -6 -15 -19z"/>
<path d="M1418 1233 c7 -3 16 -2 19 1 4 3 -2 6 -13 5 -11 0 -14 -3 -6 -6z"/>
<path d="M1365 1220 c-3 -5 -2 -10 4 -10 5 0 13 5 16 10 3 6 2 10 -4 10 -5 0
-13 -4 -16 -10z"/>
<path d="M1830 1151 c0 -12 5 -21 10 -21 6 0 10 6 10 14 0 8 -4 18 -10 21 -5
3 -10 -3 -10 -14z"/>
<path d="M690 1095 c0 -5 5 -17 10 -25 5 -8 10 -10 10 -5 0 6 -5 17 -10 25 -5
8 -10 11 -10 5z"/>
<path d="M1458 1003 c7 -3 16 -2 19 1 4 3 -2 6 -13 5 -11 0 -14 -3 -6 -6z"/>
<path d="M760 943 c0 -6 8 -17 18 -24 16 -13 16 -13 2 6 -8 11 -16 22 -17 24
-2 2 -3 0 -3 -6z"/>
<path d="M1013 943 c9 -2 23 -2 30 0 6 3 -1 5 -18 5 -16 0 -22 -2 -12 -5z"/>
<path d="M830 895 c0 -9 8 -18 18 -22 9 -3 32 -21 50 -40 25 -25 32 -29 32
-16 1 13 11 7 37 -22 19 -22 31 -31 24 -20 -17 31 -84 102 -77 83 9 -29 -11
-20 -41 17 -30 38 -43 44 -43 20z"/>
<path d="M1752 880 c0 -19 2 -27 5 -17 2 9 2 25 0 35 -3 9 -5 1 -5 -18z"/>
<path d="M1763 820 c1 -14 -2 -31 -6 -37 -5 -8 -3 -13 7 -13 9 0 16 -5 16 -11
0 -5 5 -7 11 -4 7 5 5 14 -4 29 -8 12 -17 31 -20 41 -4 15 -5 14 -4 -5z"/>
<path d="M856 817 c3 -10 9 -15 12 -12 3 3 0 11 -7 18 -10 9 -11 8 -5 -6z"/>
<path d="M1712 810 c0 -14 2 -19 5 -12 2 6 2 18 0 25 -3 6 -5 1 -5 -13z"/>
<path d="M1850 781 c11 -22 30 -37 30 -24 -1 11 -26 43 -34 43 -4 0 -2 -9 4
-19z"/>
<path d="M1030 751 c0 -6 4 -13 10 -16 6 -3 7 1 4 9 -7 18 -14 21 -14 7z"/>
<path d="M1840 711 c-14 -15 -36 -40 -49 -55 -14 -14 -21 -26 -17 -26 10 0 96
90 96 101 0 12 -2 11 -30 -20z"/>
<path d="M1747 703 c-4 -3 -7 -11 -7 -17 0 -6 5 -5 12 2 6 6 9 14 7 17 -3 3
-9 2 -12 -2z"/>
<path d="M1900 645 c0 -8 4 -15 10 -15 5 0 7 7 4 15 -4 8 -8 15 -10 15 -2 0
-4 -7 -4 -15z"/>
<path d="M1127 636 c-11 -6 -35 -27 -55 -46 -21 -19 -59 -55 -85 -78 -27 -24
-47 -45 -45 -46 2 -1 15 -10 31 -19 34 -22 34 -32 -1 -88 -28 -44 -45 -79 -38
-79 2 0 19 24 37 52 l34 53 3 -31 c2 -20 -9 -56 -32 -102 -20 -39 -36 -75 -36
-81 0 -6 -3 -11 -7 -11 -9 0 -8 -73 1 -124 l7 -36 164 0 165 0 -36 33 c-26 24
-38 45 -44 77 -8 43 -7 46 26 76 19 18 34 36 33 40 -2 28 -20 49 -59 68 -31
15 -48 31 -57 54 -12 31 -12 34 5 38 23 7 23 80 -1 114 -19 28 -21 40 -7 40 6
0 10 -4 10 -9 0 -6 12 -23 27 -38 l27 -28 -22 38 c-25 43 -28 62 -9 50 6 -4
17 -8 22 -8 6 0 9 -14 8 -30 -3 -30 -2 -30 8 -5 5 14 17 28 25 33 17 9 19 43
3 53 -6 3 -15 0 -20 -7 -7 -11 -9 -11 -9 2 0 8 -12 24 -28 36 -21 16 -31 18
-45 9z m5 -228 c-7 -7 -12 -8 -12 -2 0 14 12 26 19 19 2 -3 -1 -11 -7 -17z"/>
<path d="M1724 588 c-29 -31 -29 -31 -2 -12 15 10 29 25 32 32 8 18 2 15 -30
-20z"/>
<path d="M1920 587 c0 -5 5 -28 11 -51 9 -38 8 -47 -7 -65 -18 -21 -41 -30
-30 -12 4 5 3 11 -1 14 -5 2 -3 3 3 1 15 -3 26 48 13 61 -5 5 -9 1 -9 -12 0
-12 -4 -25 -10 -28 -6 -4 -10 5 -10 20 0 35 -24 28 -28 -8 -2 -15 -8 -25 -13
-21 -5 3 -7 10 -4 15 4 5 1 9 -5 9 -6 0 -13 -6 -16 -14 -6 -16 -27 -26 -67
-31 -24 -4 -18 3 39 50 37 30 63 55 59 55 -4 0 -32 -19 -61 -42 -29 -24 -78
-58 -109 -77 -65 -39 -64 -34 -24 -164 23 -77 23 -79 4 -93 -10 -8 -25 -14
-32 -14 -18 0 -17 54 1 69 11 10 16 6 24 -16 6 -15 11 -21 11 -13 0 8 -10 42
-23 75 -21 55 -26 60 -54 61 -35 1 -42 -11 -62 -110 l-12 -59 30 -23 c28 -23
30 -27 25 -81 -2 -32 -6 -64 -8 -70 -3 -10 45 -13 220 -13 l225 0 0 229 0 229
-27 7 c-25 6 -26 8 -9 14 17 7 18 8 3 14 -9 3 -17 13 -17 21 0 15 -29 86 -30
73z m-321 -464 c1 -13 -3 -23 -9 -23 -5 0 -10 14 -10 32 0 17 -3 28 -7 25 -8
-9 -33 12 -33 27 0 6 7 3 14 -7 8 -11 17 -14 20 -8 4 5 2 12 -4 16 -6 4 -7 11
-3 18 8 12 31 -45 32 -80z"/>
<path d="M1250 569 c0 -5 5 -7 10 -4 6 3 10 8 10 11 0 2 -4 4 -10 4 -5 0 -10
-5 -10 -11z"/>
<path d="M1580 491 c0 -6 4 -13 10 -16 6 -3 7 1 4 9 -7 18 -14 21 -14 7z"/>
<path d="M1563 425 c0 -27 2 -38 4 -22 2 15 2 37 0 50 -2 12 -4 0 -4 -28z"/>
<path d="M916 253 c-6 -14 -5 -15 5 -6 7 7 10 15 7 18 -3 3 -9 -2 -12 -12z"/>
<path d="M1250 81 c0 -6 4 -13 10 -16 6 -3 7 1 4 9 -7 18 -14 21 -14 7z"/>
</g>
</svg>
