<svg xmlns="http://www.w3.org/2000/svg" viewBox="0 0 1120 720" width="1120" height="720">
  <defs>
    <marker id="arrowA" markerWidth="10" markerHeight="7" refX="9" refY="3.5" orient="auto">
      <polygon points="0 0, 10 3.5, 0 7" fill="#10a37f"/>
    </marker>
    <marker id="arrowB" markerWidth="10" markerHeight="7" refX="9" refY="3.5" orient="auto">
      <polygon points="0 0, 10 3.5, 0 7" fill="#0f766e"/>
    </marker>
    <marker id="arrowC" markerWidth="10" markerHeight="7" refX="9" refY="3.5" orient="auto">
      <polygon points="0 0, 10 3.5, 0 7" fill="#0891b2"/>
    </marker>
    <marker id="arrowE" markerWidth="10" markerHeight="7" refX="9" refY="3.5" orient="auto">
      <polygon points="0 0, 10 3.5, 0 7" fill="#f59e0b"/>
    </marker>
    <marker id="arrowF" markerWidth="10" markerHeight="7" refX="9" refY="3.5" orient="auto">
      <polygon points="0 0, 10 3.5, 0 7" fill="#64748b"/>
    </marker>
    <marker id="arrowG" markerWidth="10" markerHeight="7" refX="9" refY="3.5" orient="auto">
      <polygon points="0 0, 10 3.5, 0 7" fill="#10a37f"/>
    </marker>
    <marker id="arrowH" markerWidth="10" markerHeight="7" refX="9" refY="3.5" orient="auto">
      <polygon points="0 0, 10 3.5, 0 7" fill="#94a3b8"/>
    </marker>
    <style>
    text { font-family: 'Helvetica Neue', Helvetica, Arial, 'PingFang SC', 'Microsoft YaHei', sans-serif; }
    .title { font-size: 24px; font-weight: 700; fill: #0f172a; }
    .subtitle { font-size: 13px; font-weight: 500; fill: #64748b; }
    .section { font-size: 13px; font-weight: 700; fill: #10a37f; letter-spacing: 1.4px; }
    .section-sub { font-size: 12px; font-weight: 500; fill: #94a3b8; }
    .node-title { font-size: 18px; font-weight: 700; fill: #0f172a; }
    .node-sub { font-size: 12px; font-weight: 500; fill: #475569; }
    .node-type { font-size: 11px; font-weight: 700; fill: #94a3b8; letter-spacing: 0.08em; }
    .arrow-label { font-size: 12px; font-weight: 600; fill: #475569; }
    .legend { font-size: 12px; font-weight: 500; fill: #475569; }
    .footnote { font-size: 12px; font-weight: 500; fill: #94a3b8; }
    </style>
  </defs>
  <rect width="1120.0" height="720.0" fill="#ffffff"/>
  <text x="48.0" y="48" text-anchor="start" class="title">From One-Shot Generation to Continuous Delivery</text>
  <text x="48.0" y="72" text-anchor="start" class="subtitle">Why a working demo does not yet qualify as a maintainable software system</text>
  <line x1="48" y1="100" x2="1072.0" y2="100" stroke="#e2e8f0" stroke-width="1"/>
  <rect x="40.0" y="118.0" width="1040.0" height="108.0" rx="16.0" fill="none" stroke="#e2e8f0" stroke-width="1.4" stroke-dasharray="5 4"/>
  <text x="58.0" y="142.0" class="section">ONE-SHOT GENERATION</text>
  <rect x="40.0" y="258.0" width="1040.0" height="154.0" rx="16.0" fill="none" stroke="#e2e8f0" stroke-width="1.4" stroke-dasharray="5 4"/>
  <text x="58.0" y="282.0" class="section">REAL-WORLD PRESSURE</text>
  <rect x="40.0" y="444.0" width="1040.0" height="184.0" rx="16.0" fill="none" stroke="#e2e8f0" stroke-width="1.4" stroke-dasharray="5 4"/>
  <text x="58.0" y="468.0" class="section">HARNESS RESPONSE</text>
  <path d="M 228.0,174.0 L 312.0,174.0" fill="none" stroke="#10a37f" stroke-width="2.0" marker-end="url(#arrowA)"/>
  <path d="M 520.0,174.0 L 636.0,174.0" fill="none" stroke="#0891b2" stroke-width="2.0" marker-end="url(#arrowC)"/>
  <path d="M 748.0,204.0 L 748.0,282.0 L 177.0,282.0 L 177.0,314.0" fill="none" stroke="#10a37f" stroke-width="2.0" marker-end="url(#arrowA)" stroke-dasharray="6,4"/>
  <path d="M 748.0,204.0 L 748.0,224.4 L 423.0,224.4 L 423.0,314.0" fill="none" stroke="#10a37f" stroke-width="2.0" marker-end="url(#arrowA)" stroke-dasharray="6,4"/>
  <path d="M 748.0,204.0 L 748.0,224.4 L 669.0,224.4 L 669.0,314.0" fill="none" stroke="#10a37f" stroke-width="2.0" marker-end="url(#arrowA)" stroke-dasharray="6,4"/>
  <path d="M 748.0,204.0 L 748.0,224.4 L 915.0,224.4 L 915.0,314.0" fill="none" stroke="#10a37f" stroke-width="2.0" marker-end="url(#arrowA)" stroke-dasharray="6,4"/>
  <path d="M 177.0,376.0 L 177.0,448.0 L 438.0,448.0 L 438.0,486.0 L 561.0,486.0" fill="none" stroke="#10a37f" stroke-width="2.0" marker-end="url(#arrowA)"/>
  <path d="M 423.0,376.0 L 423.0,396.4 L 561.0,396.4 L 561.0,486.0" fill="none" stroke="#10a37f" stroke-width="2.0" marker-end="url(#arrowA)"/>
  <path d="M 669.0,376.0 L 669.0,396.4 L 561.0,396.4 L 561.0,486.0" fill="none" stroke="#10a37f" stroke-width="2.0" marker-end="url(#arrowA)"/>
  <path d="M 915.0,376.0 L 915.0,448.0 L 684.0,448.0 L 684.0,486.0 L 561.0,486.0" fill="none" stroke="#10a37f" stroke-width="2.0" marker-end="url(#arrowA)"/>
  <path d="M 750.0,530.0 L 792.0,530.0" fill="none" stroke="#0891b2" stroke-width="2.0" marker-end="url(#arrowC)"/>
  <path d="M 90.0 144.0 L 214.0 144.0 Q 228.0 144.0 228.0 158.0 L 228.0 190.0 Q 228.0 204.0 214.0 204.0 L 102.0 204.0 L 88.0 222.0 L 92.0 204.0 L 90.0 204.0 Q 76.0 204.0 76.0 190.0 L 76.0 158.0 Q 76.0 144.0 90.0 144.0 Z" fill="#ffffff" stroke="#dce5e3" stroke-width="2.0"/>
  <text x="152.0" y="174.0" text-anchor="middle" class="node-title">Natural-language prompt</text>
  <rect x="312.0" y="138.0" width="208.0" height="72.0" rx="14.0" fill="#ffffff" stroke="#10a37f" stroke-width="2.0"/>
  <rect x="318.0" y="144.0" width="196.0" height="60.0" rx="11.0" fill="none" stroke="#10a37f" stroke-width="1.2" opacity="0.65"/>
  <text x="416.0" y="156.0" text-anchor="middle" class="node-type">GENERATOR</text>
  <text x="416.0" y="180.0" text-anchor="middle" class="node-title">Coding model</text>
  <rect x="636.0" y="144.0" width="224.0" height="60.0" rx="14.0" fill="#ffffff" stroke="#dce5e3" stroke-width="1.8"/>
  <text x="748.0" y="162.0" text-anchor="middle" class="node-type">VISIBLE SUCCESS</text>
  <text x="748.0" y="180.0" text-anchor="middle" class="node-title">Working demo</text>
  <rect x="86.0" y="314.0" width="182.0" height="62.0" rx="14.0" fill="#ffffff" stroke="#dce5e3" stroke-width="1.8"/>
  <text x="177.0" y="332.0" text-anchor="middle" class="node-type">VOLATILITY</text>
  <text x="177.0" y="351.0" text-anchor="middle" class="node-title">Requirements keep changing</text>
  <rect x="332.0" y="314.0" width="182.0" height="62.0" rx="14.0" fill="#ffffff" stroke="#dce5e3" stroke-width="1.8"/>
  <text x="423.0" y="332.0" text-anchor="middle" class="node-type">STATE</text>
  <text x="423.0" y="351.0" text-anchor="middle" class="node-title">Legacy code and hidden rules</text>
  <rect x="578.0" y="314.0" width="182.0" height="62.0" rx="14.0" fill="#ffffff" stroke="#dce5e3" stroke-width="1.8"/>
  <text x="669.0" y="332.0" text-anchor="middle" class="node-type">GOVERNANCE</text>
  <text x="669.0" y="351.0" text-anchor="middle" class="node-title">Permissions, deploy, rollback</text>
  <rect x="824.0" y="314.0" width="182.0" height="62.0" rx="14.0" fill="#ffffff" stroke="#dce5e3" stroke-width="1.8"/>
  <text x="915.0" y="332.0" text-anchor="middle" class="node-type">PROOF</text>
  <text x="915.0" y="351.0" text-anchor="middle" class="node-title">Regression and verification</text>
  <rect x="372.0" y="486.0" width="378.0" height="88.0" rx="14.0" fill="#ffffff" stroke="#10a37f" stroke-width="2.0"/>
  <rect x="378.0" y="492.0" width="366.0" height="76.0" rx="11.0" fill="none" stroke="#10a37f" stroke-width="1.2" opacity="0.65"/>
  <text x="561.0" y="504.0" text-anchor="middle" class="node-type">CONTROL SYSTEM</text>
  <text x="561.0" y="536.0" text-anchor="middle" class="node-title">Harness Engineering</text>
  <rect x="390.0" y="554.0" width="74" height="16" rx="3" fill="#ecfdf5" stroke="#a7f3d0" stroke-width="1"/>
  <text x="427.0" y="565.5" text-anchor="middle" font-size="11" font-weight="500" fill="#047857">context</text>
  <rect x="472.0" y="554.0" width="90" height="16" rx="3" fill="#ecfdf5" stroke="#a7f3d0" stroke-width="1"/>
  <text x="517.0" y="565.5" text-anchor="middle" font-size="11" font-weight="500" fill="#047857">execution</text>
  <rect x="570.0" y="554.0" width="98" height="16" rx="3" fill="#ecfdf5" stroke="#a7f3d0" stroke-width="1"/>
  <text x="619.0" y="565.5" text-anchor="middle" font-size="11" font-weight="500" fill="#047857">validation</text>
  <rect x="792.0" y="500.0" width="202.0" height="60.0" rx="14.0" fill="#ffffff" stroke="#dce5e3" stroke-width="1.8"/>
  <text x="893.0" y="518.0" text-anchor="middle" class="node-type">OUTCOME</text>
  <text x="893.0" y="536.0" text-anchor="middle" class="node-title">Continuous delivery</text>
  <rect x="715.0" y="516.0" width="112" height="20" rx="6" fill="#ffffff" opacity="0.96"/>
  <text x="771.0" y="530.0" text-anchor="middle" class="arrow-label">safe iteration</text>
  <line x1="42.0" y1="646.0" x2="72.0" y2="646.0" stroke="#10a37f" stroke-width="2.0" marker-end="url(#arrowA)"/>
  <text x="82.0" y="650.0" class="legend">Control and constraint path</text>
  <line x1="42.0" y1="668.0" x2="72.0" y2="668.0" stroke="#0891b2" stroke-width="2.0" marker-end="url(#arrowC)"/>
  <text x="82.0" y="672.0" class="legend">Primary engineering path</text>
  <line x1="42.0" y1="690.0" x2="72.0" y2="690.0" stroke="#10a37f" stroke-width="2.0" marker-end="url(#arrowA)"/>
  <text x="82.0" y="694.0" class="legend">Pressure from real-world operation</text>
</svg>