<svg xmlns="http://www.w3.org/2000/svg" viewBox="0 0 1120 860" width="1120" height="860">
  <defs>
    <marker id="arrowA" markerWidth="10" markerHeight="7" refX="9" refY="3.5" orient="auto">
      <polygon points="0 0, 10 3.5, 0 7" fill="#10a37f"/>
    </marker>
    <marker id="arrowB" markerWidth="10" markerHeight="7" refX="9" refY="3.5" orient="auto">
      <polygon points="0 0, 10 3.5, 0 7" fill="#0f766e"/>
    </marker>
    <marker id="arrowC" markerWidth="10" markerHeight="7" refX="9" refY="3.5" orient="auto">
      <polygon points="0 0, 10 3.5, 0 7" fill="#0891b2"/>
    </marker>
    <marker id="arrowE" markerWidth="10" markerHeight="7" refX="9" refY="3.5" orient="auto">
      <polygon points="0 0, 10 3.5, 0 7" fill="#f59e0b"/>
    </marker>
    <marker id="arrowF" markerWidth="10" markerHeight="7" refX="9" refY="3.5" orient="auto">
      <polygon points="0 0, 10 3.5, 0 7" fill="#64748b"/>
    </marker>
    <marker id="arrowG" markerWidth="10" markerHeight="7" refX="9" refY="3.5" orient="auto">
      <polygon points="0 0, 10 3.5, 0 7" fill="#10a37f"/>
    </marker>
    <marker id="arrowH" markerWidth="10" markerHeight="7" refX="9" refY="3.5" orient="auto">
      <polygon points="0 0, 10 3.5, 0 7" fill="#94a3b8"/>
    </marker>
    <style>
    text { font-family: 'Helvetica Neue', Helvetica, Arial, 'PingFang SC', 'Microsoft YaHei', sans-serif; }
    .title { font-size: 24px; font-weight: 700; fill: #0f172a; }
    .subtitle { font-size: 13px; font-weight: 500; fill: #64748b; }
    .section { font-size: 13px; font-weight: 700; fill: #10a37f; letter-spacing: 1.4px; }
    .section-sub { font-size: 12px; font-weight: 500; fill: #94a3b8; }
    .node-title { font-size: 18px; font-weight: 700; fill: #0f172a; }
    .node-sub { font-size: 12px; font-weight: 500; fill: #475569; }
    .node-type { font-size: 11px; font-weight: 700; fill: #94a3b8; letter-spacing: 0.08em; }
    .arrow-label { font-size: 12px; font-weight: 600; fill: #475569; }
    .legend { font-size: 12px; font-weight: 500; fill: #475569; }
    .footnote { font-size: 12px; font-weight: 500; fill: #94a3b8; }
    </style>
  </defs>
  <rect width="1120.0" height="860.0" fill="#ffffff"/>
  <text x="48.0" y="48" text-anchor="start" class="title">The Six Layers of Harness Engineering</text>
  <text x="48.0" y="72" text-anchor="start" class="subtitle">A practical stack for turning model capability into reliable software delivery</text>
  <line x1="48" y1="100" x2="1072.0" y2="100" stroke="#e2e8f0" stroke-width="1"/>
  <rect x="50.0" y="108.0" width="1020.0" height="660.0" rx="16.0" fill="none" stroke="#e2e8f0" stroke-width="1.4" stroke-dasharray="5 4"/>
  <text x="68.0" y="132.0" class="section">HARNESS STACK</text>
  <path d="M 560.0,188.0 L 560.0,208.4 L 490.0,208.4 L 490.0,224.0" fill="none" stroke="#10a37f" stroke-width="2.0" marker-end="url(#arrowA)"/>
  <path d="M 490.0,286.0 L 490.0,314.0" fill="none" stroke="#10a37f" stroke-width="2.0" marker-end="url(#arrowA)"/>
  <path d="M 490.0,376.0 L 490.0,404.0" fill="none" stroke="#10a37f" stroke-width="2.0" marker-end="url(#arrowA)"/>
  <path d="M 490.0,466.0 L 490.0,494.0" fill="none" stroke="#10a37f" stroke-width="2.0" marker-end="url(#arrowA)"/>
  <path d="M 490.0,556.0 L 490.0,584.0" fill="none" stroke="#10a37f" stroke-width="2.0" marker-end="url(#arrowA)"/>
  <path d="M 490.0,646.0 L 490.0,674.0" fill="none" stroke="#10a37f" stroke-width="2.0" marker-end="url(#arrowA)"/>
  <path d="M 490.0,736.0 L 490.0,756.4 L 560.0,765.6 L 560.0,786.0" fill="none" stroke="#0891b2" stroke-width="2.0" marker-end="url(#arrowC)"/>
  <path d="M 424.0 126.0 L 696.0 126.0 Q 710.0 126.0 710.0 140.0 L 710.0 174.0 Q 710.0 188.0 696.0 188.0 L 436.0 188.0 L 422.0 206.0 L 426.0 188.0 L 424.0 188.0 Q 410.0 188.0 410.0 174.0 L 410.0 140.0 Q 410.0 126.0 424.0 126.0 Z" fill="#ffffff" stroke="#dce5e3" stroke-width="2.0"/>
  <text x="560.0" y="157.0" text-anchor="middle" class="node-title">User intent / task goal</text>
  <rect x="210.0" y="224.0" width="560.0" height="62.0" rx="14.0" fill="#ffffff" stroke="#dce5e3" stroke-width="1.8"/>
  <text x="490.0" y="242.0" text-anchor="middle" class="node-type">LAYER 1</text>
  <text x="490.0" y="261.0" text-anchor="middle" class="node-title">Context layer — docs, specs, boundaries, maps</text>
  <rect x="210.0" y="314.0" width="560.0" height="62.0" rx="14.0" fill="#ffffff" stroke="#dce5e3" stroke-width="1.8"/>
  <text x="490.0" y="332.0" text-anchor="middle" class="node-type">LAYER 2</text>
  <text x="490.0" y="351.0" text-anchor="middle" class="node-title">Execution layer — tools, sandbox, protocol, approvals</text>
  <rect x="210.0" y="404.0" width="560.0" height="62.0" rx="14.0" fill="#ffffff" stroke="#dce5e3" stroke-width="1.8"/>
  <text x="490.0" y="422.0" text-anchor="middle" class="node-type">LAYER 3</text>
  <text x="490.0" y="441.0" text-anchor="middle" class="node-title">Plan &amp; handoff layer — feature list, init, progress logs</text>
  <rect x="210.0" y="494.0" width="560.0" height="62.0" rx="14.0" fill="#ffffff" stroke="#dce5e3" stroke-width="1.8"/>
  <text x="490.0" y="512.0" text-anchor="middle" class="node-type">LAYER 4</text>
  <text x="490.0" y="531.0" text-anchor="middle" class="node-title">Validation layer — tests, browser checks, evals, approval</text>
  <rect x="210.0" y="584.0" width="560.0" height="62.0" rx="14.0" fill="#ffffff" stroke="#dce5e3" stroke-width="1.8"/>
  <text x="490.0" y="602.0" text-anchor="middle" class="node-type">LAYER 5</text>
  <text x="490.0" y="621.0" text-anchor="middle" class="node-title">Observability &amp; governance — logs, metrics, traces, policy</text>
  <rect x="210.0" y="674.0" width="560.0" height="62.0" rx="14.0" fill="#ffffff" stroke="#dce5e3" stroke-width="1.8"/>
  <text x="490.0" y="692.0" text-anchor="middle" class="node-type">LAYER 6</text>
  <text x="490.0" y="711.0" text-anchor="middle" class="node-title">Entropy management — lint, cleanup, doc gardening, refactor</text>
  <rect x="400.0" y="786.0" width="320.0" height="52.0" rx="14.0" fill="#ffffff" stroke="#10a37f" stroke-width="1.8"/>
  <text x="560.0" y="804.0" text-anchor="middle" class="node-type">OUTCOME</text>
  <text x="560.0" y="818.0" text-anchor="middle" class="node-title">Reliable software delivery</text>
  <line x1="858.0" y1="780.0" x2="888.0" y2="780.0" stroke="#10a37f" stroke-width="2.0" marker-end="url(#arrowA)"/>
  <text x="898.0" y="784.0" class="legend">Engineering control path</text>
  <line x1="858.0" y1="802.0" x2="888.0" y2="802.0" stroke="#0891b2" stroke-width="2.0" marker-end="url(#arrowC)"/>
  <text x="898.0" y="806.0" class="legend">Resulting delivery path</text>
</svg>