<svg xmlns="http://www.w3.org/2000/svg" width="1600" height="980" viewBox="0 0 1600 980">
<defs>
<pattern id="grid" width="32" height="32" patternUnits="userSpaceOnUse"><path d="M 32 0 L 0 0 0 32" fill="none" stroke="#E2E8F0" stroke-width="1"/></pattern>
<marker id="arrow-slate" markerWidth="10" markerHeight="10" refX="9" refY="5" orient="auto"><path d="M 0 0 L 10 5 L 0 10 z" fill="#64748B"/></marker>
<marker id="arrow-navy" markerWidth="10" markerHeight="10" refX="9" refY="5" orient="auto"><path d="M 0 0 L 10 5 L 0 10 z" fill="#1D4ED8"/></marker>
<marker id="arrow-teal" markerWidth="10" markerHeight="10" refX="9" refY="5" orient="auto"><path d="M 0 0 L 10 5 L 0 10 z" fill="#0F766E"/></marker>
<marker id="arrow-amber" markerWidth="10" markerHeight="10" refX="9" refY="5" orient="auto"><path d="M 0 0 L 10 5 L 0 10 z" fill="#B45309"/></marker>
<marker id="arrow-violet" markerWidth="10" markerHeight="10" refX="9" refY="5" orient="auto"><path d="M 0 0 L 10 5 L 0 10 z" fill="#7C3AED"/></marker>
</defs>
<style>
text { font-family: -apple-system, BlinkMacSystemFont, 'Segoe UI', Helvetica, Arial, 'PingFang SC', 'Microsoft YaHei', sans-serif; }
</style>
<rect width="1600" height="980" fill="#F8FAFC"/>
<rect width="1600" height="980" fill="url(#grid)" opacity="0.55"/>
<rect x="36" y="28" width="1528" height="924" rx="26" ry="26" fill="rgba(255,255,255,0.0)" stroke="#E2E8F0" stroke-width="1.5"/>
<text x="56" y="70" font-size="32" font-weight="800" fill="#0F172A">Figure 4. From reusable state to a possible state-artifact economy</text>
<text x="56" y="102" font-size="18" font-weight="500" fill="#475569">What could become portable is not an arbitrary prompt, but a compatibility-checked state object with provenance and policy metadata</text>
<text x="110" y="166" font-size="16" font-weight="700" fill="#1D4ED8" letter-spacing="1.2">ARTIFACT LIFECYCLE</text>
<rect x="90" y="176" width="1420" height="440" rx="18" ry="18" fill="none" stroke="#1D4ED8" stroke-width="2" stroke-dasharray="8 6"/>
<text x="110" y="640" font-size="16" font-weight="700" fill="#7C3AED" letter-spacing="1.2">WHAT REMAINS SPECULATIVE</text>
<rect x="90" y="650" width="1420" height="170" rx="18" ry="18" fill="none" stroke="#7C3AED" stroke-width="2" stroke-dasharray="8 6"/>
<rect x="130" y="248" width="270" height="200" rx="18" ry="18" fill="#FFFFFF" stroke="#CBD5E1" stroke-width="2"/>
<rect x="131" y="249" width="268" height="8" rx="17" ry="17" fill="#1D4ED8"/>
<text x="158" y="284" text-anchor="start" font-size="20" font-weight="700" fill="#0F172A">Mint</text>
<text x="158" y="320" text-anchor="start" font-size="18" font-weight="500" fill="#475569">prefill or initialize</text>
<text x="158" y="346" text-anchor="start" font-size="18" font-weight="500" fill="#475569">a task-specific state</text>
<text x="158" y="372" text-anchor="start" font-size="18" font-weight="500" fill="#475569">bind model hash,</text>
<text x="158" y="398" text-anchor="start" font-size="18" font-weight="500" fill="#475569">tokenizer, tools,</text>
<text x="158" y="424" text-anchor="start" font-size="18" font-weight="500" fill="#475569">safety policy</text>
<rect x="470" y="220" width="320" height="256" rx="18" ry="18" fill="#FFFFFF" stroke="#CBD5E1" stroke-width="2"/>
<rect x="471" y="221" width="318" height="8" rx="17" ry="17" fill="#B45309"/>
<text x="498" y="256" text-anchor="start" font-size="24" font-weight="700" fill="#0F172A">State artifact</text>
<text x="498" y="296" text-anchor="start" font-size="18" font-weight="500" fill="#475569">prefix / context</text>
<text x="498" y="322" text-anchor="start" font-size="18" font-weight="500" fill="#475569">fingerprint</text>
<text x="498" y="348" text-anchor="start" font-size="18" font-weight="500" fill="#475569">compatible model family</text>
<text x="498" y="374" text-anchor="start" font-size="18" font-weight="500" fill="#475569">task schema + persona tag</text>
<text x="498" y="400" text-anchor="start" font-size="18" font-weight="500" fill="#475569">active-horizon assumptions</text>
<text x="498" y="426" text-anchor="start" font-size="18" font-weight="500" fill="#475569">provenance + version</text>
<text x="498" y="452" text-anchor="start" font-size="18" font-weight="500" fill="#475569">history</text>
<rect x="860" y="220" width="260" height="110" rx="18" ry="18" fill="#FFFFFF" stroke="#CBD5E1" stroke-width="2"/>
<rect x="861" y="221" width="258" height="8" rx="17" ry="17" fill="#0F766E"/>
<text x="888" y="256" text-anchor="start" font-size="20" font-weight="700" fill="#0F172A">Verify</text>
<text x="888" y="292" text-anchor="start" font-size="18" font-weight="500" fill="#475569">compatibility,</text>
<text x="888" y="318" text-anchor="start" font-size="18" font-weight="500" fill="#475569">provenance, safety</text>
<rect x="860" y="366" width="260" height="110" rx="18" ry="18" fill="#FFFFFF" stroke="#CBD5E1" stroke-width="2"/>
<rect x="861" y="367" width="258" height="8" rx="17" ry="17" fill="#7C3AED"/>
<text x="888" y="402" text-anchor="start" font-size="20" font-weight="700" fill="#0F172A">Compose</text>
<text x="888" y="438" text-anchor="start" font-size="18" font-weight="500" fill="#475569">merge with workflow</text>
<text x="888" y="464" text-anchor="start" font-size="18" font-weight="500" fill="#475569">state or org memory</text>
<rect x="1180" y="220" width="260" height="110" rx="18" ry="18" fill="#FFFFFF" stroke="#CBD5E1" stroke-width="2"/>
<rect x="1181" y="221" width="258" height="8" rx="17" ry="17" fill="#1D4ED8"/>
<text x="1208" y="256" text-anchor="start" font-size="20" font-weight="700" fill="#0F172A">Execute</text>
<text x="1208" y="292" text-anchor="start" font-size="18" font-weight="500" fill="#475569">resume agent loop</text>
<text x="1208" y="318" text-anchor="start" font-size="18" font-weight="500" fill="#475569">with tools and</text>
<text x="1208" y="344" text-anchor="start" font-size="18" font-weight="500" fill="#475569">retrieval</text>
<rect x="1180" y="366" width="260" height="110" rx="18" ry="18" fill="#FFFFFF" stroke="#CBD5E1" stroke-width="2"/>
<rect x="1181" y="367" width="258" height="8" rx="17" ry="17" fill="#B45309"/>
<text x="1208" y="402" text-anchor="start" font-size="20" font-weight="700" fill="#0F172A">Settle</text>
<text x="1208" y="438" text-anchor="start" font-size="18" font-weight="500" fill="#475569">price usage, track</text>
<text x="1208" y="464" text-anchor="start" font-size="18" font-weight="500" fill="#475569">value, log outcomes</text>
<rect x="150" y="700" width="1320" height="86" rx="18" ry="18" fill="#FFFFFF" stroke="#CBD5E1" stroke-width="2"/>
<rect x="151" y="701" width="1318" height="8" rx="17" ry="17" fill="#BE123C"/>
<text x="810.0" y="736" text-anchor="middle" font-size="18" font-weight="700" fill="#0F172A">Important caveat</text>
<text x="810.0" y="770" text-anchor="middle" font-size="15" font-weight="500" fill="#475569">This is an inference from serving constraints and memory-system design, not a current market standard.</text>
<path d="M 400 348 L 435 348 L 435 348 L 470 348" fill="none" stroke="#1D4ED8" stroke-width="3" marker-end="url(#arrow-navy)"/>
<rect x="439" y="316" width="120" height="30" rx="12" ry="12" fill="#FFFFFF" stroke="#E2E8F0" stroke-width="1"/>
<text x="453" y="336" font-size="14" font-weight="600" fill="#475569">create</text>
<path d="M 790 348 L 825 348 L 825 275 L 860 275" fill="none" stroke="#0F766E" stroke-width="3" marker-end="url(#arrow-teal)"/>
<rect x="829" y="243" width="120" height="30" rx="12" ry="12" fill="#FFFFFF" stroke="#E2E8F0" stroke-width="1"/>
<text x="843" y="263" font-size="14" font-weight="600" fill="#475569">check</text>
<path d="M 790 348 L 825 348 L 825 421 L 860 421" fill="none" stroke="#7C3AED" stroke-width="3" marker-end="url(#arrow-violet)"/>
<rect x="829" y="389" width="120" height="30" rx="12" ry="12" fill="#FFFFFF" stroke="#E2E8F0" stroke-width="1"/>
<text x="843" y="409" font-size="14" font-weight="600" fill="#475569">merge</text>
<path d="M 1120 275 L 1120 276 L 1160 276 L 1180 275" fill="none" stroke="#1D4ED8" stroke-width="3" marker-end="url(#arrow-navy)"/>
<rect x="1164" y="244" width="120" height="30" rx="12" ry="12" fill="#FFFFFF" stroke="#E2E8F0" stroke-width="1"/>
<text x="1178" y="264" font-size="14" font-weight="600" fill="#475569">load</text>
<path d="M 1120 421 L 1120 422 L 1160 422 L 1180 421" fill="none" stroke="#B45309" stroke-width="3" marker-end="url(#arrow-amber)"/>
<rect x="1164" y="390" width="157" height="30" rx="12" ry="12" fill="#FFFFFF" stroke="#E2E8F0" stroke-width="1"/>
<text x="1178" y="410" font-size="14" font-weight="600" fill="#475569">price / account</text>
<path d="M 1440 275 L 1310 330 L 1310 366 L 1180 421" fill="none" stroke="#64748B" stroke-width="3" marker-end="url(#arrow-slate)"/>
<rect x="1314" y="334" width="121" height="30" rx="12" ry="12" fill="#FFFFFF" stroke="#E2E8F0" stroke-width="1"/>
<text x="1328" y="354" font-size="14" font-weight="600" fill="#475569">outcome log</text>
<line x1="1110" y1="860" x2="1136" y2="860" stroke="#1D4ED8" stroke-width="3" marker-end="url(#arrow-navy)"/>
<text x="1150" y="865" font-size="14" font-weight="600" fill="#475569">execution path</text>
<line x1="1110" y1="882" x2="1136" y2="882" stroke="#0F766E" stroke-width="3" marker-end="url(#arrow-teal)"/>
<text x="1150" y="887" font-size="14" font-weight="600" fill="#475569">compatibility checks</text>
<line x1="1110" y1="904" x2="1136" y2="904" stroke="#B45309" stroke-width="3" marker-end="url(#arrow-amber)"/>
<text x="1150" y="909" font-size="14" font-weight="600" fill="#475569">pricing / settlement</text>
<line x1="1110" y1="926" x2="1136" y2="926" stroke="#7C3AED" stroke-width="3" marker-end="url(#arrow-violet)"/>
<text x="1150" y="931" font-size="14" font-weight="600" fill="#475569">composition</text>
<text x="56" y="908" font-size="15" font-weight="500" fill="#475569">The artifact metaphor becomes plausible only if memory is explicit, versioned, and cheap to reload relative to re-creating full context.</text>
</svg>
