<?xml version="1.0" encoding="utf-8" standalone="no"?>
<!DOCTYPE svg PUBLIC "-//W3C//DTD SVG 1.1//EN"
  "http://www.w3.org/Graphics/SVG/1.1/DTD/svg11.dtd">
<svg xmlns:xlink="http://www.w3.org/1999/xlink" width="507.385594pt" height="351.189187pt" viewBox="0 0 507.385594 351.189187" xmlns="http://www.w3.org/2000/svg" version="1.1">
 <metadata>
  <rdf:RDF xmlns:dc="http://purl.org/dc/elements/1.1/" xmlns:cc="http://creativecommons.org/ns#" xmlns:rdf="http://www.w3.org/1999/02/22-rdf-syntax-ns#">
   <cc:Work>
    <dc:type rdf:resource="http://purl.org/dc/dcmitype/StillImage"/>
    <dc:date>2026-04-22T19:28:09.462326</dc:date>
    <dc:format>image/svg+xml</dc:format>
    <dc:creator>
     <cc:Agent>
      <dc:title>Matplotlib v3.9.2, https://matplotlib.org/</dc:title>
     </cc:Agent>
    </dc:creator>
   </cc:Work>
  </rdf:RDF>
 </metadata>
 <defs>
  <style type="text/css">*{stroke-linejoin: round; stroke-linecap: butt}</style>
 </defs>
 <g id="figure_1">
  <g id="patch_1">
   <path d="M 0 351.189187 
L 507.385594 351.189187 
L 507.385594 0 
L 0 0 
z
" style="fill: #ffffff"/>
  </g>
  <g id="axes_1">
   <g id="patch_2">
    <path d="M 43.183594 327.5595 
L 500.185594 327.5595 
L 500.185594 33.7275 
L 43.183594 33.7275 
z
" style="fill: #ffffff"/>
   </g>
   <g id="patch_3">
    <path d="M 63.956412 327.5595 
L 248.603685 327.5595 
L 248.603685 245.797552 
L 63.956412 245.797552 
z
" clip-path="url(#p41813f8155)" style="fill: #1f77b4"/>
   </g>
   <g id="patch_4">
    <path d="M 294.765503 327.5595 
L 479.412776 327.5595 
L 479.412776 72.053413 
L 294.765503 72.053413 
z
" clip-path="url(#p41813f8155)" style="fill: #1f77b4"/>
   </g>
   <g id="matplotlib.axis_1">
    <g id="xtick_1">
     <g id="line2d_1">
      <defs>
       <path id="m336dd18638" d="M 0 0 
L 0 3.5 
" style="stroke: #000000; stroke-width: 0.8"/>
      </defs>
      <g>
       <use xlink:href="#m336dd18638" x="156.280048" y="327.5595" style="stroke: #000000; stroke-width: 0.8"/>
      </g>
     </g>
     <g id="text_1">
      <!-- GLM-5.1 -->
      <g transform="translate(136.428486 342.6595) scale(0.1 -0.1)">
       <defs>
        <path id="STHeitiTC-Medium-47" d="M 5325 2675 
Q 5306 1536 4662 902 
Q 4019 269 2970 269 
Q 1766 269 1049 1008 
Q 333 1747 333 2739 
Q 333 3731 1049 4457 
Q 1766 5184 2899 5184 
Q 3514 5184 4042 4957 
Q 4570 4730 5075 4262 
L 4653 3859 
Q 4262 4237 3808 4438 
Q 3354 4640 2874 4640 
Q 2394 4640 1920 4384 
Q 1446 4128 1177 3693 
Q 909 3258 909 2752 
Q 909 1965 1501 1379 
Q 2093 794 2982 794 
Q 3642 794 4122 1155 
Q 4602 1517 4710 2144 
L 3251 2144 
L 3251 2675 
L 5325 2675 
z
" transform="scale(0.015625)"/>
        <path id="STHeitiTC-Medium-4c" d="M 2835 384 
L 512 384 
L 512 5069 
L 1069 5069 
L 1069 915 
L 2835 915 
L 2835 384 
z
" transform="scale(0.015625)"/>
        <path id="STHeitiTC-Medium-4d" d="M 5581 384 
L 5037 384 
L 4602 3571 
L 3027 384 
L 2861 384 
L 1267 3597 
L 832 384 
L 301 384 
L 966 5069 
L 1101 5069 
L 2944 1350 
L 4774 5069 
L 4909 5069 
L 5581 384 
z
" transform="scale(0.015625)"/>
        <path id="STHeitiTC-Medium-2d" d="M 1965 2067 
L 160 2067 
L 160 2541 
L 1965 2541 
L 1965 2067 
z
" transform="scale(0.015625)"/>
        <path id="STHeitiTC-Medium-35" d="M 3194 4544 
L 1549 4544 
L 1338 3398 
Q 1613 3469 1856 3469 
Q 2477 3469 2893 3030 
Q 3309 2592 3309 1913 
Q 3309 1235 2861 752 
Q 2413 269 1664 269 
Q 1088 269 691 621 
Q 294 973 211 1587 
L 768 1587 
Q 851 1203 1107 998 
Q 1363 794 1690 794 
Q 2125 794 2438 1123 
Q 2752 1453 2752 1939 
Q 2752 2374 2480 2656 
Q 2208 2938 1747 2938 
Q 1286 2938 672 2675 
L 1120 5069 
L 3194 5069 
L 3194 4544 
z
" transform="scale(0.015625)"/>
        <path id="STHeitiTC-Medium-2e" d="M 966 1478 
Q 1146 1478 1270 1353 
Q 1395 1229 1395 1046 
Q 1395 864 1270 739 
Q 1146 614 970 614 
Q 794 614 666 742 
Q 538 870 538 1049 
Q 538 1229 666 1353 
Q 794 1478 966 1478 
z
" transform="scale(0.015625)"/>
        <path id="STHeitiTC-Medium-31" d="M 2131 384 
L 1587 384 
L 1587 4531 
L 826 4531 
L 1158 5069 
L 2131 5069 
L 2131 384 
z
" transform="scale(0.015625)"/>
       </defs>
       <use xlink:href="#STHeitiTC-Medium-47"/>
       <use xlink:href="#STHeitiTC-Medium-4c" x="87.199982"/>
       <use xlink:href="#STHeitiTC-Medium-4d" x="133.399979"/>
       <use xlink:href="#STHeitiTC-Medium-2d" x="225.299973"/>
       <use xlink:href="#STHeitiTC-Medium-35" x="258.499969"/>
       <use xlink:href="#STHeitiTC-Medium-2e" x="313.899963"/>
       <use xlink:href="#STHeitiTC-Medium-31" x="341.59996"/>
      </g>
     </g>
    </g>
    <g id="xtick_2">
     <g id="line2d_2">
      <g>
       <use xlink:href="#m336dd18638" x="387.089139" y="327.5595" style="stroke: #000000; stroke-width: 0.8"/>
      </g>
     </g>
     <g id="text_2">
      <!-- Codex 实验 -->
      <g transform="translate(359.424295 342.6595) scale(0.1 -0.1)">
       <defs>
        <path id="STHeitiTC-Medium-43" d="M 4909 1242 
Q 4154 269 2835 269 
Q 1722 269 1011 973 
Q 301 1677 301 2752 
Q 301 3418 630 3981 
Q 960 4544 1542 4864 
Q 2125 5184 2800 5184 
Q 3475 5184 4009 4925 
Q 4544 4666 4902 4166 
L 4480 3840 
Q 3814 4646 2835 4646 
Q 2035 4646 1456 4083 
Q 877 3520 877 2704 
Q 877 1888 1443 1341 
Q 2010 794 2912 794 
Q 3814 794 4480 1568 
L 4909 1242 
z
" transform="scale(0.015625)"/>
        <path id="STHeitiTC-Medium-6f" d="M 2099 3962 
Q 2854 3962 3382 3418 
Q 3910 2874 3910 2112 
Q 3910 1350 3388 809 
Q 2867 269 2099 269 
Q 1331 269 806 809 
Q 282 1350 282 2112 
Q 282 2874 810 3418 
Q 1338 3962 2099 3962 
z
M 2099 774 
Q 2630 774 3004 1161 
Q 3379 1549 3379 2096 
Q 3379 2643 2998 3043 
Q 2618 3443 2096 3443 
Q 1574 3443 1196 3043 
Q 819 2643 819 2092 
Q 819 1542 1184 1158 
Q 1549 774 2099 774 
z
" transform="scale(0.015625)"/>
        <path id="STHeitiTC-Medium-64" d="M 3923 384 
L 3405 384 
L 3405 896 
Q 2835 269 2089 269 
Q 1344 269 819 813 
Q 294 1357 294 2118 
Q 294 2880 825 3421 
Q 1357 3962 2121 3962 
Q 2886 3962 3405 3341 
L 3405 5184 
L 3923 5184 
L 3923 384 
z
M 2131 762 
Q 2637 762 3033 1139 
Q 3430 1517 3430 2096 
Q 3430 2675 3062 3062 
Q 2694 3450 2134 3450 
Q 1574 3450 1200 3050 
Q 826 2650 826 2109 
Q 826 1568 1210 1165 
Q 1594 762 2131 762 
z
" transform="scale(0.015625)"/>
        <path id="STHeitiTC-Medium-65" d="M 3878 2035 
L 819 2035 
Q 851 1459 1206 1110 
Q 1562 762 2054 762 
Q 2893 762 3334 1587 
L 3782 1357 
Q 3482 800 3072 534 
Q 2662 269 2093 269 
Q 1306 269 794 809 
Q 282 1350 282 2112 
Q 282 2874 797 3418 
Q 1312 3962 2073 3962 
Q 2835 3962 3347 3446 
Q 3859 2931 3878 2035 
z
M 3290 2502 
Q 3194 2950 2854 3200 
Q 2515 3450 2074 3450 
Q 1178 3450 883 2502 
L 3290 2502 
z
" transform="scale(0.015625)"/>
        <path id="STHeitiTC-Medium-78" d="M 3078 384 
L 2432 384 
L 1530 1766 
L 634 384 
L 0 384 
L 1210 2221 
L 122 3872 
L 762 3872 
L 1530 2682 
L 2291 3872 
L 2931 3872 
L 1850 2227 
L 3078 384 
z
" transform="scale(0.015625)"/>
        <path id="STHeitiTC-Medium-20" transform="scale(0.015625)"/>
        <path id="STHeitiTC-Medium-5b9e" d="M 5344 -666 
Q 4902 -307 4492 -44 
Q 4083 218 3622 448 
L 3930 864 
Q 4218 723 4451 608 
Q 4685 493 4899 377 
Q 5114 262 5322 140 
Q 5530 19 5773 -134 
L 5344 -666 
z
M 2106 1786 
Q 1907 1952 1657 2102 
Q 1408 2253 1120 2394 
L 1510 2752 
Q 1811 2592 2073 2441 
Q 2336 2291 2554 2144 
L 2106 1786 
z
M 2714 2528 
Q 2509 2707 2259 2892 
Q 2010 3078 1715 3238 
L 2029 3584 
Q 2605 3245 3046 2957 
L 2714 2528 
z
M 3680 1197 
Q 3437 576 2800 118 
Q 2163 -339 1043 -723 
Q 845 -390 582 -147 
Q 1114 -51 1520 80 
Q 1926 211 2224 374 
Q 2522 538 2730 742 
Q 2938 947 3078 1197 
Q 2221 1197 1600 1181 
Q 979 1165 512 1133 
L 512 1747 
Q 992 1715 1648 1699 
Q 2304 1683 3264 1683 
Q 3302 1882 3321 2173 
Q 3341 2464 3350 2755 
Q 3360 3046 3357 3302 
Q 3354 3558 3347 3693 
Q 3533 3667 3699 3657 
Q 3866 3648 4032 3661 
Q 4090 3667 4096 3644 
Q 4102 3622 4051 3590 
Q 4013 3558 3981 3443 
Q 3949 3328 3936 3181 
Q 3923 2995 3910 2790 
Q 3898 2586 3885 2384 
Q 3872 2182 3853 2000 
Q 3834 1818 3814 1683 
Q 4454 1690 4966 1702 
Q 5478 1715 5882 1747 
L 5882 1120 
Q 5466 1152 4931 1171 
Q 4397 1190 3680 1197 
z
M 3066 4480 
Q 2970 4845 2848 5107 
L 3533 5229 
Q 3584 5030 3641 4857 
Q 3699 4685 3782 4480 
Q 4198 4480 4502 4483 
Q 4806 4486 5036 4492 
Q 5267 4499 5440 4505 
Q 5613 4512 5760 4518 
L 5760 3283 
L 5178 3283 
L 5178 4006 
L 1210 4006 
L 1210 3245 
L 672 3245 
L 672 4518 
Q 838 4506 1033 4499 
Q 1229 4493 1501 4489 
Q 1773 4486 2150 4483 
Q 2528 4480 3066 4480 
z
" transform="scale(0.015625)"/>
        <path id="STHeitiTC-Medium-9a8c" d="M 1760 1242 
Q 1722 1101 1715 982 
Q 1709 864 1722 774 
Q 1293 717 941 656 
Q 589 595 346 518 
Q 333 666 310 803 
Q 288 941 250 1088 
Q 461 1094 643 1104 
Q 826 1114 1002 1133 
Q 1178 1152 1363 1177 
Q 1549 1203 1760 1242 
z
M 3104 512 
Q 3091 672 3062 896 
Q 3034 1120 2992 1350 
Q 2950 1581 2905 1789 
Q 2861 1997 2822 2131 
L 3245 2214 
Q 3270 2086 3312 1872 
Q 3354 1658 3402 1424 
Q 3450 1190 3498 969 
Q 3546 749 3578 614 
L 3104 512 
z
M 3910 800 
Q 3898 979 3875 1174 
Q 3853 1370 3827 1562 
Q 3802 1754 3773 1933 
Q 3744 2112 3718 2259 
L 4179 2336 
Q 4198 2189 4220 2003 
Q 4243 1818 4268 1619 
Q 4294 1421 4323 1229 
Q 4352 1037 4384 877 
L 3910 800 
z
M 4352 83 
Q 4454 346 4540 605 
Q 4627 864 4700 1139 
Q 4774 1414 4838 1708 
Q 4902 2003 4954 2336 
Q 5120 2266 5296 2211 
Q 5472 2157 5581 2131 
Q 5696 2106 5562 2022 
Q 5510 1990 5459 1897 
Q 5408 1805 5363 1670 
Q 5210 1190 5066 796 
Q 4922 403 4794 83 
Q 5101 83 5321 96 
Q 5542 109 5715 141 
L 5715 -422 
Q 5510 -397 5152 -381 
Q 4794 -365 4179 -365 
Q 3533 -365 3168 -381 
Q 2803 -397 2624 -422 
L 2624 141 
Q 2714 128 2838 115 
Q 2963 102 3097 96 
Q 3232 90 3366 86 
Q 3501 83 3610 83 
L 4352 83 
z
M 4205 4659 
Q 3968 4218 3760 3885 
Q 3552 3552 3296 3251 
Q 3443 3226 3651 3213 
Q 3859 3200 4186 3200 
Q 4531 3200 4739 3209 
Q 4947 3219 5101 3251 
L 5101 2733 
Q 4947 2752 4739 2761 
Q 4531 2771 4186 2771 
Q 3846 2771 3638 2755 
Q 3430 2739 3283 2707 
L 3283 3232 
Q 3174 3104 3046 2973 
Q 2918 2842 2771 2701 
Q 2688 2790 2582 2873 
Q 2477 2957 2355 3008 
Q 2662 3200 2953 3568 
Q 3245 3936 3488 4378 
Q 3635 4653 3715 4867 
Q 3795 5082 3827 5235 
Q 3974 5184 4172 5123 
Q 4371 5062 4506 5043 
Q 4576 5030 4579 4995 
Q 4582 4960 4512 4928 
Q 4493 4915 4470 4905 
Q 4448 4896 4429 4883 
Q 4762 4262 5168 3910 
Q 5574 3558 6144 3386 
Q 6016 3258 5907 3101 
Q 5798 2944 5754 2816 
Q 5453 2989 5209 3181 
Q 4966 3373 4777 3593 
Q 4589 3814 4445 4076 
Q 4301 4339 4205 4659 
z
M 2125 2234 
Q 2278 2240 2380 2249 
Q 2483 2259 2579 2285 
Q 2560 2035 2541 1776 
Q 2522 1517 2502 1277 
Q 2483 1037 2464 832 
Q 2445 627 2432 499 
Q 2394 179 2349 -3 
Q 2304 -186 2185 -294 
Q 2067 -403 1840 -457 
Q 1613 -512 1210 -570 
Q 1178 -410 1133 -275 
Q 1088 -141 998 19 
Q 1280 -6 1453 -6 
Q 1626 -6 1725 38 
Q 1824 83 1865 176 
Q 1907 269 1933 422 
Q 1952 544 1971 720 
Q 1990 896 2009 1085 
Q 2029 1274 2045 1456 
Q 2061 1638 2067 1779 
Q 1734 1779 1497 1776 
Q 1261 1773 1091 1766 
Q 922 1760 803 1750 
Q 685 1741 589 1722 
Q 602 1818 614 1994 
Q 627 2170 640 2381 
Q 653 2592 665 2822 
Q 678 3053 688 3261 
Q 698 3469 701 3638 
Q 704 3808 704 3898 
Q 832 3866 969 3843 
Q 1107 3821 1248 3827 
Q 1338 3834 1347 3805 
Q 1357 3776 1299 3731 
Q 1248 3699 1229 3644 
Q 1210 3590 1203 3520 
L 1069 2214 
L 1664 2214 
L 1920 4320 
Q 1606 4320 1379 4317 
Q 1152 4314 979 4304 
Q 806 4294 678 4281 
Q 550 4269 442 4250 
L 442 4845 
Q 666 4819 938 4806 
Q 1210 4794 1466 4794 
Q 1715 4794 1971 4806 
Q 2227 4819 2445 4845 
L 2125 2234 
z
" transform="scale(0.015625)"/>
       </defs>
       <use xlink:href="#STHeitiTC-Medium-43"/>
       <use xlink:href="#STHeitiTC-Medium-6f" x="81.299988"/>
       <use xlink:href="#STHeitiTC-Medium-64" x="146.799973"/>
       <use xlink:href="#STHeitiTC-Medium-65" x="215.299957"/>
       <use xlink:href="#STHeitiTC-Medium-78" x="280.299942"/>
       <use xlink:href="#STHeitiTC-Medium-20" x="328.299927"/>
       <use xlink:href="#STHeitiTC-Medium-5b9e" x="353.299911"/>
       <use xlink:href="#STHeitiTC-Medium-9a8c" x="453.299896"/>
      </g>
     </g>
    </g>
   </g>
   <g id="matplotlib.axis_2">
    <g id="ytick_1">
     <g id="line2d_3">
      <path d="M 43.183594 327.5595 
L 500.185594 327.5595 
" clip-path="url(#p41813f8155)" style="fill: none; stroke: #b0b0b0; stroke-opacity: 0.25; stroke-width: 0.8; stroke-linecap: square"/>
     </g>
     <g id="line2d_4">
      <defs>
       <path id="mbd3841657d" d="M 0 0 
L -3.5 0 
" style="stroke: #000000; stroke-width: 0.8"/>
      </defs>
      <g>
       <use xlink:href="#mbd3841657d" x="43.183594" y="327.5595" style="stroke: #000000; stroke-width: 0.8"/>
      </g>
     </g>
     <g id="text_3">
      <!-- 0 -->
      <g transform="translate(29.821094 331.358719) scale(0.1 -0.1)">
       <defs>
        <path id="DejaVuSans-30" d="M 2034 4250 
Q 1547 4250 1301 3770 
Q 1056 3291 1056 2328 
Q 1056 1369 1301 889 
Q 1547 409 2034 409 
Q 2525 409 2770 889 
Q 3016 1369 3016 2328 
Q 3016 3291 2770 3770 
Q 2525 4250 2034 4250 
z
M 2034 4750 
Q 2819 4750 3233 4129 
Q 3647 3509 3647 2328 
Q 3647 1150 3233 529 
Q 2819 -91 2034 -91 
Q 1250 -91 836 529 
Q 422 1150 422 2328 
Q 422 3509 836 4129 
Q 1250 4750 2034 4750 
z
" transform="scale(0.015625)"/>
       </defs>
       <use xlink:href="#DejaVuSans-30"/>
      </g>
     </g>
    </g>
    <g id="ytick_2">
     <g id="line2d_5">
      <path d="M 43.183594 276.458283 
L 500.185594 276.458283 
" clip-path="url(#p41813f8155)" style="fill: none; stroke: #b0b0b0; stroke-opacity: 0.25; stroke-width: 0.8; stroke-linecap: square"/>
     </g>
     <g id="line2d_6">
      <g>
       <use xlink:href="#mbd3841657d" x="43.183594" y="276.458283" style="stroke: #000000; stroke-width: 0.8"/>
      </g>
     </g>
     <g id="text_4">
      <!-- 5 -->
      <g transform="translate(29.821094 280.257501) scale(0.1 -0.1)">
       <defs>
        <path id="DejaVuSans-35" d="M 691 4666 
L 3169 4666 
L 3169 4134 
L 1269 4134 
L 1269 2991 
Q 1406 3038 1543 3061 
Q 1681 3084 1819 3084 
Q 2600 3084 3056 2656 
Q 3513 2228 3513 1497 
Q 3513 744 3044 326 
Q 2575 -91 1722 -91 
Q 1428 -91 1123 -41 
Q 819 9 494 109 
L 494 744 
Q 775 591 1075 516 
Q 1375 441 1709 441 
Q 2250 441 2565 725 
Q 2881 1009 2881 1497 
Q 2881 1984 2565 2268 
Q 2250 2553 1709 2553 
Q 1456 2553 1204 2497 
Q 953 2441 691 2322 
L 691 4666 
z
" transform="scale(0.015625)"/>
       </defs>
       <use xlink:href="#DejaVuSans-35"/>
      </g>
     </g>
    </g>
    <g id="ytick_3">
     <g id="line2d_7">
      <path d="M 43.183594 225.357065 
L 500.185594 225.357065 
" clip-path="url(#p41813f8155)" style="fill: none; stroke: #b0b0b0; stroke-opacity: 0.25; stroke-width: 0.8; stroke-linecap: square"/>
     </g>
     <g id="line2d_8">
      <g>
       <use xlink:href="#mbd3841657d" x="43.183594" y="225.357065" style="stroke: #000000; stroke-width: 0.8"/>
      </g>
     </g>
     <g id="text_5">
      <!-- 10 -->
      <g transform="translate(23.458594 229.156284) scale(0.1 -0.1)">
       <defs>
        <path id="DejaVuSans-31" d="M 794 531 
L 1825 531 
L 1825 4091 
L 703 3866 
L 703 4441 
L 1819 4666 
L 2450 4666 
L 2450 531 
L 3481 531 
L 3481 0 
L 794 0 
L 794 531 
z
" transform="scale(0.015625)"/>
       </defs>
       <use xlink:href="#DejaVuSans-31"/>
       <use xlink:href="#DejaVuSans-30" x="63.623047"/>
      </g>
     </g>
    </g>
    <g id="ytick_4">
     <g id="line2d_9">
      <path d="M 43.183594 174.255848 
L 500.185594 174.255848 
" clip-path="url(#p41813f8155)" style="fill: none; stroke: #b0b0b0; stroke-opacity: 0.25; stroke-width: 0.8; stroke-linecap: square"/>
     </g>
     <g id="line2d_10">
      <g>
       <use xlink:href="#mbd3841657d" x="43.183594" y="174.255848" style="stroke: #000000; stroke-width: 0.8"/>
      </g>
     </g>
     <g id="text_6">
      <!-- 15 -->
      <g transform="translate(23.458594 178.055067) scale(0.1 -0.1)">
       <use xlink:href="#DejaVuSans-31"/>
       <use xlink:href="#DejaVuSans-35" x="63.623047"/>
      </g>
     </g>
    </g>
    <g id="ytick_5">
     <g id="line2d_11">
      <path d="M 43.183594 123.15463 
L 500.185594 123.15463 
" clip-path="url(#p41813f8155)" style="fill: none; stroke: #b0b0b0; stroke-opacity: 0.25; stroke-width: 0.8; stroke-linecap: square"/>
     </g>
     <g id="line2d_12">
      <g>
       <use xlink:href="#mbd3841657d" x="43.183594" y="123.15463" style="stroke: #000000; stroke-width: 0.8"/>
      </g>
     </g>
     <g id="text_7">
      <!-- 20 -->
      <g transform="translate(23.458594 126.953849) scale(0.1 -0.1)">
       <defs>
        <path id="DejaVuSans-32" d="M 1228 531 
L 3431 531 
L 3431 0 
L 469 0 
L 469 531 
Q 828 903 1448 1529 
Q 2069 2156 2228 2338 
Q 2531 2678 2651 2914 
Q 2772 3150 2772 3378 
Q 2772 3750 2511 3984 
Q 2250 4219 1831 4219 
Q 1534 4219 1204 4116 
Q 875 4013 500 3803 
L 500 4441 
Q 881 4594 1212 4672 
Q 1544 4750 1819 4750 
Q 2544 4750 2975 4387 
Q 3406 4025 3406 3419 
Q 3406 3131 3298 2873 
Q 3191 2616 2906 2266 
Q 2828 2175 2409 1742 
Q 1991 1309 1228 531 
z
" transform="scale(0.015625)"/>
       </defs>
       <use xlink:href="#DejaVuSans-32"/>
       <use xlink:href="#DejaVuSans-30" x="63.623047"/>
      </g>
     </g>
    </g>
    <g id="ytick_6">
     <g id="line2d_13">
      <path d="M 43.183594 72.053413 
L 500.185594 72.053413 
" clip-path="url(#p41813f8155)" style="fill: none; stroke: #b0b0b0; stroke-opacity: 0.25; stroke-width: 0.8; stroke-linecap: square"/>
     </g>
     <g id="line2d_14">
      <g>
       <use xlink:href="#mbd3841657d" x="43.183594" y="72.053413" style="stroke: #000000; stroke-width: 0.8"/>
      </g>
     </g>
     <g id="text_8">
      <!-- 25 -->
      <g transform="translate(23.458594 75.852632) scale(0.1 -0.1)">
       <use xlink:href="#DejaVuSans-32"/>
       <use xlink:href="#DejaVuSans-35" x="63.623047"/>
      </g>
     </g>
    </g>
    <g id="text_9">
     <!-- 连续服务时长（小时） -->
     <g transform="translate(17.73 245.6435) rotate(-90) scale(0.13 -0.13)">
      <defs>
       <path id="STHeitiTC-Medium-8fde" d="M 1069 3565 
Q 1050 3866 970 4179 
Q 890 4493 768 4736 
L 1363 4883 
Q 1459 4627 1552 4323 
Q 1645 4019 1715 3712 
L 1069 3565 
z
M 1075 2400 
Q 941 2400 841 2400 
Q 742 2400 672 2397 
Q 602 2394 541 2387 
Q 480 2381 422 2374 
L 422 2918 
Q 589 2899 742 2892 
Q 896 2886 1037 2886 
Q 1222 2886 1376 2896 
Q 1530 2906 1651 2918 
Q 1638 2829 1628 2717 
Q 1619 2605 1609 2496 
Q 1600 2387 1597 2294 
Q 1594 2202 1594 2150 
L 1594 429 
Q 1792 378 2029 285 
Q 2266 192 2464 83 
Q 2611 0 2979 -45 
Q 3347 -90 3856 -93 
Q 4365 -96 4966 -57 
Q 5568 -19 6182 70 
Q 6067 -154 6025 -298 
Q 5984 -442 5971 -589 
Q 5267 -602 4755 -605 
Q 4243 -608 3868 -598 
Q 3494 -589 3232 -563 
Q 2970 -538 2762 -496 
Q 2554 -454 2368 -387 
Q 2182 -320 1965 -224 
Q 1600 -64 1411 -64 
Q 1222 -64 1094 -186 
Q 960 -314 861 -442 
Q 762 -570 710 -678 
Q 595 -570 480 -486 
Q 365 -403 211 -307 
Q 435 -77 665 118 
Q 896 314 1075 410 
L 1075 2400 
z
M 2880 2694 
L 3846 2694 
Q 3846 2906 3843 3046 
Q 3840 3187 3837 3286 
Q 3834 3386 3824 3450 
Q 3814 3514 3808 3571 
Q 3968 3533 4099 3523 
Q 4230 3514 4390 3520 
Q 4499 3526 4512 3491 
Q 4525 3456 4435 3398 
Q 4384 3366 4365 3280 
Q 4346 3194 4346 3002 
L 4346 2694 
Q 4832 2694 5152 2700 
Q 5472 2707 5670 2733 
L 5670 2246 
Q 5472 2259 5149 2265 
Q 4826 2272 4346 2272 
L 4346 1472 
Q 4845 1478 5203 1488 
Q 5562 1498 5869 1517 
L 5869 1011 
Q 5562 1030 5203 1040 
Q 4845 1050 4346 1056 
Q 4346 851 4349 630 
Q 4352 410 4365 134 
L 3795 134 
Q 3827 435 3836 643 
Q 3846 851 3846 1056 
Q 3526 1056 3264 1053 
Q 3002 1050 2778 1046 
Q 2554 1043 2362 1033 
Q 2170 1024 1990 1011 
L 1990 1517 
Q 2349 1491 2781 1481 
Q 3213 1472 3846 1472 
L 3846 2272 
Q 3290 2259 2896 2230 
Q 2502 2202 2278 2170 
Q 2272 2298 2243 2429 
Q 2214 2560 2157 2675 
Q 2240 2694 2310 2732 
Q 2381 2771 2467 2886 
Q 2554 3002 2678 3222 
Q 2803 3443 2995 3821 
Q 2688 3814 2445 3804 
Q 2202 3795 1990 3782 
L 1990 4288 
Q 2240 4275 2534 4265 
Q 2829 4256 3206 4250 
Q 3354 4544 3427 4742 
Q 3501 4941 3539 5107 
Q 3686 5030 3849 4972 
Q 4013 4915 4122 4896 
Q 4262 4877 4134 4794 
Q 4064 4749 3961 4605 
Q 3859 4461 3731 4243 
L 4307 4243 
Q 4787 4243 5174 4252 
Q 5562 4262 5926 4288 
L 5926 3782 
Q 5562 3808 5174 3817 
Q 4787 3827 4307 3827 
L 3501 3827 
L 2880 2694 
z
" transform="scale(0.015625)"/>
       <path id="STHeitiTC-Medium-7eed" d="M 5581 -666 
Q 5350 -442 5065 -221 
Q 4781 0 4448 192 
L 4698 544 
Q 5146 320 5434 150 
Q 5722 -19 5952 -186 
L 5581 -666 
z
M 2330 666 
Q 2298 563 2288 409 
Q 2278 256 2304 141 
Q 1638 32 1235 -73 
Q 832 -179 595 -301 
Q 589 -166 547 6 
Q 506 179 422 346 
Q 563 352 713 368 
Q 864 384 1075 419 
Q 1286 454 1587 512 
Q 1888 570 2330 666 
z
M 3366 1318 
Q 3315 1382 3219 1478 
Q 3123 1574 3011 1673 
Q 2899 1773 2787 1869 
Q 2675 1965 2592 2022 
L 2861 2317 
Q 2957 2246 3072 2160 
Q 3187 2074 3296 1984 
Q 3405 1894 3507 1804 
Q 3610 1715 3680 1645 
L 3366 1318 
z
M 3693 2074 
Q 3546 2246 3370 2409 
Q 3194 2573 3002 2701 
L 3264 3008 
Q 3469 2867 3657 2720 
Q 3846 2573 4013 2419 
L 3693 2074 
z
M 1075 2739 
Q 986 2726 851 2691 
Q 717 2656 621 2611 
Q 557 2835 448 3066 
Q 538 3117 637 3241 
Q 736 3366 848 3596 
Q 960 3827 1085 4179 
Q 1210 4531 1344 5043 
Q 1504 4973 1661 4912 
Q 1818 4851 1939 4813 
Q 2029 4781 2029 4749 
Q 2029 4717 1958 4691 
Q 1926 4678 1884 4636 
Q 1843 4595 1747 4435 
Q 1651 4275 1472 3961 
Q 1293 3648 986 3091 
L 1766 3149 
Q 1837 3277 1888 3382 
Q 1939 3488 1980 3577 
Q 2022 3667 2054 3750 
Q 2086 3834 2118 3923 
Q 2240 3821 2365 3737 
Q 2490 3654 2560 3629 
Q 2637 3597 2633 3561 
Q 2630 3526 2554 3507 
Q 2534 3501 2496 3459 
Q 2458 3418 2330 3232 
Q 2202 3046 1946 2665 
Q 1690 2285 1235 1606 
Q 1402 1613 1533 1625 
Q 1664 1638 1798 1651 
Q 1933 1664 2080 1680 
Q 2227 1696 2419 1715 
Q 2381 1606 2371 1500 
Q 2362 1395 2368 1286 
L 1389 1203 
Q 1299 1197 1190 1181 
Q 1082 1165 976 1142 
Q 870 1120 784 1101 
Q 698 1082 659 1062 
Q 653 1184 617 1305 
Q 582 1427 531 1530 
Q 595 1562 700 1648 
Q 806 1734 940 1884 
Q 1075 2035 1232 2259 
Q 1389 2483 1568 2790 
L 1075 2739 
z
M 4429 800 
Q 4339 518 4195 304 
Q 4051 90 3840 -86 
Q 3629 -262 3344 -403 
Q 3059 -544 2688 -666 
Q 2618 -557 2522 -441 
Q 2426 -326 2298 -205 
Q 2995 -77 3401 172 
Q 3808 422 3974 800 
Q 3520 800 3158 787 
Q 2797 774 2528 755 
L 2528 1248 
Q 2816 1222 3203 1212 
Q 3590 1203 4090 1203 
Q 4141 1510 4176 1952 
Q 4211 2394 4211 2918 
Q 4352 2899 4502 2889 
Q 4653 2880 4749 2874 
Q 4858 2861 4781 2765 
Q 4768 2752 4752 2707 
Q 4736 2662 4723 2601 
Q 4710 2541 4697 2477 
Q 4685 2413 4678 2355 
Q 4653 2093 4633 1913 
Q 4614 1734 4598 1603 
Q 4582 1472 4569 1379 
Q 4557 1286 4538 1203 
Q 4973 1210 5357 1219 
Q 5741 1229 5978 1248 
L 5978 755 
Q 5728 774 5309 787 
Q 4890 800 4429 800 
z
M 4058 4058 
Q 3654 4051 3337 4041 
Q 3021 4032 2784 4013 
L 2784 4499 
Q 3027 4480 3340 4470 
Q 3654 4461 4058 4454 
Q 4051 4685 4038 4845 
Q 4026 5005 4013 5107 
Q 4141 5094 4297 5084 
Q 4454 5075 4595 5082 
Q 4666 5088 4678 5053 
Q 4691 5018 4621 4966 
Q 4589 4941 4560 4841 
Q 4531 4742 4531 4666 
L 4531 4454 
Q 4954 4454 5293 4467 
Q 5632 4480 5882 4499 
L 5882 4013 
Q 5632 4032 5293 4045 
Q 4954 4058 4531 4058 
L 4531 3552 
Q 4826 3552 5040 3555 
Q 5254 3558 5420 3564 
Q 5587 3571 5715 3580 
Q 5843 3590 5971 3603 
L 5587 2349 
L 5101 2483 
L 5344 3162 
L 4333 3162 
Q 3904 3162 3504 3149 
Q 3104 3136 2746 3104 
L 2746 3603 
Q 2861 3590 2982 3580 
Q 3104 3571 3257 3564 
Q 3411 3558 3603 3555 
Q 3795 3552 4058 3552 
L 4058 4058 
z
" transform="scale(0.015625)"/>
       <path id="STHeitiTC-Medium-670d" d="M 1306 1472 
Q 1286 1210 1244 918 
Q 1203 627 1136 342 
Q 1069 58 982 -204 
Q 896 -467 794 -666 
Q 666 -525 547 -441 
Q 429 -358 307 -301 
Q 582 109 720 781 
Q 858 1453 858 2502 
L 858 3968 
Q 858 4538 819 4787 
Q 928 4774 1027 4768 
Q 1126 4762 1232 4755 
Q 1338 4749 1459 4749 
Q 1581 4749 1728 4749 
Q 2029 4749 2262 4758 
Q 2496 4768 2714 4787 
Q 2701 4659 2688 4460 
Q 2675 4262 2675 3968 
L 2675 6 
Q 2675 -122 2640 -211 
Q 2605 -301 2502 -368 
Q 2400 -435 2221 -483 
Q 2042 -531 1754 -570 
Q 1741 -416 1693 -285 
Q 1645 -154 1530 -6 
Q 1920 -38 2067 26 
Q 2214 90 2214 237 
L 2214 1472 
L 1306 1472 
z
M 2214 4339 
L 1312 4339 
L 1312 3354 
L 2214 3354 
L 2214 4339 
z
M 1312 1869 
L 2214 1869 
L 2214 2976 
L 1312 2976 
L 1312 1869 
z
M 4230 2278 
Q 4262 1869 4345 1549 
Q 4429 1229 4602 954 
Q 4762 1229 4874 1542 
Q 4986 1856 5056 2278 
L 4230 2278 
z
M 3590 2278 
L 3590 -621 
L 3098 -621 
Q 3110 -416 3120 -233 
Q 3130 -51 3133 121 
Q 3136 294 3139 470 
Q 3142 646 3142 845 
L 3142 3968 
Q 3142 4058 3139 4176 
Q 3136 4294 3129 4409 
Q 3123 4525 3116 4624 
Q 3110 4723 3104 4781 
Q 3194 4774 3331 4768 
Q 3469 4762 3632 4758 
Q 3795 4755 3974 4752 
Q 4154 4749 4320 4749 
Q 4480 4749 4649 4752 
Q 4819 4755 4979 4758 
Q 5139 4762 5273 4768 
Q 5408 4774 5504 4781 
Q 5491 4710 5481 4601 
Q 5472 4493 5459 4365 
L 5408 3699 
Q 5395 3514 5334 3395 
Q 5274 3277 5152 3200 
Q 5030 3123 4838 3084 
Q 4646 3046 4371 3027 
Q 4352 3194 4310 3309 
Q 4269 3424 4179 3590 
Q 4403 3539 4550 3542 
Q 4698 3546 4784 3587 
Q 4870 3629 4908 3702 
Q 4947 3776 4954 3866 
L 4992 4326 
L 3590 4326 
L 3590 2694 
L 4666 2694 
Q 4973 2694 5219 2707 
Q 5466 2720 5632 2739 
Q 5542 2317 5462 2013 
Q 5382 1709 5296 1472 
Q 5210 1235 5110 1040 
Q 5011 845 4890 640 
Q 5133 416 5440 275 
Q 5747 134 6086 64 
Q 5766 -186 5651 -461 
Q 5344 -301 5097 -128 
Q 4851 45 4646 262 
Q 4518 77 4355 -102 
Q 4192 -282 3974 -486 
Q 3930 -403 3834 -294 
Q 3738 -186 3629 -115 
Q 3866 51 4042 214 
Q 4218 378 4371 582 
Q 4134 883 4003 1321 
Q 3872 1760 3802 2278 
L 3590 2278 
z
" transform="scale(0.015625)"/>
       <path id="STHeitiTC-Medium-52a1" d="M 3187 1005 
Q 3098 666 2947 419 
Q 2797 173 2544 -25 
Q 2291 -224 1913 -393 
Q 1536 -563 998 -742 
Q 928 -576 825 -432 
Q 723 -288 595 -179 
Q 1030 -122 1372 -32 
Q 1715 58 1971 198 
Q 2227 339 2396 534 
Q 2566 730 2656 1005 
Q 2394 1005 2189 1001 
Q 1984 998 1811 992 
Q 1638 986 1491 976 
Q 1344 966 1203 947 
L 1203 1523 
Q 1331 1510 1472 1500 
Q 1613 1491 1789 1484 
Q 1965 1478 2198 1472 
Q 2432 1466 2752 1466 
Q 2778 1651 2784 1856 
Q 2790 2061 2778 2266 
Q 2976 2214 3142 2188 
Q 3309 2163 3482 2163 
Q 3546 2163 3552 2144 
Q 3558 2125 3488 2074 
Q 3450 2042 3389 1875 
Q 3328 1709 3277 1466 
Q 3718 1466 4022 1469 
Q 4326 1472 4547 1478 
Q 4768 1485 4925 1494 
Q 5082 1504 5235 1523 
L 5158 403 
Q 5139 102 5065 -93 
Q 4992 -288 4845 -409 
Q 4698 -531 4458 -588 
Q 4218 -646 3866 -672 
Q 3814 -486 3737 -339 
Q 3661 -192 3507 -13 
Q 3795 -51 3993 -51 
Q 4192 -51 4323 -3 
Q 4454 45 4518 144 
Q 4582 243 4595 410 
L 4640 1005 
L 3187 1005 
z
M 3680 4525 
Q 3891 4525 4121 4531 
Q 4352 4538 4563 4547 
Q 4774 4557 4947 4569 
Q 5120 4582 5222 4595 
Q 5107 4365 4953 4137 
Q 4800 3910 4614 3699 
Q 4429 3488 4221 3299 
Q 4013 3110 3795 2957 
Q 4237 2739 4793 2627 
Q 5350 2515 6106 2451 
Q 6016 2323 5945 2137 
Q 5875 1952 5862 1824 
Q 5043 1958 4425 2163 
Q 3808 2368 3334 2669 
Q 2963 2458 2617 2298 
Q 2272 2138 1929 2019 
Q 1587 1901 1241 1814 
Q 896 1728 531 1670 
Q 493 1926 288 2189 
Q 1082 2285 1754 2489 
Q 2426 2694 2925 2963 
Q 2669 3168 2461 3417 
Q 2253 3667 2074 3955 
Q 1875 3648 1689 3408 
Q 1504 3168 1312 2944 
Q 1222 3059 1075 3136 
Q 928 3213 774 3232 
Q 986 3373 1184 3597 
Q 1382 3821 1555 4089 
Q 1728 4358 1862 4665 
Q 1997 4973 2080 5286 
Q 2253 5197 2448 5126 
Q 2643 5056 2797 5030 
Q 2886 5018 2886 4970 
Q 2886 4922 2803 4909 
Q 2733 4896 2649 4816 
Q 2566 4736 2419 4525 
L 3680 4525 
z
M 3347 3226 
Q 3565 3386 3830 3629 
Q 4096 3872 4314 4115 
L 2477 4115 
Q 2688 3827 2899 3609 
Q 3110 3392 3347 3226 
z
" transform="scale(0.015625)"/>
       <path id="STHeitiTC-Medium-65f6" d="M 3488 1306 
Q 3450 1446 3398 1606 
Q 3347 1766 3289 1926 
Q 3232 2086 3171 2236 
Q 3110 2387 3053 2515 
L 3571 2694 
Q 3597 2560 3648 2406 
Q 3699 2253 3763 2096 
Q 3827 1939 3904 1788 
Q 3981 1638 4058 1510 
L 3488 1306 
z
M 4666 3731 
Q 4666 4301 4650 4646 
Q 4634 4992 4595 5197 
Q 4749 5178 4928 5168 
Q 5107 5158 5216 5165 
Q 5318 5171 5340 5136 
Q 5363 5101 5306 5069 
Q 5235 5030 5212 4969 
Q 5190 4909 5190 4819 
L 5190 3738 
Q 5408 3744 5600 3757 
Q 5792 3770 5958 3782 
L 5958 3194 
Q 5798 3213 5606 3222 
Q 5414 3232 5190 3238 
L 5190 19 
Q 5190 -166 5155 -288 
Q 5120 -410 4998 -483 
Q 4877 -557 4653 -601 
Q 4429 -646 4045 -678 
Q 4006 -288 3776 6 
Q 4064 -13 4240 -9 
Q 4416 -6 4512 16 
Q 4608 38 4637 86 
Q 4666 134 4666 211 
L 4666 3245 
L 3891 3245 
Q 3533 3245 3225 3232 
Q 2918 3219 2682 3194 
L 2682 3782 
Q 2912 3757 3225 3744 
Q 3539 3731 3891 3731 
L 4666 3731 
z
M 2010 4090 
L 979 4090 
L 979 2765 
L 2010 2765 
L 2010 4090 
z
M 2010 2317 
L 979 2317 
L 979 998 
L 2010 998 
L 2010 2317 
z
M 979 -288 
L 442 -288 
Q 474 -26 480 176 
Q 486 378 486 563 
L 486 3885 
Q 486 4051 480 4249 
Q 474 4448 448 4595 
Q 595 4563 835 4553 
Q 1075 4544 1498 4544 
Q 1914 4544 2157 4553 
Q 2400 4563 2541 4595 
Q 2515 4454 2508 4252 
Q 2502 4051 2502 3885 
L 2502 832 
Q 2502 608 2512 419 
Q 2522 230 2547 -13 
L 2010 -13 
L 2010 570 
L 979 570 
L 979 -288 
z
" transform="scale(0.015625)"/>
       <path id="STHeitiTC-Medium-957f" d="M 5299 4749 
Q 5421 4704 5261 4621 
Q 5152 4563 5017 4457 
Q 4883 4352 4704 4154 
Q 4627 4064 4473 3917 
Q 4320 3770 4137 3603 
Q 3955 3437 3766 3270 
Q 3578 3104 3418 2982 
Q 3354 3053 3219 3155 
Q 3085 3258 2938 3328 
Q 3232 3501 3504 3725 
Q 3776 3949 4003 4189 
Q 4230 4429 4400 4662 
Q 4570 4896 4666 5094 
Q 4774 5011 4953 4915 
Q 5133 4819 5299 4749 
z
M 2246 224 
Q 2342 275 2470 364 
Q 2598 454 2732 553 
Q 2867 653 2988 749 
Q 3110 845 3187 915 
Q 3181 768 3225 637 
Q 3270 506 3354 416 
Q 3034 192 2790 22 
Q 2547 -147 2364 -281 
Q 2182 -416 2057 -521 
Q 1933 -627 1856 -717 
Q 1760 -550 1651 -412 
Q 1542 -275 1440 -166 
Q 1510 -96 1561 -6 
Q 1613 83 1641 208 
Q 1670 333 1683 505 
Q 1696 678 1696 915 
L 1696 2221 
Q 1414 2221 1206 2214 
Q 998 2208 838 2205 
Q 678 2202 563 2192 
Q 448 2182 358 2176 
L 358 2739 
Q 448 2726 563 2720 
Q 678 2714 838 2710 
Q 998 2707 1209 2700 
Q 1421 2694 1696 2694 
L 1696 3808 
Q 1696 4243 1689 4576 
Q 1683 4909 1670 5056 
Q 1747 5043 1843 5030 
Q 1939 5018 2032 5014 
Q 2125 5011 2195 5008 
Q 2266 5005 2298 5011 
Q 2374 5024 2403 4989 
Q 2432 4954 2381 4883 
Q 2246 4691 2246 4365 
L 2246 2694 
L 4173 2694 
Q 4557 2694 4848 2697 
Q 5139 2701 5353 2704 
Q 5568 2707 5718 2716 
Q 5869 2726 5984 2739 
L 5984 2176 
Q 5773 2202 5353 2211 
Q 4934 2221 4166 2221 
L 3667 2221 
Q 3802 1798 4064 1475 
Q 4326 1152 4656 918 
Q 4986 685 5347 544 
Q 5709 403 6035 358 
Q 5722 160 5594 -288 
Q 5139 -96 4761 134 
Q 4384 365 4086 662 
Q 3789 960 3565 1341 
Q 3341 1722 3187 2221 
L 2246 2221 
L 2246 224 
z
" transform="scale(0.015625)"/>
       <path id="STHeitiTC-Medium-ff08" d="M 5651 -749 
L 5274 -749 
Q 4646 173 4409 835 
Q 4173 1498 4173 2266 
Q 4173 3034 4432 3750 
Q 4691 4467 5254 5267 
L 5645 5267 
Q 5082 4237 4928 3606 
Q 4774 2976 4774 2093 
Q 4774 1472 4953 861 
Q 5133 250 5651 -749 
z
" transform="scale(0.015625)"/>
       <path id="STHeitiTC-Medium-5c0f" d="M 3616 4883 
Q 3526 4832 3504 4729 
Q 3482 4627 3482 4454 
L 3482 205 
Q 3482 0 3453 -121 
Q 3424 -243 3309 -323 
Q 3194 -403 2970 -451 
Q 2746 -499 2355 -550 
Q 2330 -390 2275 -236 
Q 2221 -83 2099 102 
Q 2374 90 2534 99 
Q 2694 109 2777 141 
Q 2861 173 2883 227 
Q 2906 282 2906 371 
L 2906 4019 
Q 2906 4384 2893 4649 
Q 2880 4915 2854 5050 
Q 3002 5030 3206 5030 
Q 3411 5030 3578 5043 
Q 3667 5050 3676 4992 
Q 3686 4934 3616 4883 
z
M 5427 973 
Q 5325 1261 5190 1565 
Q 5056 1869 4905 2166 
Q 4755 2464 4595 2745 
Q 4435 3027 4275 3270 
L 4787 3488 
Q 4941 3258 5104 2986 
Q 5267 2714 5430 2422 
Q 5594 2131 5747 1830 
Q 5901 1530 6035 1242 
L 5427 973 
z
M 2010 3162 
Q 1914 3104 1805 2771 
Q 1728 2528 1625 2272 
Q 1523 2016 1411 1773 
Q 1299 1530 1177 1306 
Q 1056 1082 934 902 
Q 800 973 665 1014 
Q 531 1056 365 1082 
Q 749 1613 1008 2233 
Q 1267 2854 1376 3507 
Q 1542 3443 1712 3401 
Q 1882 3360 1990 3347 
Q 2118 3334 2124 3283 
Q 2131 3232 2010 3162 
z
" transform="scale(0.015625)"/>
       <path id="STHeitiTC-Medium-ff09" d="M 1120 5267 
Q 1747 4346 1984 3683 
Q 2221 3021 2221 2253 
Q 2221 1485 1961 768 
Q 1702 51 1139 -749 
L 749 -749 
Q 1312 282 1465 912 
Q 1619 1542 1619 2426 
Q 1619 3046 1440 3657 
Q 1261 4269 742 5267 
L 1120 5267 
z
" transform="scale(0.015625)"/>
      </defs>
      <use xlink:href="#STHeitiTC-Medium-8fde"/>
      <use xlink:href="#STHeitiTC-Medium-7eed" x="99.999985"/>
      <use xlink:href="#STHeitiTC-Medium-670d" x="199.999969"/>
      <use xlink:href="#STHeitiTC-Medium-52a1" x="299.999954"/>
      <use xlink:href="#STHeitiTC-Medium-65f6" x="399.999939"/>
      <use xlink:href="#STHeitiTC-Medium-957f" x="499.999924"/>
      <use xlink:href="#STHeitiTC-Medium-ff08" x="599.999908"/>
      <use xlink:href="#STHeitiTC-Medium-5c0f" x="699.999893"/>
      <use xlink:href="#STHeitiTC-Medium-65f6" x="799.999878"/>
      <use xlink:href="#STHeitiTC-Medium-ff09" x="899.999863"/>
     </g>
    </g>
   </g>
   <g id="patch_5">
    <path d="M 43.183594 327.5595 
L 43.183594 33.7275 
" style="fill: none; stroke: #000000; stroke-width: 0.8; stroke-linejoin: miter; stroke-linecap: square"/>
   </g>
   <g id="patch_6">
    <path d="M 500.185594 327.5595 
L 500.185594 33.7275 
" style="fill: none; stroke: #000000; stroke-width: 0.8; stroke-linejoin: miter; stroke-linecap: square"/>
   </g>
   <g id="patch_7">
    <path d="M 43.183594 327.5595 
L 500.185594 327.5595 
" style="fill: none; stroke: #000000; stroke-width: 0.8; stroke-linejoin: miter; stroke-linecap: square"/>
   </g>
   <g id="patch_8">
    <path d="M 43.183594 33.7275 
L 500.185594 33.7275 
" style="fill: none; stroke: #000000; stroke-width: 0.8; stroke-linejoin: miter; stroke-linecap: square"/>
   </g>
   <g id="text_10">
    <!-- 8h -->
    <g transform="translate(149.295673 239.091805) scale(0.12 -0.12)">
     <defs>
      <path id="STHeitiTC-Medium-38" d="M 2547 2950 
Q 3373 2522 3373 1747 
Q 3373 1114 2928 691 
Q 2483 269 1763 269 
Q 1043 269 608 691 
Q 173 1114 173 1709 
Q 173 2515 1018 2950 
Q 390 3315 390 3942 
Q 390 4435 800 4809 
Q 1210 5184 1782 5184 
Q 2355 5184 2758 4819 
Q 3162 4454 3162 3930 
Q 3162 3322 2547 2950 
z
M 1792 3181 
Q 2118 3181 2364 3411 
Q 2611 3642 2611 3939 
Q 2611 4237 2380 4445 
Q 2150 4653 1785 4653 
Q 1421 4653 1184 4445 
Q 947 4237 947 3939 
Q 947 3642 1203 3411 
Q 1459 3181 1792 3181 
z
M 1773 794 
Q 2234 794 2528 1069 
Q 2822 1344 2822 1728 
Q 2822 2112 2518 2393 
Q 2214 2675 1782 2675 
Q 1350 2675 1036 2384 
Q 723 2093 723 1699 
Q 723 1306 1014 1050 
Q 1306 794 1773 794 
z
" transform="scale(0.015625)"/>
      <path id="STHeitiTC-Medium-68" d="M 3501 384 
L 2970 384 
L 2970 2048 
Q 2970 2534 2941 2732 
Q 2912 2931 2809 3107 
Q 2707 3283 2531 3376 
Q 2355 3469 2108 3469 
Q 1862 3469 1638 3353 
Q 1414 3238 1254 3033 
Q 1094 2829 1033 2598 
Q 973 2368 973 1677 
L 973 384 
L 442 384 
L 442 5184 
L 973 5184 
L 973 3347 
Q 1491 3962 2202 3962 
Q 2579 3962 2886 3766 
Q 3194 3571 3347 3228 
Q 3501 2886 3501 2176 
L 3501 384 
z
" transform="scale(0.015625)"/>
     </defs>
     <use xlink:href="#STHeitiTC-Medium-38"/>
     <use xlink:href="#STHeitiTC-Medium-68" x="55.399994"/>
    </g>
   </g>
   <g id="text_11">
    <!-- 25h -->
    <g transform="translate(376.780389 65.347666) scale(0.12 -0.12)">
     <defs>
      <path id="STHeitiTC-Medium-32" d="M 3360 384 
L 90 384 
L 1914 2355 
Q 2374 2842 2566 3123 
Q 2758 3405 2758 3763 
Q 2758 4122 2480 4390 
Q 2202 4659 1789 4659 
Q 1376 4659 1101 4368 
Q 826 4077 787 3539 
L 256 3539 
Q 288 4294 736 4739 
Q 1184 5184 1821 5184 
Q 2458 5184 2877 4771 
Q 3296 4358 3296 3763 
Q 3296 3328 3065 2950 
Q 2835 2573 2368 2074 
L 1293 915 
L 3360 915 
L 3360 384 
z
" transform="scale(0.015625)"/>
     </defs>
     <use xlink:href="#STHeitiTC-Medium-32"/>
     <use xlink:href="#STHeitiTC-Medium-35" x="55.399994"/>
     <use xlink:href="#STHeitiTC-Medium-68" x="110.799988"/>
    </g>
   </g>
   <g id="text_12">
    <!-- 图 6：从“长窗口”转向“长时服务”的产品信号 -->
    <g transform="translate(97.252094 21.7275) scale(0.16 -0.16)">
     <defs>
      <path id="STHeitiTC-Medium-56fe" d="M 3846 211 
Q 3501 390 3094 544 
Q 2688 698 2259 800 
L 2464 1178 
Q 2886 1069 3296 934 
Q 3706 800 4109 614 
L 3846 211 
z
M 3834 1120 
Q 3565 1248 3277 1353 
Q 2989 1459 2701 1549 
L 2899 1875 
Q 3206 1805 3478 1715 
Q 3750 1626 4026 1517 
L 3834 1120 
z
M 5107 4358 
L 1261 4358 
L 1261 122 
L 5107 122 
L 5107 4358 
z
M 1261 -602 
L 704 -602 
Q 730 -333 742 -83 
Q 755 166 755 454 
L 755 4070 
Q 755 4262 748 4473 
Q 742 4685 717 4870 
Q 838 4851 1008 4838 
Q 1178 4826 1456 4816 
Q 1734 4806 2153 4803 
Q 2573 4800 3200 4800 
Q 3827 4800 4256 4806 
Q 4685 4813 4966 4822 
Q 5248 4832 5414 4845 
Q 5581 4858 5683 4870 
Q 5658 4698 5648 4477 
Q 5638 4256 5638 4070 
L 5638 499 
Q 5638 358 5641 236 
Q 5645 115 5651 -9 
Q 5658 -134 5667 -265 
Q 5677 -397 5690 -557 
L 5107 -557 
L 5107 -301 
L 1261 -301 
L 1261 -602 
z
M 3290 2278 
Q 3117 2163 2918 2051 
Q 2720 1939 2509 1849 
Q 2298 1760 2090 1693 
Q 1882 1626 1696 1587 
Q 1645 1690 1574 1805 
Q 1504 1920 1427 2029 
Q 1888 2061 2265 2189 
Q 2643 2317 2963 2522 
Q 2803 2656 2672 2800 
Q 2541 2944 2438 3104 
Q 2349 2989 2249 2864 
Q 2150 2739 2029 2605 
Q 1926 2682 1824 2739 
Q 1722 2797 1606 2848 
Q 1958 3117 2227 3462 
Q 2496 3808 2694 4269 
Q 2822 4198 2931 4160 
Q 3040 4122 3130 4109 
Q 3347 4070 3181 3974 
Q 3085 3917 2950 3782 
L 4582 3782 
Q 4474 3565 4365 3389 
Q 4256 3213 4137 3065 
Q 4019 2918 3891 2787 
Q 3763 2656 3616 2534 
Q 3942 2368 4294 2278 
Q 4646 2189 5030 2144 
Q 4819 1888 4730 1613 
Q 4346 1722 3981 1891 
Q 3616 2061 3290 2278 
z
M 3270 2746 
Q 3456 2899 3609 3078 
Q 3763 3258 3866 3411 
L 2662 3411 
Q 2656 3398 2649 3392 
Q 2643 3386 2637 3373 
Q 2771 3187 2931 3030 
Q 3091 2874 3270 2746 
z
" transform="scale(0.015625)"/>
      <path id="STHeitiTC-Medium-36" d="M 1594 3098 
Q 1798 3155 1984 3155 
Q 2515 3155 2912 2732 
Q 3309 2310 3309 1708 
Q 3309 1107 2880 688 
Q 2451 269 1830 269 
Q 1210 269 797 691 
Q 384 1114 384 1722 
Q 384 2016 499 2326 
Q 614 2637 915 3085 
L 2336 5203 
L 2797 4915 
L 1594 3098 
z
M 1843 806 
Q 2221 806 2493 1075 
Q 2765 1344 2765 1728 
Q 2765 2112 2496 2381 
Q 2227 2650 1843 2650 
Q 1459 2650 1190 2381 
Q 922 2112 922 1728 
Q 922 1344 1194 1075 
Q 1466 806 1843 806 
z
" transform="scale(0.015625)"/>
      <path id="STHeitiTC-Medium-ff1a" d="M 3398 3008 
L 2733 3008 
L 2733 3686 
L 3398 3686 
L 3398 3008 
z
M 3398 384 
L 2733 384 
L 2733 1062 
L 3398 1062 
L 3398 384 
z
" transform="scale(0.015625)"/>
      <path id="STHeitiTC-Medium-4ece" d="M 4314 2189 
Q 3910 410 2502 -653 
Q 2400 -512 2259 -406 
Q 2118 -301 1939 -250 
Q 2502 122 2867 493 
Q 3232 864 3453 1283 
Q 3674 1702 3776 2192 
Q 3878 2682 3917 3290 
Q 3962 4019 3952 4454 
Q 3942 4890 3910 5043 
Q 4058 4998 4243 4969 
Q 4429 4941 4678 4928 
Q 4768 4922 4777 4880 
Q 4787 4838 4710 4787 
Q 4640 4736 4569 4425 
Q 4499 4115 4486 3597 
Q 4474 3296 4448 3008 
Q 4563 2336 4694 1875 
Q 4826 1414 5018 1097 
Q 5210 781 5482 573 
Q 5754 365 6138 198 
Q 5990 51 5878 -125 
Q 5766 -301 5696 -486 
Q 5338 -198 5094 70 
Q 4851 339 4694 646 
Q 4538 954 4448 1325 
Q 4358 1696 4314 2189 
z
M 2022 2016 
Q 1856 1280 1561 726 
Q 1267 173 845 -250 
Q 762 -134 592 -6 
Q 422 122 256 179 
Q 589 397 835 659 
Q 1082 922 1254 1277 
Q 1427 1632 1526 2102 
Q 1626 2573 1664 3213 
Q 1709 3936 1699 4339 
Q 1690 4742 1651 4922 
Q 1971 4851 2406 4851 
Q 2496 4851 2509 4816 
Q 2522 4781 2438 4730 
Q 2406 4710 2371 4592 
Q 2336 4474 2307 4301 
Q 2278 4128 2252 3923 
Q 2227 3718 2221 3520 
Q 2189 2989 2125 2528 
Q 2406 2278 2691 1980 
Q 2976 1683 3200 1414 
L 2797 954 
Q 2650 1197 2442 1485 
Q 2234 1773 2022 2016 
z
" transform="scale(0.015625)"/>
      <path id="STHeitiTC-Medium-201c" d="M 6144 5638 
Q 5779 5434 5619 5130 
Q 5459 4826 5459 4256 
L 5843 4256 
L 5843 3603 
L 5037 3603 
Q 5037 4730 5267 5130 
Q 5498 5530 6067 5811 
L 6144 5638 
z
M 4845 5638 
Q 4480 5434 4323 5133 
Q 4166 4832 4166 4256 
L 4550 4256 
L 4550 3603 
L 3744 3603 
Q 3744 4723 3974 5126 
Q 4205 5530 4768 5811 
L 4845 5638 
z
" transform="scale(0.015625)"/>
      <path id="STHeitiTC-Medium-7a97" d="M 2534 1587 
Q 2650 1530 2781 1462 
Q 2912 1395 3043 1328 
Q 3174 1261 3283 1203 
Q 3392 1146 3456 1107 
Q 3603 1235 3712 1379 
Q 3821 1523 3891 1677 
L 2598 1677 
Q 2586 1651 2566 1632 
Q 2547 1613 2534 1587 
z
M 4832 2438 
L 1574 2438 
L 1574 96 
L 4832 96 
L 4832 2438 
z
M 2662 2829 
Q 2752 3053 2790 3190 
Q 2829 3328 2842 3469 
Q 2963 3437 3107 3414 
Q 3251 3392 3366 3386 
Q 3437 3379 3446 3344 
Q 3456 3309 3392 3270 
Q 3354 3245 3296 3158 
Q 3238 3072 3110 2829 
Q 3738 2829 4134 2829 
Q 4531 2829 4771 2835 
Q 5011 2842 5136 2845 
Q 5261 2848 5338 2861 
Q 5325 2778 5321 2630 
Q 5318 2483 5318 2176 
L 5318 160 
Q 5318 -141 5328 -291 
Q 5338 -442 5357 -589 
L 4832 -589 
L 4832 -294 
L 1574 -294 
L 1574 -710 
L 1043 -710 
Q 1056 -627 1062 -560 
Q 1069 -493 1075 -413 
Q 1082 -333 1082 -227 
Q 1082 -122 1082 38 
L 1082 2176 
Q 1082 2483 1078 2630 
Q 1075 2778 1062 2861 
Q 1133 2848 1238 2845 
Q 1344 2842 1523 2835 
Q 1702 2829 1977 2829 
Q 2253 2829 2662 2829 
z
M 2304 1318 
Q 2170 1171 2074 1094 
Q 1933 1229 1670 1286 
Q 1805 1376 1949 1504 
Q 2093 1632 2224 1779 
Q 2355 1926 2457 2083 
Q 2560 2240 2605 2381 
Q 2714 2336 2806 2313 
Q 2899 2291 3021 2278 
Q 3085 2266 3085 2234 
Q 3085 2202 3014 2176 
Q 2957 2157 2931 2131 
Q 2906 2106 2848 2029 
L 3885 2029 
Q 4192 2029 4317 2035 
Q 4442 2042 4506 2054 
Q 4390 1715 4220 1427 
Q 4051 1139 3814 902 
Q 3853 877 3917 838 
Q 3981 800 4054 755 
Q 4128 710 4208 659 
Q 4288 608 4365 563 
L 4109 224 
Q 4064 262 3984 316 
Q 3904 371 3814 428 
Q 3725 486 3638 540 
Q 3552 595 3494 634 
Q 3219 442 2870 320 
Q 2522 198 2086 128 
Q 2035 237 1974 313 
Q 1914 390 1830 474 
Q 2234 525 2550 624 
Q 2867 723 3110 864 
Q 3002 928 2787 1056 
Q 2573 1184 2304 1318 
z
M 2829 4083 
Q 2861 4064 2893 4045 
Q 2925 4026 2957 4006 
Q 3021 3974 3005 3926 
Q 2989 3878 2899 3878 
Q 2816 3878 2755 3852 
Q 2694 3827 2579 3738 
Q 2272 3507 1862 3276 
Q 1453 3046 1030 2886 
Q 973 2995 899 3100 
Q 826 3206 704 3296 
Q 1152 3386 1581 3590 
Q 2010 3795 2323 4083 
L 1037 4083 
L 1037 3437 
L 518 3437 
L 518 4538 
Q 691 4525 896 4518 
Q 1101 4512 1389 4509 
Q 1677 4506 2070 4502 
Q 2464 4499 3014 4499 
Q 2963 4640 2896 4784 
Q 2829 4928 2752 5056 
L 3334 5203 
Q 3424 5011 3488 4841 
Q 3552 4672 3616 4499 
Q 4102 4499 4457 4502 
Q 4813 4506 5072 4509 
Q 5331 4512 5523 4518 
Q 5715 4525 5882 4538 
L 5882 3635 
L 5363 3635 
L 5363 4083 
L 4160 4083 
L 4160 3712 
Q 4160 3590 4240 3539 
Q 4320 3488 4550 3488 
Q 4736 3488 4995 3520 
Q 5254 3552 5440 3603 
Q 5402 3501 5389 3369 
Q 5376 3238 5389 3149 
Q 5248 3117 4982 3104 
Q 4717 3091 4352 3091 
Q 4128 3091 3997 3113 
Q 3866 3136 3798 3181 
Q 3731 3226 3708 3296 
Q 3686 3366 3686 3469 
L 3686 4083 
L 2829 4083 
z
" transform="scale(0.015625)"/>
      <path id="STHeitiTC-Medium-53e3" d="M 4781 800 
L 4781 4026 
L 1619 4026 
L 1619 800 
L 4781 800 
z
M 1619 294 
L 1619 -256 
L 973 -256 
Q 998 -13 1008 217 
Q 1018 448 1018 710 
L 1018 4045 
Q 1018 4218 1008 4333 
Q 998 4448 973 4570 
Q 1056 4557 1187 4550 
Q 1318 4544 1561 4541 
Q 1805 4538 2201 4534 
Q 2598 4531 3206 4531 
Q 3814 4531 4204 4534 
Q 4595 4538 4841 4541 
Q 5088 4544 5216 4550 
Q 5344 4557 5427 4570 
Q 5402 4448 5395 4329 
Q 5389 4211 5389 4045 
L 5389 774 
Q 5389 512 5398 278 
Q 5408 45 5427 -192 
L 4781 -192 
L 4781 294 
L 1619 294 
z
" transform="scale(0.015625)"/>
      <path id="STHeitiTC-Medium-201d" d="M 2656 5702 
Q 2656 4582 2425 4179 
Q 2195 3776 1632 3494 
L 1555 3654 
Q 1914 3859 2074 4163 
Q 2234 4467 2234 5037 
L 1850 5037 
L 1850 5702 
L 2656 5702 
z
M 1363 5702 
Q 1363 4576 1132 4176 
Q 902 3776 333 3494 
L 256 3654 
Q 621 3859 781 4166 
Q 941 4474 941 5037 
L 557 5037 
L 557 5702 
L 1363 5702 
z
" transform="scale(0.015625)"/>
      <path id="STHeitiTC-Medium-8f6c" d="M 1594 2413 
Q 1587 2758 1574 2998 
Q 1562 3238 1549 3379 
Q 1606 3366 1683 3360 
Q 1760 3354 1843 3347 
Q 1926 3341 2006 3337 
Q 2086 3334 2144 3334 
Q 2208 3334 2211 3308 
Q 2214 3283 2163 3258 
Q 2125 3238 2102 3196 
Q 2080 3155 2080 3078 
L 2080 2413 
Q 2285 2419 2409 2428 
Q 2534 2438 2656 2464 
L 2656 1984 
Q 2566 1997 2425 2003 
Q 2285 2010 2080 2016 
L 2080 1126 
Q 2381 1178 2576 1219 
Q 2771 1261 2880 1293 
Q 2848 1165 2835 1021 
Q 2822 877 2822 768 
Q 2714 755 2547 732 
Q 2381 710 2080 666 
Q 2080 288 2093 -41 
Q 2106 -371 2138 -710 
L 1536 -710 
Q 1568 -384 1581 -73 
Q 1594 237 1594 589 
Q 1210 518 947 454 
Q 685 390 499 320 
Q 480 461 448 643 
Q 416 826 384 966 
Q 480 966 624 976 
Q 768 986 937 998 
Q 1107 1011 1276 1024 
Q 1446 1037 1594 1056 
L 1594 2010 
Q 1222 1997 979 1968 
Q 736 1939 563 1894 
Q 506 2150 352 2374 
Q 410 2413 474 2486 
Q 538 2560 618 2713 
Q 698 2867 797 3126 
Q 896 3386 1030 3789 
Q 794 3782 678 3772 
Q 563 3763 448 3744 
L 448 4282 
Q 576 4256 736 4246 
Q 896 4237 1171 4230 
Q 1274 4563 1322 4784 
Q 1370 5005 1382 5210 
Q 1459 5178 1548 5149 
Q 1638 5120 1728 5091 
Q 1818 5062 1898 5040 
Q 1978 5018 2035 5005 
Q 2170 4973 2029 4883 
Q 2003 4870 1974 4832 
Q 1946 4794 1907 4717 
Q 1869 4640 1817 4521 
Q 1766 4403 1690 4230 
Q 2118 4230 2352 4243 
Q 2586 4256 2733 4282 
L 2733 3744 
Q 2656 3757 2576 3766 
Q 2496 3776 2368 3779 
Q 2240 3782 2035 3785 
Q 1830 3789 1510 3789 
L 986 2413 
L 1594 2413 
z
M 4640 134 
Q 4819 0 4988 -137 
Q 5158 -275 5344 -429 
L 4922 -870 
Q 4698 -646 4506 -464 
Q 4314 -282 4122 -125 
Q 3930 32 3722 176 
Q 3514 320 3264 467 
L 3578 858 
Q 3782 730 3948 618 
Q 4115 506 4262 403 
L 4915 1350 
L 3341 1350 
Q 3392 1594 3443 1843 
Q 3494 2093 3558 2490 
Q 3328 2477 3097 2467 
Q 2867 2458 2733 2432 
L 2733 2976 
Q 2893 2957 3139 2944 
Q 3386 2931 3616 2925 
Q 3648 3162 3670 3357 
Q 3693 3552 3718 3718 
Q 3514 3712 3296 3699 
Q 3078 3686 2957 3667 
L 2957 4211 
Q 3021 4198 3117 4188 
Q 3213 4179 3321 4172 
Q 3430 4166 3548 4160 
Q 3667 4154 3770 4154 
Q 3795 4352 3808 4496 
Q 3821 4640 3830 4752 
Q 3840 4864 3846 4957 
Q 3853 5050 3853 5146 
Q 4013 5094 4192 5062 
Q 4371 5030 4474 5030 
Q 4550 5030 4556 5001 
Q 4563 4973 4474 4890 
Q 4454 4877 4438 4838 
Q 4422 4800 4400 4717 
Q 4378 4634 4349 4496 
Q 4320 4358 4288 4147 
L 4973 4147 
Q 5158 4147 5334 4163 
Q 5510 4179 5677 4211 
L 5677 3667 
Q 5338 3725 4973 3725 
L 4218 3725 
Q 4192 3558 4163 3360 
Q 4134 3162 4102 2918 
L 5184 2918 
Q 5645 2918 6042 2976 
L 6042 2432 
Q 5843 2464 5625 2480 
Q 5408 2496 5184 2496 
L 4045 2496 
Q 4026 2336 4003 2160 
Q 3981 1984 3955 1792 
L 4992 1792 
Q 5434 1792 5734 1830 
L 5734 1389 
Q 5619 1344 5478 1232 
Q 5338 1120 5248 992 
L 4640 134 
z
" transform="scale(0.015625)"/>
      <path id="STHeitiTC-Medium-5411" d="M 3731 2330 
L 2541 2330 
L 2541 1158 
L 3731 1158 
L 3731 2330 
z
M 4256 698 
Q 4045 710 3789 716 
Q 3533 723 3136 723 
Q 2739 723 2483 716 
Q 2227 710 2016 691 
Q 2042 934 2051 1190 
Q 2061 1446 2054 1754 
Q 2054 2048 2044 2339 
Q 2035 2630 2016 2816 
Q 2234 2790 2486 2780 
Q 2739 2771 3136 2771 
Q 3533 2771 3785 2780 
Q 4038 2790 4256 2816 
Q 4243 2630 4233 2329 
Q 4224 2029 4224 1754 
Q 4224 1459 4230 1180 
Q 4237 902 4256 698 
z
M 2131 4083 
Q 2214 4314 2268 4579 
Q 2323 4845 2336 5126 
Q 2419 5094 2521 5068 
Q 2624 5043 2729 5020 
Q 2835 4998 2937 4985 
Q 3040 4973 3117 4966 
Q 3315 4954 3155 4838 
Q 3046 4762 2921 4566 
Q 2797 4371 2662 4083 
L 3802 4083 
Q 4256 4083 4569 4089 
Q 4883 4096 5097 4109 
Q 5312 4122 5446 4138 
Q 5581 4154 5677 4173 
Q 5645 3968 5638 3673 
Q 5632 3379 5632 2989 
L 5632 51 
Q 5632 -109 5603 -217 
Q 5574 -326 5468 -400 
Q 5363 -474 5161 -522 
Q 4960 -570 4621 -614 
Q 4608 -448 4560 -313 
Q 4512 -179 4371 26 
Q 4602 6 4746 19 
Q 4890 32 4970 70 
Q 5050 109 5075 176 
Q 5101 243 5101 333 
L 5101 3622 
L 1318 3622 
L 1318 -595 
L 723 -595 
Q 742 -403 755 -230 
Q 768 -58 777 121 
Q 787 301 790 499 
Q 794 698 794 941 
L 794 2989 
Q 794 3392 781 3670 
Q 768 3949 742 4173 
Q 826 4154 934 4141 
Q 1043 4128 1206 4115 
Q 1370 4102 1594 4092 
Q 1818 4083 2131 4083 
z
" transform="scale(0.015625)"/>
      <path id="STHeitiTC-Medium-7684" d="M 4032 1120 
Q 3994 1267 3933 1433 
Q 3872 1600 3798 1760 
Q 3725 1920 3648 2064 
Q 3571 2208 3494 2317 
L 4013 2541 
Q 4064 2413 4131 2265 
Q 4198 2118 4275 1971 
Q 4352 1824 4435 1680 
Q 4518 1536 4595 1414 
L 4032 1120 
z
M 5107 3981 
Q 5293 3981 5501 3997 
Q 5709 4013 5830 4032 
Q 5805 3891 5795 3728 
Q 5786 3565 5779 3398 
L 5645 179 
Q 5638 6 5574 -131 
Q 5510 -269 5369 -374 
Q 5229 -480 4995 -547 
Q 4762 -614 4410 -640 
Q 4390 -467 4300 -265 
Q 4211 -64 4058 70 
Q 4384 32 4585 38 
Q 4787 45 4902 93 
Q 5018 141 5062 233 
Q 5107 326 5114 467 
L 5235 3488 
L 3878 3488 
Q 3770 3174 3654 2937 
Q 3539 2701 3398 2445 
Q 3155 2694 2925 2765 
Q 3200 3130 3417 3702 
Q 3635 4275 3770 5056 
Q 3904 5005 4096 4973 
Q 4288 4941 4435 4947 
Q 4525 4954 4531 4906 
Q 4538 4858 4442 4787 
Q 4371 4736 4262 4512 
Q 4154 4288 4045 3981 
L 5107 3981 
z
M 2304 3469 
L 1152 3469 
L 1152 2342 
L 2304 2342 
L 2304 3469 
z
M 2304 1907 
L 1152 1907 
L 1152 634 
L 2304 634 
L 2304 1907 
z
M 1152 -422 
L 563 -422 
Q 582 -275 592 -156 
Q 602 -38 605 67 
Q 608 173 611 278 
Q 614 384 614 518 
L 614 3379 
Q 614 3526 604 3683 
Q 595 3840 570 3962 
Q 698 3949 870 3939 
Q 1043 3930 1235 3917 
Q 1363 4576 1363 5062 
Q 1517 5024 1709 4998 
Q 1901 4973 2054 4966 
Q 2131 4960 2137 4918 
Q 2144 4877 2067 4806 
Q 2029 4774 1997 4723 
Q 1965 4672 1929 4573 
Q 1894 4474 1849 4317 
Q 1805 4160 1741 3910 
Q 2099 3910 2374 3920 
Q 2650 3930 2893 3962 
Q 2867 3834 2857 3677 
Q 2848 3520 2848 3379 
L 2848 563 
Q 2848 429 2851 320 
Q 2854 211 2860 105 
Q 2867 0 2876 -115 
Q 2886 -230 2899 -371 
L 2304 -371 
L 2304 198 
L 1152 198 
L 1152 -422 
z
" transform="scale(0.015625)"/>
      <path id="STHeitiTC-Medium-4ea7" d="M 2368 2778 
Q 2317 2963 2240 3155 
Q 2163 3347 2054 3533 
L 2618 3725 
Q 2726 3526 2809 3337 
Q 2893 3149 2963 2950 
L 2368 2778 
z
M 3962 2650 
Q 4115 2944 4204 3133 
Q 4294 3322 4345 3450 
Q 4397 3578 4419 3664 
Q 4442 3750 4454 3840 
Q 4506 3802 4595 3757 
Q 4685 3712 4777 3667 
Q 4870 3622 4950 3587 
Q 5030 3552 5062 3539 
Q 5152 3507 5149 3472 
Q 5146 3437 5056 3411 
Q 5018 3398 4973 3363 
Q 4928 3328 4867 3248 
Q 4806 3168 4710 3024 
Q 4614 2880 4474 2650 
Q 4838 2650 5104 2650 
Q 5370 2650 5562 2656 
Q 5754 2662 5875 2668 
Q 5997 2675 6067 2688 
L 6067 2189 
Q 5978 2195 5818 2204 
Q 5658 2214 5446 2220 
Q 5235 2227 4985 2230 
Q 4736 2234 4467 2234 
L 1741 2234 
Q 1747 1677 1702 1273 
Q 1658 870 1549 537 
Q 1440 205 1251 -92 
Q 1062 -390 787 -736 
Q 614 -461 326 -282 
Q 563 -102 748 128 
Q 934 358 1046 694 
Q 1158 1030 1193 1513 
Q 1229 1997 1171 2688 
Q 1254 2675 1401 2668 
Q 1549 2662 1846 2659 
Q 2144 2656 2649 2653 
Q 3155 2650 3962 2650 
z
M 3238 4352 
Q 3187 4531 3113 4713 
Q 3040 4896 2970 5030 
L 3661 5146 
Q 3712 4973 3760 4765 
Q 3808 4557 3853 4352 
Q 4525 4358 5014 4371 
Q 5504 4384 5907 4416 
L 5907 3866 
Q 5670 3885 5404 3894 
Q 5139 3904 4825 3913 
Q 4512 3923 4144 3926 
Q 3776 3930 3334 3930 
Q 2893 3930 2528 3926 
Q 2163 3923 1849 3913 
Q 1536 3904 1270 3894 
Q 1005 3885 768 3866 
L 768 4416 
Q 998 4397 1257 4387 
Q 1517 4378 1817 4368 
Q 2118 4358 2467 4355 
Q 2816 4352 3238 4352 
z
" transform="scale(0.015625)"/>
      <path id="STHeitiTC-Medium-54c1" d="M 2061 3315 
L 4237 3315 
L 4237 4365 
L 2061 4365 
L 2061 3315 
z
M 4858 4896 
Q 4832 4774 4825 4662 
Q 4819 4550 4819 4422 
L 4819 3264 
Q 4819 3040 4858 2784 
Q 4762 2797 4630 2809 
Q 4499 2822 4304 2832 
Q 4109 2842 3830 2848 
Q 3552 2854 3162 2854 
Q 2547 2854 2144 2832 
Q 1741 2810 1466 2778 
Q 1491 2906 1500 3027 
Q 1510 3149 1510 3264 
L 1510 4422 
Q 1510 4589 1497 4694 
Q 1485 4800 1466 4896 
Q 1581 4877 1721 4864 
Q 1862 4851 2060 4841 
Q 2259 4832 2524 4829 
Q 2790 4826 3162 4826 
Q 3526 4826 3801 4832 
Q 4077 4838 4278 4848 
Q 4480 4858 4621 4870 
Q 4762 4883 4858 4896 
z
M 3949 -454 
L 3398 -454 
Q 3424 -301 3433 -134 
Q 3443 32 3443 224 
L 3443 1683 
Q 3443 1837 3433 2009 
Q 3424 2182 3398 2323 
Q 3584 2298 3901 2278 
Q 4218 2259 4595 2266 
Q 4966 2272 5270 2288 
Q 5574 2304 5760 2330 
Q 5741 2202 5728 2032 
Q 5715 1862 5715 1690 
L 5715 256 
Q 5715 90 5728 -86 
Q 5741 -262 5754 -390 
L 5197 -390 
L 5197 45 
L 3949 45 
L 3949 -454 
z
M 5197 1824 
L 3949 1824 
L 3949 480 
L 5197 480 
L 5197 1824 
z
M 1190 -474 
L 640 -474 
Q 666 -307 678 -144 
Q 691 19 691 205 
L 691 1645 
Q 691 1837 681 2000 
Q 672 2163 640 2291 
Q 845 2259 1133 2243 
Q 1421 2227 1786 2227 
Q 2170 2227 2477 2246 
Q 2784 2266 2931 2291 
Q 2899 2131 2889 1974 
Q 2880 1818 2880 1645 
L 2880 205 
Q 2880 32 2889 -131 
Q 2899 -294 2925 -442 
L 2374 -442 
L 2374 19 
L 1190 19 
L 1190 -474 
z
M 2374 1798 
L 1190 1798 
L 1190 448 
L 2374 448 
L 2374 1798 
z
" transform="scale(0.015625)"/>
      <path id="STHeitiTC-Medium-4fe1" d="M 5107 1075 
L 3027 1075 
L 3027 314 
L 5107 314 
L 5107 1075 
z
M 3027 -666 
L 2470 -666 
Q 2496 -525 2505 -397 
Q 2515 -269 2515 -102 
L 2515 1018 
Q 2515 1203 2505 1334 
Q 2496 1466 2470 1581 
Q 2541 1568 2656 1558 
Q 2771 1549 2956 1539 
Q 3142 1530 3414 1526 
Q 3686 1523 4064 1523 
Q 4474 1523 4749 1526 
Q 5024 1530 5203 1539 
Q 5382 1549 5488 1558 
Q 5594 1568 5664 1581 
Q 5645 1459 5632 1321 
Q 5619 1184 5619 1018 
L 5619 32 
Q 5619 -275 5664 -538 
L 5107 -538 
L 5107 -134 
L 3027 -134 
L 3027 -666 
z
M 1709 -678 
L 1107 -678 
Q 1146 -397 1165 -109 
Q 1184 179 1184 538 
L 1184 2784 
Q 1088 2618 973 2445 
Q 858 2272 710 2061 
Q 653 2208 557 2320 
Q 461 2432 326 2528 
Q 461 2675 573 2819 
Q 685 2963 781 3123 
Q 877 3283 963 3462 
Q 1050 3642 1133 3853 
Q 1254 4160 1353 4499 
Q 1453 4838 1504 5126 
Q 1670 5037 1801 4989 
Q 1933 4941 2080 4915 
Q 2195 4896 2204 4857 
Q 2214 4819 2112 4749 
Q 2093 4736 2077 4713 
Q 2061 4691 2038 4652 
Q 2016 4614 1987 4547 
Q 1958 4480 1914 4378 
Q 1856 4237 1808 4112 
Q 1760 3987 1709 3878 
L 1709 -678 
z
M 5715 1997 
Q 5408 2022 5021 2035 
Q 4634 2048 4064 2048 
Q 3501 2048 3110 2035 
Q 2720 2022 2419 1997 
L 2419 2541 
Q 2726 2515 3116 2502 
Q 3507 2490 4064 2490 
Q 4634 2490 5021 2502 
Q 5408 2515 5715 2541 
L 5715 1997 
z
M 5683 2880 
Q 5389 2906 5005 2918 
Q 4621 2931 4064 2931 
Q 3514 2931 3130 2921 
Q 2746 2912 2451 2880 
L 2451 3424 
Q 2752 3392 3133 3382 
Q 3514 3373 4064 3373 
Q 4621 3373 5001 3385 
Q 5382 3398 5683 3424 
L 5683 2880 
z
M 6067 3789 
Q 5702 3808 5244 3824 
Q 4787 3840 4122 3840 
Q 3462 3840 3001 3827 
Q 2541 3814 2182 3789 
L 2182 4352 
Q 2547 4320 3004 4304 
Q 3462 4288 4122 4288 
Q 4781 4288 5245 4304 
Q 5709 4320 6067 4352 
L 6067 3789 
z
M 3846 4384 
Q 3814 4544 3756 4717 
Q 3699 4890 3629 5037 
L 4314 5203 
Q 4378 5056 4442 4899 
Q 4506 4742 4563 4589 
L 3846 4384 
z
" transform="scale(0.015625)"/>
      <path id="STHeitiTC-Medium-53f7" d="M 4602 4358 
L 1792 4358 
L 1792 3539 
L 4602 3539 
L 4602 4358 
z
M 5146 3034 
Q 4960 3040 4768 3049 
Q 4576 3059 4345 3062 
Q 4115 3066 3836 3069 
Q 3558 3072 3206 3072 
Q 2848 3072 2566 3069 
Q 2285 3066 2051 3062 
Q 1818 3059 1619 3049 
Q 1421 3040 1242 3034 
Q 1254 3181 1264 3437 
Q 1274 3693 1274 3949 
Q 1274 4205 1264 4457 
Q 1254 4710 1242 4858 
Q 1421 4851 1619 4844 
Q 1818 4838 2051 4835 
Q 2285 4832 2566 4829 
Q 2848 4826 3206 4826 
Q 3558 4826 3836 4829 
Q 4115 4832 4345 4835 
Q 4576 4838 4768 4844 
Q 4960 4851 5146 4858 
Q 5133 4710 5123 4457 
Q 5114 4205 5114 3949 
Q 5114 3693 5123 3437 
Q 5133 3181 5146 3034 
z
M 1779 2112 
Q 1331 2106 960 2093 
Q 589 2080 301 2061 
L 301 2662 
Q 800 2630 1533 2614 
Q 2266 2598 3194 2598 
Q 4122 2598 4858 2614 
Q 5594 2630 6093 2662 
L 6093 2061 
Q 5786 2080 5437 2093 
Q 5088 2106 4646 2112 
Q 4205 2118 3641 2118 
Q 3078 2118 2342 2118 
L 2227 1395 
L 3795 1395 
Q 4000 1395 4214 1398 
Q 4429 1402 4624 1408 
Q 4819 1414 4979 1420 
Q 5139 1427 5242 1440 
Q 5210 1178 5181 989 
Q 5152 800 5126 640 
Q 5101 480 5072 342 
Q 5043 205 5005 51 
Q 4954 -134 4883 -259 
Q 4813 -384 4649 -473 
Q 4486 -563 4192 -630 
Q 3898 -698 3405 -768 
Q 3366 -595 3286 -406 
Q 3206 -218 3117 -83 
Q 3539 -109 3792 -102 
Q 4045 -96 4185 -57 
Q 4326 -19 4380 57 
Q 4435 134 4461 250 
Q 4518 493 4540 646 
Q 4563 800 4576 947 
L 2758 947 
Q 2586 947 2410 940 
Q 2234 934 2074 924 
Q 1914 915 1782 902 
Q 1651 890 1568 877 
Q 1587 966 1612 1120 
Q 1638 1274 1667 1450 
Q 1696 1626 1728 1802 
Q 1760 1978 1779 2112 
z
" transform="scale(0.015625)"/>
     </defs>
     <use xlink:href="#STHeitiTC-Medium-56fe"/>
     <use xlink:href="#STHeitiTC-Medium-20" x="99.999985"/>
     <use xlink:href="#STHeitiTC-Medium-36" x="124.999969"/>
     <use xlink:href="#STHeitiTC-Medium-ff1a" x="180.399963"/>
     <use xlink:href="#STHeitiTC-Medium-4ece" x="280.399948"/>
     <use xlink:href="#STHeitiTC-Medium-201c" x="380.399933"/>
     <use xlink:href="#STHeitiTC-Medium-957f" x="480.399918"/>
     <use xlink:href="#STHeitiTC-Medium-7a97" x="580.399902"/>
     <use xlink:href="#STHeitiTC-Medium-53e3" x="680.399887"/>
     <use xlink:href="#STHeitiTC-Medium-201d" x="780.399872"/>
     <use xlink:href="#STHeitiTC-Medium-8f6c" x="880.399857"/>
     <use xlink:href="#STHeitiTC-Medium-5411" x="980.399841"/>
     <use xlink:href="#STHeitiTC-Medium-201c" x="1080.399826"/>
     <use xlink:href="#STHeitiTC-Medium-957f" x="1180.399811"/>
     <use xlink:href="#STHeitiTC-Medium-65f6" x="1280.399796"/>
     <use xlink:href="#STHeitiTC-Medium-670d" x="1380.39978"/>
     <use xlink:href="#STHeitiTC-Medium-52a1" x="1480.399765"/>
     <use xlink:href="#STHeitiTC-Medium-201d" x="1580.39975"/>
     <use xlink:href="#STHeitiTC-Medium-7684" x="1680.399734"/>
     <use xlink:href="#STHeitiTC-Medium-4ea7" x="1780.399719"/>
     <use xlink:href="#STHeitiTC-Medium-54c1" x="1880.399704"/>
     <use xlink:href="#STHeitiTC-Medium-4fe1" x="1980.399689"/>
     <use xlink:href="#STHeitiTC-Medium-53f7" x="2080.399673"/>
    </g>
   </g>
  </g>
 </g>
 <defs>
  <clipPath id="p41813f8155">
   <rect x="43.183594" y="33.7275" width="457.002" height="293.832"/>
  </clipPath>
 </defs>
</svg>
