<svg xmlns="http://www.w3.org/2000/svg" width="1600" height="980" viewBox="0 0 1600 980">
<defs>
<pattern id="grid" width="32" height="32" patternUnits="userSpaceOnUse"><path d="M 32 0 L 0 0 0 32" fill="none" stroke="#E2E8F0" stroke-width="1"/></pattern>
</defs>
<style>text { font-family: -apple-system, BlinkMacSystemFont, 'Segoe UI', Helvetica, Arial, 'PingFang SC', 'Microsoft YaHei', sans-serif; }</style>
<rect width="1600" height="980" fill="#F8FAFC"/>
<rect width="1600" height="980" fill="url(#grid)" opacity="0.5"/>
<rect x="36" y="28" width="1528" height="924" rx="26" ry="26" fill="rgba(255,255,255,0.0)" stroke="#E2E8F0" stroke-width="1.5"/>
<text x="56" y="70" font-size="32" font-weight="800" fill="#0F172A">Figure 9. DeepSeek-V4 cache growth vs fixed recurrent state</text>
<text x="56" y="102" font-size="18" font-weight="500" fill="#475569">Break-even depends on state size: below the crossing, fixed state can be larger; above it, length-related KV dominates</text>
<rect x="150" y="164" width="1310" height="636" fill="#FFFFFF" stroke="#CBD5E1" stroke-width="1.5" rx="12" ry="12"/>
<line x1="150" y1="683.9" x2="1460" y2="683.9" stroke="#E2E8F0" stroke-width="1"/>
<text x="132" y="688.9" text-anchor="end" font-size="14" font-weight="600" fill="#475569">0.1</text>
<line x1="150" y1="567.8" x2="1460" y2="567.8" stroke="#E2E8F0" stroke-width="1"/>
<text x="132" y="572.8" text-anchor="end" font-size="14" font-weight="600" fill="#475569">1</text>
<line x1="150" y1="462.9" x2="1460" y2="462.9" stroke="#E2E8F0" stroke-width="1"/>
<text x="132" y="467.9" text-anchor="end" font-size="14" font-weight="600" fill="#475569">8</text>
<line x1="150" y1="427.9" x2="1460" y2="427.9" stroke="#E2E8F0" stroke-width="1"/>
<text x="132" y="432.9" text-anchor="end" font-size="14" font-weight="600" fill="#475569">16</text>
<line x1="150" y1="393.0" x2="1460" y2="393.0" stroke="#E2E8F0" stroke-width="1"/>
<text x="132" y="398.0" text-anchor="end" font-size="14" font-weight="600" fill="#475569">32</text>
<line x1="150" y1="323.1" x2="1460" y2="323.1" stroke="#E2E8F0" stroke-width="1"/>
<text x="132" y="328.1" text-anchor="end" font-size="14" font-weight="600" fill="#475569">128</text>
<line x1="150" y1="218.2" x2="1460" y2="218.2" stroke="#E2E8F0" stroke-width="1"/>
<text x="132" y="223.2" text-anchor="end" font-size="14" font-weight="600" fill="#475569">1024</text>
<line x1="150.0" y1="164" x2="150.0" y2="800" stroke="#E2E8F0" stroke-width="1"/>
<text x="150.0" y="834" text-anchor="middle" font-size="14" font-weight="600" fill="#475569">1K</text>
<line x1="525.2" y1="164" x2="525.2" y2="800" stroke="#E2E8F0" stroke-width="1"/>
<text x="525.2" y="834" text-anchor="middle" font-size="14" font-weight="600" fill="#475569">16K</text>
<line x1="806.6" y1="164" x2="806.6" y2="800" stroke="#E2E8F0" stroke-width="1"/>
<text x="806.6" y="834" text-anchor="middle" font-size="14" font-weight="600" fill="#475569">128K</text>
<line x1="1084.8" y1="164" x2="1084.8" y2="800" stroke="#E2E8F0" stroke-width="1"/>
<text x="1084.8" y="834" text-anchor="middle" font-size="14" font-weight="600" fill="#475569">1M</text>
<line x1="1272.4" y1="164" x2="1272.4" y2="800" stroke="#E2E8F0" stroke-width="1"/>
<text x="1272.4" y="834" text-anchor="middle" font-size="14" font-weight="600" fill="#475569">4M</text>
<line x1="1460.0" y1="164" x2="1460.0" y2="800" stroke="#E2E8F0" stroke-width="1"/>
<text x="1460.0" y="834" text-anchor="middle" font-size="14" font-weight="600" fill="#475569">16M</text>
<polyline points="150.0,676.2 337.6,606.3 525.2,536.4 712.8,466.5 806.6,431.6 900.4,396.6 994.2,361.6 1084.8,327.9 1091.2,325.5 1178.6,292.9 1272.4,258.0 1366.2,223.0 1460.0,188.1" fill="none" stroke="#BE123C" stroke-width="3" stroke-linejoin="round" stroke-linecap="round" stroke-dasharray="12 9"/>
<polyline points="150.0,780.3 337.6,710.4 525.2,640.5 712.8,570.6 806.6,535.7 900.4,500.7 994.2,465.7 1084.8,432.0 1091.2,429.6 1178.6,397.0 1272.4,362.1 1366.2,327.1 1460.0,292.2" fill="none" stroke="#1D4ED8" stroke-width="5" stroke-linejoin="round" stroke-linecap="round"/>
<polyline points="150.0,462.9 337.6,462.9 525.2,462.9 712.8,462.9 806.6,462.9 900.4,462.9 994.2,462.9 1084.8,462.9 1091.2,462.9 1178.6,462.9 1272.4,462.9 1366.2,462.9 1460.0,462.9" fill="none" stroke="#0F766E" stroke-width="3" stroke-linejoin="round" stroke-linecap="round"/>
<polyline points="150.0,427.9 337.6,427.9 525.2,427.9 712.8,427.9 806.6,427.9 900.4,427.9 994.2,427.9 1084.8,427.9 1091.2,427.9 1178.6,427.9 1272.4,427.9 1366.2,427.9 1460.0,427.9" fill="none" stroke="#B45309" stroke-width="3" stroke-linejoin="round" stroke-linecap="round"/>
<polyline points="150.0,393.0 337.6,393.0 525.2,393.0 712.8,393.0 806.6,393.0 900.4,393.0 994.2,393.0 1084.8,393.0 1091.2,393.0 1178.6,393.0 1272.4,393.0 1366.2,393.0 1460.0,393.0" fill="none" stroke="#7C3AED" stroke-width="3" stroke-linejoin="round" stroke-linecap="round"/>
<circle cx="1001.8" cy="462.9" r="7" fill="#FFFFFF" stroke="#0F172A" stroke-width="2"/>
<text x="1013.8" y="450.9" font-size="14" font-weight="700" fill="#0F172A">8 GiB ≈ 0.54M</text>
<circle cx="1095.6" cy="427.9" r="7" fill="#FFFFFF" stroke="#0F172A" stroke-width="2"/>
<text x="1107.6" y="415.9" font-size="14" font-weight="700" fill="#0F172A">16 GiB ≈ 1.08M</text>
<circle cx="1189.4" cy="393.0" r="7" fill="#FFFFFF" stroke="#0F172A" stroke-width="2"/>
<text x="1201.4" y="381.0" font-size="14" font-weight="700" fill="#0F172A">32 GiB ≈ 2.17M</text>
<rect x="881" y="170" width="500" height="178" rx="12" ry="12" fill="#FFFFFF" stroke="#E2E8F0" stroke-width="1.2"/>
<line x1="905" y1="202" x2="949" y2="202" stroke="#1D4ED8" stroke-width="4" stroke-linecap="round"/>
<text x="963" y="207" font-size="15" font-weight="600" fill="#475569">DeepSeek-V4 compressed KV, BF16</text>
<line x1="905" y1="232" x2="949" y2="232" stroke="#BE123C" stroke-width="4" stroke-linecap="round" stroke-dasharray="10 7"/>
<text x="963" y="237" font-size="15" font-weight="600" fill="#475569">Uncompressed MQA KV with same layer/head width</text>
<line x1="905" y1="262" x2="949" y2="262" stroke="#0F766E" stroke-width="4" stroke-linecap="round"/>
<text x="963" y="267" font-size="15" font-weight="600" fill="#475569">Fixed recurrent state: 8 GiB</text>
<line x1="905" y1="292" x2="949" y2="292" stroke="#B45309" stroke-width="4" stroke-linecap="round"/>
<text x="963" y="297" font-size="15" font-weight="600" fill="#475569">Fixed recurrent state: 16 GiB</text>
<line x1="905" y1="322" x2="949" y2="322" stroke="#7C3AED" stroke-width="4" stroke-linecap="round"/>
<text x="963" y="327" font-size="15" font-weight="600" fill="#475569">Fixed recurrent state: 32 GiB</text>
<text x="805.0" y="876" text-anchor="middle" font-size="16" font-weight="700" fill="#0F172A">Context tokens, log scale</text>
<text x="58" y="482.0" transform="rotate(-90 58 482.0)" text-anchor="middle" font-size="16" font-weight="700" fill="#0F172A">Runtime memory per sequence (GiB), log scale</text>
<text x="56" y="904" font-size="15" font-weight="500" fill="#475569">Assumption: DeepSeek-V4-Pro config, 61 compressed layers, one KV head, head_dim=512, BF16 cache; SWA/tail state is only tens of MiB at this scale.</text>
<text x="56" y="928" font-size="15" font-weight="500" fill="#475569">Interpretation: fixed state above the blue line is more memory-heavy than DeepSeek-V4 cache at that context length; below the blue line it is cheaper.</text>
</svg>
